STARTFONT 2.3
FONT -FontForge-Lobster-Book-R-Normal--18-180-72-72-P-105-ISO10646-1
SIZE 18 72 72  2
FONTBOUNDINGBOX 36 27 -8 -8
COMMENT "Generated by fontforge, http://fontforge.sourceforge.net"
COMMENT "Copyright 2010 The Lobster Project Authors (https://github.com/impallari/The-Lobster-Font), with Reserved Font Name "Lobster"."
STARTPROPERTIES 41
FOUNDRY "FontForge"
FAMILY_NAME "Lobster"
WEIGHT_NAME "Book"
SLANT "R"
SETWIDTH_NAME "Normal"
ADD_STYLE_NAME ""
PIXEL_SIZE 18
POINT_SIZE 180
RESOLUTION_X 72
RESOLUTION_Y 72
SPACING "P"
AVERAGE_WIDTH 105
CHARSET_REGISTRY "ISO10646"
CHARSET_ENCODING "1"
FONTNAME_REGISTRY ""
CHARSET_COLLECTIONS "ISO8859-2 ISO8859-5 ISO8859-9 ISO8859-4 ISO10646-1"
BITS_PER_PIXEL 2
FONT_NAME "Lobster-Regular"
FACE_NAME "Lobster Regular"
COPYRIGHT "Copyright 2010 The Lobster Project Authors (https://github.com/impallari/The-Lobster-Font), with Reserved Font Name "Lobster"."
FONT_VERSION "2.100"
FONT_ASCENT 14
FONT_DESCENT 4
UNDERLINE_POSITION -2
UNDERLINE_THICKNESS 1
X_HEIGHT 9
CAP_HEIGHT 12
DEFAULT_CHAR 1
RAW_ASCENT 800
RAW_DESCENT 200
NORM_SPACE 4
RELATIVE_WEIGHT 40
RELATIVE_SETWIDTH 50
SUPERSCRIPT_X 0
SUPERSCRIPT_Y 6
SUPERSCRIPT_SIZE 10
SUBSCRIPT_X 0
SUBSCRIPT_Y 1
SUBSCRIPT_SIZE 10
AVG_LOWERCASE_WIDTH 84
AVG_UPPERCASE_WIDTH 111
ENDPROPERTIES
CHARS 1148
STARTCHAR NULL.dup1
ENCODING 0
SWIDTH 600 0
DWIDTH 11 0
BBX 1 1 0 0
BITMAP
00
ENDCHAR
STARTCHAR nonmarkingreturn
ENCODING 13
SWIDTH 600 0
DWIDTH 11 0
BBX 1 1 0 0
BITMAP
00
ENDCHAR
STARTCHAR space
ENCODING 32
SWIDTH 217 0
DWIDTH 4 0
BBX 1 1 0 0
BITMAP
00
ENDCHAR
STARTCHAR exclam
ENCODING 33
SWIDTH 257 0
DWIDTH 5 0
BBX 6 13 0 0
BITMAP
03E0
03D0
07C0
07C0
0B80
0B40
0F00
0E00
0D00
0000
2800
7D00
3C00
ENDCHAR
STARTCHAR quotedbl
ENCODING 34
SWIDTH 353 0
DWIDTH 6 0
BBX 7 4 1 9
BITMAP
1DB4
2CE0
35D0
7280
ENDCHAR
STARTCHAR numbersign
ENCODING 35
SWIDTH 659 0
DWIDTH 12 0
BBX 10 12 1 1
BITMAP
014140
028340
028340
034700
3FFFE0
070A00
0A0D00
BFFF80
1D2C00
1C2800
1C2800
283400
ENDCHAR
STARTCHAR dollar
ENCODING 36
SWIDTH 548 0
DWIDTH 10 0
BBX 10 18 0 -2
BITMAP
000600
000600
000900
01AE80
07CDD0
07DAD0
07F400
02F800
00BD00
007F00
2DAF80
B98F80
B4CB80
B58F40
3EBE00
1BE400
030000
020000
ENDCHAR
STARTCHAR percent
ENCODING 37
SWIDTH 796 0
DWIDTH 14 0
BBX 13 13 1 0
BITMAP
0B802800
39D07000
B4E0D000
F0E18000
E1D34000
E2CA0000
E39C2F40
7E28B6C0
0071E2C0
00D1D2C0
0282C380
0341DB40
0A00B900
ENDCHAR
STARTCHAR ampersand
ENCODING 38
SWIDTH 682 0
DWIDTH 12 0
BBX 12 13 0 0
BITMAP
007E40
02E2C0
07C2D0
078280
07C000
02F401
0B82AE
3F0BFD
7E0990
BD00C0
BE0680
7FFE00
1BE400
ENDCHAR
STARTCHAR quotesingle
ENCODING 39
SWIDTH 196 0
DWIDTH 4 0
BBX 4 4 1 9
BITMAP
1D
2C
34
70
ENDCHAR
STARTCHAR parenleft
ENCODING 40
SWIDTH 437 0
DWIDTH 8 0
BBX 8 18 2 -4
BITMAP
0005
0028
00A0
02C0
0780
0F00
1E00
2D00
3C00
3C00
7C00
7800
7800
3C00
2C00
1D00
0A00
0300
ENDCHAR
STARTCHAR parenright
ENCODING 41
SWIDTH 413 0
DWIDTH 7 0
BBX 7 18 -1 -4
BITMAP
0100
0180
00D0
00B0
00B4
0074
0078
0078
00B8
00B4
00F4
00F0
01D0
03C0
0740
0E00
3800
9000
ENDCHAR
STARTCHAR asterisk
ENCODING 42
SWIDTH 515 0
DWIDTH 9 0
BBX 7 7 1 6
BITMAP
0340
7778
2FE4
1BD0
7BB8
1354
0740
ENDCHAR
STARTCHAR plus
ENCODING 43
SWIDTH 442 0
DWIDTH 8 0
BBX 7 7 0 2
BITMAP
01C0
02C0
0280
BFFC
5754
0700
0500
ENDCHAR
STARTCHAR comma
ENCODING 44
SWIDTH 216 0
DWIDTH 4 0
BBX 3 5 0 -2
BITMAP
78
BC
38
24
50
ENDCHAR
STARTCHAR hyphen
ENCODING 45
SWIDTH 290 0
DWIDTH 5 0
BBX 4 1 0 4
BITMAP
7F
ENDCHAR
STARTCHAR period
ENCODING 46
SWIDTH 263 0
DWIDTH 5 0
BBX 4 3 0 0
BITMAP
28
7D
3C
ENDCHAR
STARTCHAR slash
ENCODING 47
SWIDTH 311 0
DWIDTH 6 0
BBX 6 17 0 -4
BITMAP
00D0
01C0
0280
0280
0340
0700
0700
0A00
0D00
0D00
1C00
2800
2800
3400
7000
7000
A000
ENDCHAR
STARTCHAR zero
ENCODING 48
SWIDTH 546 0
DWIDTH 10 0
BBX 10 13 0 0
BITMAP
00BF40
03E3D0
0B82E0
1F41F0
3F02F0
3E02F0
7D02E0
BD03D0
BC07C0
BC0B80
7C0F40
3E2D00
1BE400
ENDCHAR
STARTCHAR one
ENCODING 49
SWIDTH 317 0
DWIDTH 6 0
BBX 6 13 0 0
BITMAP
01A0
2FD0
07D0
0BC0
0B80
0F80
1F40
1F00
2F00
3E00
3E00
7D00
BC00
ENDCHAR
STARTCHAR two
ENCODING 50
SWIDTH 492 0
DWIDTH 9 0
BBX 9 13 0 0
BITMAP
06F900
1E2F00
2C1F40
2D1F40
192F40
003D00
00B800
02D000
0E0000
380000
BA5600
FFFF00
96F900
ENDCHAR
STARTCHAR three
ENCODING 51
SWIDTH 514 0
DWIDTH 9 0
BBX 9 13 0 0
BITMAP
02FE00
0B4B80
0F07C0
0A4B80
002E00
00BC00
002F00
2D1F80
B80F80
F40F80
B01F00
787D00
1BE400
ENDCHAR
STARTCHAR four
ENCODING 52
SWIDTH 476 0
DWIDTH 9 0
BBX 9 13 0 0
BITMAP
00E000
00F400
01F000
02E600
078A00
0A0D00
281D40
7FFF80
EBFF40
007800
00B400
00F400
01F000
ENDCHAR
STARTCHAR five
ENCODING 53
SWIDTH 517 0
DWIDTH 9 0
BBX 9 13 0 0
BITMAP
000040
07FFC0
0BBF40
0A0000
0D0000
1EF900
196F00
001F80
2E0F80
B80F80
B41F00
797D00
2FE400
ENDCHAR
STARTCHAR six
ENCODING 54
SWIDTH 500 0
DWIDTH 9 0
BBX 9 13 0 0
BITMAP
00BF40
03E2C0
0B82C0
1F0140
3E0000
7DBD00
BE5F40
BD0B80
BC0B80
BC0B40
7C0F00
3E2D00
1BE000
ENDCHAR
STARTCHAR seven
ENCODING 55
SWIDTH 464 0
DWIDTH 8 0
BBX 9 13 1 0
BITMAP
6E4140
FFFF00
956D00
003800
00B000
02D000
0B8000
1F4000
3E0000
7D0000
BC0000
BC0000
3D0000
ENDCHAR
STARTCHAR eight
ENCODING 56
SWIDTH 499 0
DWIDTH 9 0
BBX 9 13 0 0
BITMAP
01BE00
0B9780
0F43C0
1F4780
0FDB00
07F800
07FD00
2D7F00
B81F80
F40F80
F40F40
7D6E00
1BE400
ENDCHAR
STARTCHAR nine
ENCODING 57
SWIDTH 489 0
DWIDTH 9 0
BBX 9 13 0 0
BITMAP
02FD00
1F5F40
3D0B80
7C0B80
780FC0
7C2F80
2FDF80
001F40
002F00
743E00
B07C00
B5F400
2F8000
ENDCHAR
STARTCHAR colon
ENCODING 58
SWIDTH 267 0
DWIDTH 5 0
BBX 5 7 0 1
BITMAP
0B00
1F40
0A00
0000
2800
7E00
2D00
ENDCHAR
STARTCHAR semicolon
ENCODING 59
SWIDTH 276 0
DWIDTH 5 0
BBX 4 10 1 -3
BITMAP
28
7D
2D
00
50
F4
F4
70
90
40
ENDCHAR
STARTCHAR less
ENCODING 60
SWIDTH 358 0
DWIDTH 6 0
BBX 7 7 0 1
BITMAP
0024
02E0
2E40
B800
2F40
02D0
0040
ENDCHAR
STARTCHAR equal
ENCODING 61
SWIDTH 515 0
DWIDTH 9 0
BBX 9 6 0 2
BITMAP
1FFF40
2FFF00
000000
000000
3FFE00
7FFD00
ENDCHAR
STARTCHAR greater
ENCODING 62
SWIDTH 362 0
DWIDTH 7 0
BBX 6 7 0 1
BITMAP
2400
2F40
02E0
02E0
2F40
B400
4000
ENDCHAR
STARTCHAR question
ENCODING 63
SWIDTH 441 0
DWIDTH 8 0
BBX 7 13 1 0
BITMAP
1FE0
B5F8
E0B8
F4F4
11E0
0740
1D00
2800
3000
0000
A400
F800
B400
ENDCHAR
STARTCHAR at
ENCODING 64
SWIDTH 688 0
DWIDTH 12 0
BBX 12 12 0 -1
BITMAP
006FA0
02E478
0F6E9D
2DB78E
75D74E
B2C70D
E38B1C
E38E78
E2E7E0
E00100
780740
1FFD00
ENDCHAR
STARTCHAR A
ENCODING 65
SWIDTH 668 0
DWIDTH 12 0
BBX 13 15 0 -2
BITMAP
00002F40
0001AF40
00076F00
000D3E00
00283E00
1BF97D00
B9F5FC00
B6D0BC00
03C0F800
0B81F400
0F41F400
1F02F000
1F03E000
1E000000
0A000000
ENDCHAR
STARTCHAR B
ENCODING 66
SWIDTH 641 0
DWIDTH 12 0
BBX 11 13 0 0
BITMAP
01BF90
0B55B4
3CB878
B4F474
B1F5E0
72FFE0
02E1F8
03E0BC
07D0BC
07C0B8
0BC1F4
0FAFE0
0F5F80
ENDCHAR
STARTCHAR C
ENCODING 67
SWIDTH 497 0
DWIDTH 9 0
BBX 10 13 0 0
BITMAP
00BF80
03F5D0
0BD0E0
1F81D0
2F4000
3F0000
7E0000
BD0000
BD0000
BD0000
7E0040
3F4640
1BF900
ENDCHAR
STARTCHAR D
ENCODING 68
SWIDTH 663 0
DWIDTH 12 0
BBX 12 13 0 0
BITMAP
01BF90
0B51F4
38B87C
B4F43D
F1F43E
A2F03E
13E03D
03E07D
07D0BC
0BC0F8
0BC1F0
0F87D0
1FAE40
ENDCHAR
STARTCHAR E
ENCODING 69
SWIDTH 459 0
DWIDTH 8 0
BBX 9 13 0 0
BITMAP
00BE00
02E280
07C280
0B8240
07C000
03E000
1F8000
3F0000
BD0000
BD0040
BE0240
7FFD00
1FE000
ENDCHAR
STARTCHAR F
ENCODING 70
SWIDTH 459 0
DWIDTH 8 0
BBX 11 13 0 0
BITMAP
06FFF8
2DFEE0
74F400
B1F400
B2F000
62FF40
03E500
07D000
07C000
0BC000
0F8000
0F4000
1F4000
ENDCHAR
STARTCHAR G
ENCODING 71
SWIDTH 578 0
DWIDTH 10 0
BBX 11 16 0 -3
BITMAP
00AF90
07E4B0
1F80B4
3F00E0
7E0000
BD0050
BC02E0
7D03D0
3E0BC0
1FEBC0
000B80
000F40
0BDF00
2C2E00
2C3D00
0BF400
ENDCHAR
STARTCHAR H
ENCODING 72
SWIDTH 665 0
DWIDTH 12 0
BBX 13 13 0 0
BITMAP
01BC1F40
09BC1F00
34F82F00
B1F43E00
B1F47D00
62FFFD00
02E5BC00
03E0BC00
07D0F800
07C1F400
0BC1F400
0F82F000
0F43E000
ENDCHAR
STARTCHAR I
ENCODING 73
SWIDTH 375 0
DWIDTH 7 0
BBX 7 13 0 0
BITMAP
01BC
0AF8
38F8
B1F4
F1F0
A2F0
03E0
03D0
07D0
0BC0
0B80
0F80
1F40
ENDCHAR
STARTCHAR J
ENCODING 74
SWIDTH 536 0
DWIDTH 10 0
BBX 11 16 0 -3
BITMAP
0006F4
002EF0
00B2F0
01D3E0
02C7D0
01C7C0
000BC0
000F80
001F40
001F40
002F00
003E00
2F7E00
B07D00
B0B800
2FE000
ENDCHAR
STARTCHAR K
ENCODING 75
SWIDTH 601 0
DWIDTH 11 0
BBX 12 13 0 0
BITMAP
01BC1D
1EF874
78F8E0
B1F780
A1FA00
62FF90
03E2E0
03D2E0
07D2E0
0BC3D0
0B87C0
0F8BC0
1F47D0
ENDCHAR
STARTCHAR L
ENCODING 76
SWIDTH 379 0
DWIDTH 7 0
BBX 12 17 0 -4
BITMAP
01BC00
0AF800
38F800
B1F400
F1F000
62F000
03E000
03D000
07D000
0BC000
0B8000
0F8000
1F9000
01BE40
001FFE
0007FE
0000BC
ENDCHAR
STARTCHAR M
ENCODING 77
SWIDTH 787 0
DWIDTH 14 0
BBX 14 13 1 0
BITMAP
01BD07D0
09BD0BD0
38FD1FC0
B1FD2FC0
B2FC3F80
73FC7F80
07BCEF80
0A7DDF40
0DBE9F40
1CBF6F00
38BE2F00
74BD2E00
A0BC3E00
ENDCHAR
STARTCHAR N
ENCODING 78
SWIDTH 668 0
DWIDTH 12 0
BBX 13 13 0 0
BITMAP
06FC0380
1DBD0380
74FE0740
B1FE0B00
F1FF0B00
B2DF4E00
13CF5D00
038F9D00
074BEC00
0B47F800
0B03F800
0E03F400
1D02F000
ENDCHAR
STARTCHAR O
ENCODING 79
SWIDTH 665 0
DWIDTH 12 0
BBX 12 13 0 0
BITMAP
006FE0
07957C
2D7D2E
74F42E
B2F02E
77D02E
0BC03E
0BC07D
0F80BC
0F80F4
0F82E0
0BEBC0
02FE00
ENDCHAR
STARTCHAR P
ENCODING 80
SWIDTH 573 0
DWIDTH 10 0
BBX 11 13 0 0
BITMAP
01BF80
0A41F0
38B8B8
B0F478
F1F4B8
A2F0F0
13E2D0
03EA40
07D000
0BC000
0BC000
0F8000
1F4000
ENDCHAR
STARTCHAR Q
ENCODING 81
SWIDTH 665 0
DWIDTH 12 0
BBX 12 15 0 -2
BITMAP
006FE0
0B957C
2D7C2D
74F42E
B2F02E
77D02E
0BC03E
0BC07D
0F80BC
0F80F8
0FEAF0
0BDFD0
02FF80
0003E8
0001F4
ENDCHAR
STARTCHAR R
ENCODING 82
SWIDTH 601 0
DWIDTH 11 0
BBX 11 13 0 0
BITMAP
01BF90
1F55F4
78F874
B1F4B4
E1F1D0
62FFD0
03E7E0
03D2E0
07D2E0
0BC3D0
0B87C0
0F8BC0
1F47D0
ENDCHAR
STARTCHAR S
ENCODING 83
SWIDTH 570 0
DWIDTH 10 0
BBX 10 13 0 0
BITMAP
007F80
02E5E0
07D0F0
07E1E0
03F400
01FD00
007F00
051F80
2E4BC0
7C07D0
780BC0
3D6F40
0BF800
ENDCHAR
STARTCHAR T
ENCODING 84
SWIDTH 481 0
DWIDTH 9 0
BBX 13 13 0 0
BITMAP
06FF9080
1D6FFF80
743FAE00
B03E0000
E07D0000
A0BD0000
10BC0000
00F80000
01F40000
01F40000
02F00000
03E00000
03E00000
ENDCHAR
STARTCHAR U
ENCODING 85
SWIDTH 716 0
DWIDTH 13 0
BBX 14 13 0 0
BITMAP
01BE03E0
1E7D07D0
74BC07C0
F0B80BC0
E0F40F80
A1F40F80
02F01F40
03E02F00
03D02E00
03D03D00
03D0BC00
02FBF400
00BF8000
ENDCHAR
STARTCHAR V
ENCODING 86
SWIDTH 615 0
DWIDTH 11 0
BBX 12 13 0 0
BITMAP
01BC03
0ABC06
38BD09
B07D0C
F07D18
A07D34
007D70
007D90
007DC0
007E80
007F40
007F00
007E00
ENDCHAR
STARTCHAR W
ENCODING 87
SWIDTH 962 0
DWIDTH 17 0
BBX 19 13 0 0
BITMAP
01BC03D034
0ABC07D070
38BD0BD0A0
B07D0FD0D0
F07D1FD1C0
A07D37D240
007D77D300
007D93D600
007DC3D900
007E83EC00
007F43F800
007F03F000
007E03E000
ENDCHAR
STARTCHAR X
ENCODING 88
SWIDTH 620 0
DWIDTH 11 0
BBX 11 13 0 0
BITMAP
01BD1C
0ABD24
387E60
B03FD0
F02F80
A02F40
001F80
001F80
003FC0
00ABD0
00C7D0
0247E0
0603E0
ENDCHAR
STARTCHAR Y
ENCODING 89
SWIDTH 620 0
DWIDTH 11 0
BBX 13 13 0 0
BITMAP
01BD0340
0ABE0700
387E0900
B03F0C00
F02F6800
A01FB000
000FE000
000FC000
000FC000
001F8000
001F4000
002F4000
003F0000
ENDCHAR
STARTCHAR Z
ENCODING 90
SWIDTH 542 0
DWIDTH 10 0
BBX 10 13 0 0
BITMAP
0BFFE0
1E0BC0
1D1F80
002F00
007E00
00BC00
01F800
03F000
07E000
0FC000
1F4280
3F03C0
BFFF40
ENDCHAR
STARTCHAR bracketleft
ENCODING 91
SWIDTH 400 0
DWIDTH 7 0
BBX 8 17 0 -4
BITMAP
01FD
02D0
03C0
0380
0780
0B40
0B00
0F00
1E00
1D00
2C00
3C00
3800
7400
B400
B000
FE00
ENDCHAR
STARTCHAR backslash
ENCODING 92
SWIDTH 362 0
DWIDTH 7 0
BBX 5 17 1 -4
BITMAP
C000
D000
A000
7000
7000
3400
2800
2800
1C00
0D00
0D00
0A00
0700
0700
0340
0280
0280
ENDCHAR
STARTCHAR bracketright
ENCODING 93
SWIDTH 400 0
DWIDTH 7 0
BBX 8 17 -1 -4
BITMAP
01FD
002D
002C
0038
0078
00B4
00B0
00F0
01E0
01D0
02D0
03C0
0380
0780
0B40
0B00
FF00
ENDCHAR
STARTCHAR asciicircum
ENCODING 94
SWIDTH 421 0
DWIDTH 8 0
BBX 5 4 1 10
BITMAP
0100
0740
1E80
A080
ENDCHAR
STARTCHAR underscore
ENCODING 95
SWIDTH 444 0
DWIDTH 8 0
BBX 7 1 0 0
BITMAP
7FFC
ENDCHAR
STARTCHAR grave
ENCODING 96
SWIDTH 201 0
DWIDTH 4 0
BBX 3 3 0 10
BITMAP
74
38
18
ENDCHAR
STARTCHAR a
ENCODING 97
SWIDTH 526 0
DWIDTH 9 0
BBX 11 9 -1 0
BITMAP
01FBE0
0BDBD0
1F47C0
2F0BC0
3E0F80
7D0F40
7D1F48
3FAFE4
1F8B90
ENDCHAR
STARTCHAR b
ENCODING 98
SWIDTH 444 0
DWIDTH 8 0
BBX 8 13 0 0
BITMAP
0540
1F40
1F00
2F00
3FF4
3E2C
7D2D
BC2D
B82C
F83C
F8B4
FFE0
7E40
ENDCHAR
STARTCHAR c
ENCODING 99
SWIDTH 384 0
DWIDTH 7 0
BBX 9 9 -1 0
BITMAP
01F800
0BDE00
1F4D00
2F0000
3E0000
7E0000
7D0140
3E1900
1BE000
ENDCHAR
STARTCHAR d
ENCODING 100
SWIDTH 525 0
DWIDTH 9 0
BBX 11 13 -1 0
BITMAP
000050
0001F4
0002F0
0003E0
01FBE0
0BDBD0
1F47D0
2F0BC0
3E0F80
7E0F80
7D1F44
3E2F54
1F9BD0
ENDCHAR
STARTCHAR e
ENCODING 101
SWIDTH 384 0
DWIDTH 7 0
BBX 8 9 -1 0
BITMAP
01FD
0BDE
1F4D
2E2C
3FE0
7E00
7D02
3E19
1BE0
ENDCHAR
STARTCHAR f
ENCODING 102
SWIDTH 267 0
DWIDTH 5 0
BBX 11 17 -4 -4
BITMAP
0002F4
000F9C
001F00
002F00
002FC0
003E00
007D00
00BC00
00BC00
00F800
01F400
01F400
02F000
2FE000
A3E000
97C000
2E4000
ENDCHAR
STARTCHAR g
ENCODING 103
SWIDTH 507 0
DWIDTH 9 0
BBX 11 13 -1 -4
BITMAP
01FBE0
0BDBD0
1F47C0
2F0BC0
3E0F80
7D0F44
7E2F58
3FFF20
1FBF80
01FE00
0A7D00
09BC00
07E000
ENDCHAR
STARTCHAR h
ENCODING 104
SWIDTH 505 0
DWIDTH 9 0
BBX 11 13 -1 0
BITMAP
015000
07D000
07C000
0BC000
0FEE00
0F9F80
1F4F80
2F0F80
2E1F40
3E1F00
3D2F08
7D2F20
BC0B90
ENDCHAR
STARTCHAR i
ENCODING 105
SWIDTH 267 0
DWIDTH 5 0
BBX 6 12 0 0
BITMAP
0F00
1F40
0A00
3E00
3D00
7D00
BC00
BC00
F800
F490
FE80
7D00
ENDCHAR
STARTCHAR j
ENCODING 106
SWIDTH 240 0
DWIDTH 4 0
BBX 9 16 -4 -4
BITMAP
001E00
002F40
000A00
003E00
003E00
007D00
00BC00
00BC00
00F840
01F480
01F600
02F800
1FE000
67E000
ABC000
6E4000
ENDCHAR
STARTCHAR k
ENCODING 107
SWIDTH 518 0
DWIDTH 9 0
BBX 11 13 -1 0
BITMAP
015000
07D000
07C000
0BC000
0F8280
0F9D00
1FB900
2FFF40
2F5F40
3E1F40
3D1F08
7D1FB4
BC0BD0
ENDCHAR
STARTCHAR l
ENCODING 108
SWIDTH 267 0
DWIDTH 5 0
BBX 6 13 0 0
BITMAP
0640
1F40
1F00
2F00
3E00
3E00
7D00
BC00
BC00
F810
F480
FA80
7D00
ENDCHAR
STARTCHAR m
ENCODING 109
SWIDTH 752 0
DWIDTH 14 0
BBX 15 9 -1 0
BITMAP
0FEF6F40
0F9FDBC0
1F4F87C0
2F0F4BC0
2E1F4B80
3E2F0F80
3D2F0F48
7D3E0F58
BC3D07E0
ENDCHAR
STARTCHAR n
ENCODING 110
SWIDTH 505 0
DWIDTH 9 0
BBX 11 9 -1 0
BITMAP
0FEE00
0F9F80
1F4F80
2F0F80
2E1F40
3E1F00
3D2F08
7D2F20
BC0B90
ENDCHAR
STARTCHAR o
ENCODING 111
SWIDTH 439 0
DWIDTH 8 0
BBX 11 9 -1 0
BITMAP
01B900
0BDA00
1F4B18
2F0F90
3E0A00
7E0E00
7D1D00
3E3800
1BD000
ENDCHAR
STARTCHAR p
ENCODING 112
SWIDTH 468 0
DWIDTH 8 0
BBX 10 14 -2 -4
BITMAP
019000
03FBD0
03E2E0
07D2F0
07C2F0
0B82E0
0F83E0
0F4BD0
1FAF80
2FBD00
2E0000
3E0000
7D0000
7C0000
ENDCHAR
STARTCHAR q
ENCODING 113
SWIDTH 486 0
DWIDTH 9 0
BBX 10 14 -1 -5
BITMAP
01FBE0
0BDBD0
1F47C0
2F0BC0
3E0F80
7D1F40
7E2F40
3FFF00
1FBE00
003E00
007D00
007C00
00B800
004000
ENDCHAR
STARTCHAR r
ENCODING 114
SWIDTH 376 0
DWIDTH 7 0
BBX 8 9 -1 0
BITMAP
0FAE
0FEF
1F49
2F00
2F00
3E00
3D00
7D00
BC00
ENDCHAR
STARTCHAR s
ENCODING 115
SWIDTH 382 0
DWIDTH 7 0
BBX 9 10 -1 0
BITMAP
016400
02F400
03F400
06F400
09F800
14F800
78F940
A0FE00
62F400
2F9000
ENDCHAR
STARTCHAR t
ENCODING 116
SWIDTH 267 0
DWIDTH 5 0
BBX 6 12 0 0
BITMAP
0A40
1F00
2F00
7F80
3E00
7D00
7C00
BC00
F800
F490
FE80
7E00
ENDCHAR
STARTCHAR u
ENCODING 117
SWIDTH 505 0
DWIDTH 9 0
BBX 10 9 0 0
BITMAP
3E1F00
3D2F00
7D3E00
BC3E00
BC7D00
F8BC10
F8FC60
FFBEC0
7D2E00
ENDCHAR
STARTCHAR v
ENCODING 118
SWIDTH 414 0
DWIDTH 7 0
BBX 7 9 0 0
BITMAP
3E38
3D2C
7D0C
BC0C
BC18
F834
F4A0
FFC0
7E40
ENDCHAR
STARTCHAR w
ENCODING 119
SWIDTH 661 0
DWIDTH 12 0
BBX 12 9 0 0
BITMAP
3E1F1D
3D2F1E
7D3E06
BC3E09
BC7D0C
F8BC28
F8FC74
FFFEE0
7D2F40
ENDCHAR
STARTCHAR x
ENCODING 120
SWIDTH 522 0
DWIDTH 9 0
BBX 10 10 0 0
BITMAP
000280
07D3C0
19F1C0
21F640
50FE00
80F800
81F800
07B820
1D7D50
342E40
ENDCHAR
STARTCHAR y
ENCODING 121
SWIDTH 486 0
DWIDTH 9 0
BBX 9 13 0 -4
BITMAP
3E1F00
3D2F00
7D3E00
BC3E00
BC7D00
F8BC00
F8FC80
FFF980
7EF900
0BF400
26F000
37E000
2F8000
ENDCHAR
STARTCHAR z
ENCODING 122
SWIDTH 428 0
DWIDTH 8 0
BBX 8 9 0 0
BITMAP
1FFD
38BC
25F4
02E0
07D0
0F80
2F14
3E2C
BFF4
ENDCHAR
STARTCHAR braceleft
ENCODING 123
SWIDTH 352 0
DWIDTH 6 0
BBX 6 17 1 -4
BITMAP
02F0
0780
0B00
0F00
0E00
1E00
2D00
F400
7800
3C00
7800
7400
B400
F000
F000
F400
7C00
ENDCHAR
STARTCHAR bar
ENCODING 124
SWIDTH 532 0
DWIDTH 10 0
BBX 2 17 4 -4
BITMAP
E0
E0
E0
E0
E0
E0
E0
E0
E0
E0
E0
E0
E0
E0
E0
E0
E0
ENDCHAR
STARTCHAR braceright
ENCODING 125
SWIDTH 352 0
DWIDTH 6 0
BBX 6 17 -1 -4
BITMAP
03D0
01F0
00F0
00F0
01E0
02D0
02C0
02C0
01F0
0780
0B40
0B40
0F00
0F00
1E00
2D00
F800
ENDCHAR
STARTCHAR asciitilde
ENCODING 126
SWIDTH 431 0
DWIDTH 8 0
BBX 7 2 1 10
BITMAP
2FA8
ABE0
ENDCHAR
STARTCHAR uni00A0
ENCODING 160
SWIDTH 217 0
DWIDTH 4 0
BBX 1 1 0 0
BITMAP
00
ENDCHAR
STARTCHAR exclamdown
ENCODING 161
SWIDTH 219 0
DWIDTH 4 0
BBX 5 14 -1 -5
BITMAP
0780
0BC0
0680
0000
0600
0E00
0E00
1E00
2D00
3D00
7C00
BC00
F800
5000
ENDCHAR
STARTCHAR cent
ENCODING 162
SWIDTH 384 0
DWIDTH 7 0
BBX 8 14 0 -2
BITMAP
0020
0060
02F8
1EDD
3DDD
7984
B540
B640
B700
7E10
2FE0
0900
0C00
0400
ENDCHAR
STARTCHAR sterling
ENCODING 163
SWIDTH 455 0
DWIDTH 8 0
BBX 10 13 0 0
BITMAP
006F80
01F6D0
02E280
03D000
07C000
7FFD00
0B8000
0F4000
0F4000
1F0000
2D0180
7FFF80
BFFE40
ENDCHAR
STARTCHAR currency
ENCODING 164
SWIDTH 500 0
DWIDTH 9 0
BBX 7 8 1 2
BITMAP
0004
6BA4
3870
7024
6024
3470
7FF4
4004
ENDCHAR
STARTCHAR yen
ENCODING 165
SWIDTH 558 0
DWIDTH 10 0
BBX 9 13 1 0
BITMAP
3F00C0
2F4180
1F4340
1F8600
0FC900
0BDC00
07F800
07F000
2FFF00
7FFE00
0BD000
0FC000
0F8000
ENDCHAR
STARTCHAR brokenbar
ENCODING 166
SWIDTH 532 0
DWIDTH 10 0
BBX 2 17 4 -4
BITMAP
E0
E0
E0
E0
E0
E0
E0
E0
00
E0
E0
E0
E0
E0
E0
E0
E0
ENDCHAR
STARTCHAR section
ENCODING 167
SWIDTH 542 0
DWIDTH 10 0
BBX 10 15 0 -2
BITMAP
006F80
01F4D0
02E0D0
02E080
07F400
1EFD00
1E3F40
1F8BC0
0BE3C0
02F6C0
24BF40
B87D00
B07C00
B0B400
2F9000
ENDCHAR
STARTCHAR dieresis
ENCODING 168
SWIDTH 392 0
DWIDTH 7 0
BBX 6 2 1 10
BITMAP
B2D0
B1D0
ENDCHAR
STARTCHAR copyright
ENCODING 169
SWIDTH 587 0
DWIDTH 11 0
BBX 9 9 1 1
BITMAP
0BE400
291D00
96E200
CD6540
980180
CD1580
97E240
341A00
0BF400
ENDCHAR
STARTCHAR ordfeminine
ENCODING 170
SWIDTH 345 0
DWIDTH 6 0
BBX 6 5 0 8
BITMAP
0BE0
2DD0
35D0
76C0
3ED0
ENDCHAR
STARTCHAR guillemotleft
ENCODING 171
SWIDTH 589 0
DWIDTH 11 0
BBX 10 6 0 2
BITMAP
001010
019290
1D6900
B0A000
1E1D00
01C280
ENDCHAR
STARTCHAR logicalnot
ENCODING 172
SWIDTH 444 0
DWIDTH 8 0
BBX 7 4 0 1
BITMAP
7FFC
007C
0078
00B4
ENDCHAR
STARTCHAR uni00AD
ENCODING 173
SWIDTH 290 0
DWIDTH 5 0
BBX 4 1 0 4
BITMAP
7F
ENDCHAR
STARTCHAR registered
ENCODING 174
SWIDTH 553 0
DWIDTH 10 0
BBX 10 9 0 1
BITMAP
02F800
1D5740
36F580
621C90
52F850
622490
320880
1D0740
06F900
ENDCHAR
STARTCHAR macron
ENCODING 175
SWIDTH 446 0
DWIDTH 8 0
BBX 7 1 1 11
BITMAP
BFF4
ENDCHAR
STARTCHAR degree
ENCODING 176
SWIDTH 314 0
DWIDTH 6 0
BBX 5 6 0 7
BITMAP
0B80
29C0
34C0
71C0
7240
3E00
ENDCHAR
STARTCHAR plusminus
ENCODING 177
SWIDTH 479 0
DWIDTH 9 0
BBX 8 9 0 2
BITMAP
0050
00A0
00E0
2FFF
16D5
0280
0280
0000
7FFC
ENDCHAR
STARTCHAR uni00B2
ENCODING 178
SWIDTH 328 0
DWIDTH 6 0
BBX 5 8 1 5
BITMAP
2E40
6780
6380
0700
0D00
2400
9000
FF40
ENDCHAR
STARTCHAR uni00B3
ENCODING 179
SWIDTH 336 0
DWIDTH 6 0
BBX 5 7 1 6
BITMAP
2F40
3680
2740
0A00
A380
D740
6900
ENDCHAR
STARTCHAR acute
ENCODING 180
SWIDTH 316 0
DWIDTH 6 0
BBX 4 4 2 10
BITMAP
09
2C
34
A0
ENDCHAR
STARTCHAR uni00B5
ENCODING 181
SWIDTH 505 0
DWIDTH 9 0
BBX 12 12 -2 -3
BITMAP
03E1F0
03D2F0
07D3E0
0BC3E0
0BC7D0
0F87C0
0F8FC6
1FEBE8
2FD3E0
2E0000
3E0000
680000
ENDCHAR
STARTCHAR paragraph
ENCODING 182
SWIDTH 542 0
DWIDTH 10 0
BBX 8 14 1 -1
BITMAP
06F8
2FFA
7FF7
BFEB
BFDB
7FDE
3FDD
0BFD
03AC
0778
0B78
0F74
0EB0
1DE0
ENDCHAR
STARTCHAR periodcentered
ENCODING 183
SWIDTH 434 0
DWIDTH 8 0
BBX 4 3 2 3
BITMAP
7D
BE
7D
ENDCHAR
STARTCHAR cedilla
ENCODING 184
SWIDTH 227 0
DWIDTH 4 0
BBX 5 4 0 -4
BITMAP
1400
3A00
4B40
7E00
ENDCHAR
STARTCHAR uni00B9
ENCODING 185
SWIDTH 229 0
DWIDTH 4 0
BBX 3 8 1 5
BITMAP
18
F8
34
74
70
B0
E0
D0
ENDCHAR
STARTCHAR ordmasculine
ENCODING 186
SWIDTH 329 0
DWIDTH 6 0
BBX 5 5 0 8
BITMAP
0B40
2980
3580
7640
3E00
ENDCHAR
STARTCHAR guillemotright
ENCODING 187
SWIDTH 586 0
DWIDTH 11 0
BBX 10 6 0 2
BITMAP
101000
1E1E00
02D2D0
00A0A0
1A5A40
A4A400
ENDCHAR
STARTCHAR onequarter
ENCODING 188
SWIDTH 749 0
DWIDTH 13 0
BBX 12 13 1 0
BITMAP
180090
F801C0
340340
740A00
700D00
B02800
E070A6
D0D0AB
01C08E
0342FF
0A001C
1C002C
280028
ENDCHAR
STARTCHAR onehalf
ENCODING 189
SWIDTH 745 0
DWIDTH 13 0
BBX 12 13 1 0
BITMAP
180090
F801C0
340340
740A00
700D00
B02800
E0707E
D0D0DB
01C09B
03401D
0A0060
1C0080
2802FE
ENDCHAR
STARTCHAR threequarters
ENCODING 190
SWIDTH 836 0
DWIDTH 15 0
BBX 14 13 1 0
BITMAP
2F401C00
36803400
27407000
0A00D000
A3828000
D7470000
690A0DA0
001C0DD0
003429D0
00603BD0
00D00280
02800380
07000740
ENDCHAR
STARTCHAR questiondown
ENCODING 191
SWIDTH 439 0
DWIDTH 8 0
BBX 8 13 -1 -4
BITMAP
002D
003E
0029
0000
0028
0034
00A0
0280
1F04
3D2D
7D1E
3E2D
1BE4
ENDCHAR
STARTCHAR Agrave
ENCODING 192
SWIDTH 668 0
DWIDTH 12 0
BBX 13 20 0 -2
BITMAP
00003800
00002C00
00001C00
00000000
00000000
00002F40
0001AF40
00076F00
000D3E00
00283E00
1BF97D00
B9F5FC00
B6D0BC00
03C0F800
0B81F400
0F41F400
1F02F000
1F03E000
1E000000
0A000000
ENDCHAR
STARTCHAR Aacute
ENCODING 193
SWIDTH 668 0
DWIDTH 12 0
BBX 14 20 0 -2
BITMAP
00000090
000002D0
00000340
00000500
00000000
00002F40
0001AF40
00076F00
000D3E00
00283E00
1BF97D00
B9F5FC00
B6D0BC00
03C0F800
0B81F400
0F41F400
1F02F000
1F03E000
1E000000
0A000000
ENDCHAR
STARTCHAR Acircumflex
ENCODING 194
SWIDTH 668 0
DWIDTH 12 0
BBX 14 20 0 -2
BITMAP
00000040
000002C0
00001E90
00001010
00000000
00002F40
0001AF40
00076F00
000D3E00
00283E00
1BF97D00
B9F5FC00
B6D0BC00
03C0F800
0B81F400
0F41F400
1F02F000
1F03E000
1E000000
0A000000
ENDCHAR
STARTCHAR Atilde
ENCODING 195
SWIDTH 668 0
DWIDTH 12 0
BBX 14 19 0 -2
BITMAP
00001500
0000FFF0
00000540
00000000
00002F40
0001AF40
00076F00
000D3E00
00283E00
1BF97D00
B9F5FC00
B6D0BC00
03C0F800
0B81F400
0F41F400
1F02F000
1F03E000
1E000000
0A000000
ENDCHAR
STARTCHAR Adieresis
ENCODING 196
SWIDTH 668 0
DWIDTH 12 0
BBX 14 19 0 -2
BITMAP
0000B1D0
0000B5D0
00000000
00000000
00002F40
0001AF40
00076F00
000D3E00
00283E00
1BF97D00
B9F5FC00
B6D0BC00
03C0F800
0B81F400
0F41F400
1F02F000
1F03E000
1E000000
0A000000
ENDCHAR
STARTCHAR Aring
ENCODING 197
SWIDTH 668 0
DWIDTH 12 0
BBX 13 19 0 -2
BITMAP
00000A00
00001640
00001F00
00000000
00002F40
0001AF40
00076F00
000D3E00
00283E00
1BF97D00
B9F5FC00
B6D0BC00
03C0F800
0B81F400
0F41F400
1F02F000
1F03E000
1E000000
0A000000
ENDCHAR
STARTCHAR AE
ENCODING 198
SWIDTH 764 0
DWIDTH 14 0
BBX 16 15 0 -2
BITMAP
00002F81
0001EFBE
00076F00
000D3E00
00283E00
1BF97D00
B9E5FFF0
B6D0BD50
13C0F800
0B81F400
0F41F400
1F02FFF0
1F03FFE0
1E000000
0A000000
ENDCHAR
STARTCHAR Ccedilla
ENCODING 199
SWIDTH 497 0
DWIDTH 9 0
BBX 10 17 0 -4
BITMAP
00BF80
03F5D0
0BC0E0
1F81D0
2F0000
3E0000
7E0000
BD0000
BD0000
BD0040
7F4180
3FFE00
1BE400
019000
003400
013400
069000
ENDCHAR
STARTCHAR Egrave
ENCODING 200
SWIDTH 459 0
DWIDTH 8 0
BBX 9 18 0 0
BITMAP
007800
003800
002C00
000000
000000
00BE00
02E280
07C280
0B8240
07C000
03E000
1F8000
3F0000
BD0000
BD0040
BE0240
7FFD00
1FE000
ENDCHAR
STARTCHAR Eacute
ENCODING 201
SWIDTH 459 0
DWIDTH 8 0
BBX 10 18 0 0
BITMAP
0002D0
000380
000B00
000500
000000
00BE00
02E280
07C280
0B8240
07C000
03E000
1F8000
3F0000
BD0000
BD0040
BE0240
7FFD00
1FE000
ENDCHAR
STARTCHAR Ecircumflex
ENCODING 202
SWIDTH 459 0
DWIDTH 8 0
BBX 9 18 0 0
BITMAP
000700
001F40
007580
004040
000000
00BE00
02E280
07C280
0B8240
07C000
03E000
1F8000
3F0000
BD0000
BD0040
BE0240
7FFD00
1FE000
ENDCHAR
STARTCHAR Edieresis
ENCODING 203
SWIDTH 459 0
DWIDTH 8 0
BBX 10 17 0 0
BITMAP
0075D0
00B5E0
000000
000000
00BE00
02E280
07C280
0B8240
07C000
03E000
1F8000
3F0000
BD0000
BD0040
BE0240
7FFD00
1FE000
ENDCHAR
STARTCHAR Igrave
ENCODING 204
SWIDTH 375 0
DWIDTH 7 0
BBX 7 18 0 0
BITMAP
00F0
00B0
0074
0000
0000
01BC
0AF8
38F8
B1F4
F1F0
A2F0
03E0
03D0
07D0
0BC0
0B80
0F80
1F40
ENDCHAR
STARTCHAR Iacute
ENCODING 205
SWIDTH 375 0
DWIDTH 7 0
BBX 9 18 0 0
BITMAP
000240
000B00
001D00
001400
000000
01BC00
0AF800
38F800
B1F400
F1F000
A2F000
03E000
03D000
07D000
0BC000
0B8000
0F8000
1F4000
ENDCHAR
STARTCHAR Icircumflex
ENCODING 206
SWIDTH 375 0
DWIDTH 7 0
BBX 8 18 0 0
BITMAP
0005
001E
00A7
0141
0000
01BC
0AF8
38F8
B1F4
F1F0
A2F0
03E0
03D0
07D0
0BC0
0B80
0F80
1F40
ENDCHAR
STARTCHAR Idieresis
ENCODING 207
SWIDTH 375 0
DWIDTH 7 0
BBX 9 17 0 0
BITMAP
01D780
01D780
000000
000000
01BC00
0AF800
38F800
B1F400
F1F000
A2F000
03E000
03D000
07D000
0BC000
0B8000
0F8000
1F4000
ENDCHAR
STARTCHAR Eth
ENCODING 208
SWIDTH 663 0
DWIDTH 12 0
BBX 12 13 0 0
BITMAP
01BF90
1E55B8
78F83D
B1F43E
A2F03E
17FC3E
03E03D
07D07D
07D0BC
0BC0F8
0B81F0
0F87D0
1FAF40
ENDCHAR
STARTCHAR Ntilde
ENCODING 209
SWIDTH 686 0
DWIDTH 12 0
BBX 13 16 0 0
BITMAP
0007F940
0005B900
00000000
06FC0380
1DBD0380
74FE0740
B1FE0B00
F1FF0B00
B2DF4E00
13CF5D00
038F9D00
074BEC00
0B47F800
0B03F800
0E03F400
1D02F000
ENDCHAR
STARTCHAR Ograve
ENCODING 210
SWIDTH 665 0
DWIDTH 12 0
BBX 12 18 0 0
BITMAP
001D00
000E00
000A00
000000
000000
006FE0
07957C
2D7D2E
74F42E
B2F02E
77D02E
0BC03E
0BC07D
0F80BC
0F80F4
0F82E0
0BEBC0
02FE00
ENDCHAR
STARTCHAR Oacute
ENCODING 211
SWIDTH 665 0
DWIDTH 12 0
BBX 12 18 0 0
BITMAP
000074
0000E0
0001C0
000140
000000
006FE0
07957C
2D7D2E
74F42E
B2F02E
77D02E
0BC03E
0BC07D
0F80BC
0F80F4
0F82E0
0BEBC0
02FE00
ENDCHAR
STARTCHAR Ocircumflex
ENCODING 212
SWIDTH 665 0
DWIDTH 12 0
BBX 12 18 0 0
BITMAP
000090
0002E0
000E60
001010
000000
006FE0
07957C
2D7D2E
74F42E
B2F02E
77D02E
0BC03E
0BC07D
0F80BC
0F80F4
0F82E0
0BEBC0
02FE00
ENDCHAR
STARTCHAR Otilde
ENCODING 213
SWIDTH 665 0
DWIDTH 12 0
BBX 12 17 0 0
BITMAP
000550
001BFE
000054
000000
006FE0
07957C
2D7D2E
74F42E
B2F02E
77D02E
0BC03E
0BC07D
0F80BC
0F80F4
0F82E0
0BEBC0
02FE00
ENDCHAR
STARTCHAR Odieresis
ENCODING 214
SWIDTH 665 0
DWIDTH 12 0
BBX 12 17 0 0
BITMAP
002C74
002D74
000000
000000
006FE0
07957C
2D7D2E
74F42E
B2F02E
77D02E
0BC03E
0BC07D
0F80BC
0F80F4
0F82E0
0BEBC0
02FE00
ENDCHAR
STARTCHAR multiply
ENCODING 215
SWIDTH 414 0
DWIDTH 7 0
BBX 6 6 1 3
BITMAP
9080
B7C0
2F00
3F40
F6D0
4040
ENDCHAR
STARTCHAR Oslash
ENCODING 216
SWIDTH 658 0
DWIDTH 12 0
BBX 12 14 0 -1
BITMAP
000180
01AFD0
0BBEB8
39F73C
B2E33D
B7D63D
1BC97D
0F897C
0F8CB8
0F59F4
0F9AE0
0BEF80
02F900
002000
ENDCHAR
STARTCHAR Ugrave
ENCODING 217
SWIDTH 716 0
DWIDTH 13 0
BBX 14 18 0 0
BITMAP
0002D000
0001D000
0000A000
00000000
00000000
01BD03D0
1EBD07D0
74BC0BC0
F0F80BC0
E0F40F80
A1F01F40
02E01F00
03E02F00
03D03E00
07C07D00
07D0F800
03FBF000
01BF8000
ENDCHAR
STARTCHAR Uacute
ENCODING 218
SWIDTH 716 0
DWIDTH 13 0
BBX 14 18 0 0
BITMAP
00002D00
00003800
0000B000
00005000
00000000
01BD03D0
1EBD07D0
74BC0BC0
F0F80BC0
E0F40F80
A1F01F40
02E01F00
03E02F00
03D03E00
07C07D00
07D0F800
03FBF000
01BF8000
ENDCHAR
STARTCHAR Ucircumflex
ENCODING 219
SWIDTH 716 0
DWIDTH 13 0
BBX 14 18 0 0
BITMAP
00001800
00007C00
0001D900
00010100
00000000
01BD03D0
1EBD07D0
74BC0BC0
F0F80BC0
E0F40F80
A1F01F40
02E01F00
03E02F00
03D03E00
07C07D00
07D0F800
03FBF000
01BF8000
ENDCHAR
STARTCHAR Udieresis
ENCODING 220
SWIDTH 716 0
DWIDTH 13 0
BBX 14 17 0 0
BITMAP
00038B00
0003CB00
00000000
00000000
01BD03D0
1EBD07D0
74BC0BC0
F0F80BC0
E0F40F80
A1F01F40
02E01F00
03E02F00
03D03E00
07C07D00
07D0F800
03FBF000
01BF8000
ENDCHAR
STARTCHAR Yacute
ENCODING 221
SWIDTH 620 0
DWIDTH 11 0
BBX 13 18 0 0
BITMAP
00000600
00000E00
00002C00
00001400
00000000
01BD0340
0ABE0700
387E0900
B03F0C00
F02F6800
A01FB000
000FE000
000FC000
000FC000
001F8000
001F4000
002F4000
003F0000
ENDCHAR
STARTCHAR Thorn
ENCODING 222
SWIDTH 583 0
DWIDTH 11 0
BBX 11 13 0 0
BITMAP
006C00
00BC00
01FF80
19F9F0
75F474
B2F078
E3E0B4
63D0F0
07D7D0
0BFE40
0BC000
0F8000
1F4000
ENDCHAR
STARTCHAR germandbls
ENCODING 223
SWIDTH 480 0
DWIDTH 9 0
BBX 10 16 -2 -4
BITMAP
002F80
00B9D0
01F4D0
02F1C0
03E280
03D700
07D780
0BC2D0
0B81E0
0F81E0
1F57D0
1F7F40
2F0000
3E0000
3D0000
7D0000
ENDCHAR
STARTCHAR agrave
ENCODING 224
SWIDTH 526 0
DWIDTH 9 0
BBX 11 13 -1 0
BITMAP
003C00
002C00
001D00
000000
01FBE0
0BDBD0
1F47C0
2F0BC0
3E0F80
7D0F40
7D1F48
3FAFE4
1F8B90
ENDCHAR
STARTCHAR aacute
ENCODING 225
SWIDTH 526 0
DWIDTH 9 0
BBX 11 13 -1 0
BITMAP
000780
000B00
001D00
000000
01FBE0
0BDBD0
1F47C0
2F0BC0
3E0F80
7D0F40
7D1F48
3FAFE4
1F8B90
ENDCHAR
STARTCHAR acircumflex
ENCODING 226
SWIDTH 526 0
DWIDTH 9 0
BBX 11 13 -1 0
BITMAP
000340
001F80
006480
000000
01FBE0
0BDBD0
1F47C0
2F0BC0
3E0F80
7D0F40
7D1F48
3FAFE4
1F8B90
ENDCHAR
STARTCHAR atilde
ENCODING 227
SWIDTH 526 0
DWIDTH 9 0
BBX 11 12 -1 0
BITMAP
00BEA0
015B90
000000
01FBE0
0BDBD0
1F47C0
2F0BC0
3E0F80
7D0F40
7D1F48
3FAFE4
1F8B90
ENDCHAR
STARTCHAR adieresis
ENCODING 228
SWIDTH 526 0
DWIDTH 9 0
BBX 11 12 -1 0
BITMAP
00B5D0
00B5E0
000000
01FBE0
0BDBD0
1F47C0
2F0BC0
3E0F80
7D0F40
7D1F48
3FAFE4
1F8B90
ENDCHAR
STARTCHAR aring
ENCODING 229
SWIDTH 526 0
DWIDTH 9 0
BBX 11 12 -1 0
BITMAP
001E00
002E00
000000
01FBE0
0BDBD0
1F47C0
2F0BC0
3E0F80
7D0F40
7D1F48
3FAFE4
1F8B90
ENDCHAR
STARTCHAR ae
ENCODING 230
SWIDTH 650 0
DWIDTH 12 0
BBX 12 9 0 0
BITMAP
07FAF8
187F9D
003F1D
003E78
2BFFD0
BDBD00
F4BD02
F9FE18
7E6F90
ENDCHAR
STARTCHAR ccedilla
ENCODING 231
SWIDTH 384 0
DWIDTH 7 0
BBX 9 13 -1 -4
BITMAP
01F800
0BDE00
1F4D00
2F0000
3E0000
7E0000
7D0140
3E0900
1BF400
008000
01F400
013400
069000
ENDCHAR
STARTCHAR egrave
ENCODING 232
SWIDTH 384 0
DWIDTH 7 0
BBX 8 13 -1 0
BITMAP
00E0
00B0
0070
0000
01FD
0BDE
1F4D
2E2C
3FE0
7E00
7D02
3E19
1BE0
ENDCHAR
STARTCHAR eacute
ENCODING 233
SWIDTH 384 0
DWIDTH 7 0
BBX 9 13 -1 0
BITMAP
000B40
000E00
002800
000000
01FD00
0BDE00
1F4D00
2E2C00
3FE000
7E0000
7D0200
3E1900
1BE000
ENDCHAR
STARTCHAR ecircumflex
ENCODING 234
SWIDTH 384 0
DWIDTH 7 0
BBX 8 13 -1 0
BITMAP
0009
007E
0192
0000
01FD
0BDE
1F4D
2E2C
3FE0
7E00
7D02
3E19
1BE0
ENDCHAR
STARTCHAR edieresis
ENCODING 235
SWIDTH 384 0
DWIDTH 7 0
BBX 9 12 -1 0
BITMAP
02C740
02D740
000000
01FD00
0BDE00
1F4D00
2E2C00
3FE000
7E0000
7D0200
3E1900
1BE000
ENDCHAR
STARTCHAR igrave
ENCODING 236
SWIDTH 267 0
DWIDTH 5 0
BBX 6 13 0 0
BITMAP
2C00
1C00
0D00
0000
3E00
3D00
7D00
BC00
BC00
F800
F490
FE80
7D00
ENDCHAR
STARTCHAR iacute
ENCODING 237
SWIDTH 267 0
DWIDTH 5 0
BBX 6 13 0 0
BITMAP
02D0
0740
0A00
0000
3E00
3D00
7D00
BC00
BC00
F800
F490
FE80
7D00
ENDCHAR
STARTCHAR icircumflex
ENCODING 238
SWIDTH 267 0
DWIDTH 5 0
BBX 6 13 0 0
BITMAP
0240
1F80
6480
0000
3E00
3D00
7D00
BC00
BC00
F800
F490
FE80
7D00
ENDCHAR
STARTCHAR idieresis
ENCODING 239
SWIDTH 267 0
DWIDTH 5 0
BBX 6 12 0 0
BITMAP
75D0
B5D0
0000
3E00
3D00
7D00
BC00
BC00
F800
F490
FE80
7D00
ENDCHAR
STARTCHAR eth
ENCODING 240
SWIDTH 526 0
DWIDTH 9 0
BBX 11 13 -1 0
BITMAP
000F54
001BE4
006BD0
0003D0
01FBD0
0BDBD0
1F47D0
2F0BC0
3E0F80
7E0F80
7D1F44
3E2F54
1F9BD0
ENDCHAR
STARTCHAR ntilde
ENCODING 241
SWIDTH 505 0
DWIDTH 9 0
BBX 11 12 -1 0
BITMAP
01BE90
016A40
000000
0FEF40
0F9F80
1F4F80
2F0F80
2E1F40
3E1F04
3D2F18
7D2FB0
BC0B90
ENDCHAR
STARTCHAR ograve
ENCODING 242
SWIDTH 433 0
DWIDTH 8 0
BBX 11 13 -1 0
BITMAP
00B400
007400
003800
000000
01F800
0BDA00
1F4E18
2F0F90
3E0A00
7D0D00
7D1C00
3E7400
1F9000
ENDCHAR
STARTCHAR oacute
ENCODING 243
SWIDTH 439 0
DWIDTH 8 0
BBX 11 13 -1 0
BITMAP
000B40
000E00
002800
000000
01B900
0BDA00
1F4B18
2F0F90
3E0A00
7E0E00
7D1D00
3E3800
1BD000
ENDCHAR
STARTCHAR ocircumflex
ENCODING 244
SWIDTH 433 0
DWIDTH 8 0
BBX 11 13 -1 0
BITMAP
001C00
007D00
029600
000000
01F800
0BDA00
1F4E18
2F0F90
3E0A00
7D0D00
7D1C00
3E7400
1F9000
ENDCHAR
STARTCHAR otilde
ENCODING 245
SWIDTH 433 0
DWIDTH 8 0
BBX 11 12 -1 0
BITMAP
06F940
05BE00
000000
01F800
0BDA00
1F4E18
2F0F90
3E0A00
7D0D00
7D1C00
3E7400
1F9000
ENDCHAR
STARTCHAR odieresis
ENCODING 246
SWIDTH 433 0
DWIDTH 8 0
BBX 11 12 -1 0
BITMAP
028B00
03CB40
000000
01F800
0BDA00
1F4E18
2F0F90
3E0A00
7D0D00
7D1C00
3E7400
1F9000
ENDCHAR
STARTCHAR divide
ENCODING 247
SWIDTH 415 0
DWIDTH 7 0
BBX 7 9 1 2
BITMAP
0780
0BC0
0640
0000
FFF4
0000
1900
3F00
1E00
ENDCHAR
STARTCHAR oslash
ENCODING 248
SWIDTH 428 0
DWIDTH 8 0
BBX 10 10 -1 -1
BITMAP
01BD90
07DB40
1F4B00
2F1F00
3E7A00
7EDE00
7F5C00
3E7400
2F9000
900000
ENDCHAR
STARTCHAR ugrave
ENCODING 249
SWIDTH 505 0
DWIDTH 9 0
BBX 10 13 0 0
BITMAP
01D000
00D000
00A000
000000
3E1F00
3D2F00
7D3E00
BC3E00
BC7D00
F8BC10
F8FC60
FFBEC0
7D2E00
ENDCHAR
STARTCHAR uacute
ENCODING 250
SWIDTH 505 0
DWIDTH 9 0
BBX 10 13 0 0
BITMAP
001D00
003800
007000
000000
3E1F00
3D2F00
7D3E00
BC3E00
BC7D00
F8BC10
F8FC60
FFBEC0
7D2E00
ENDCHAR
STARTCHAR ucircumflex
ENCODING 251
SWIDTH 505 0
DWIDTH 9 0
BBX 10 13 0 0
BITMAP
002800
00BC00
064500
000000
3E1F00
3D2F00
7D3E00
BC3E00
BC7D00
F8BC10
F8FC60
FFBEC0
7D2E00
ENDCHAR
STARTCHAR udieresis
ENCODING 252
SWIDTH 505 0
DWIDTH 9 0
BBX 10 12 0 0
BITMAP
074E00
075E00
000000
3E1F00
3D2F00
7D3E00
BC3E00
BC7D00
F8BC10
F8FC60
FFBEC0
7D2E00
ENDCHAR
STARTCHAR yacute
ENCODING 253
SWIDTH 505 0
DWIDTH 9 0
BBX 9 17 0 -4
BITMAP
001D00
003800
007000
000000
3E1F00
3D2F00
7D3E00
BC3E00
BC7D00
F8BC00
F8FC80
FFF980
7EF900
0BF400
26F000
37E000
2F8000
ENDCHAR
STARTCHAR thorn
ENCODING 254
SWIDTH 473 0
DWIDTH 9 0
BBX 10 18 -2 -4
BITMAP
001400
00F800
01F400
01F000
02F000
03EBD0
03E2E0
07D2F0
0BC2F0
0BC2E0
0F83E0
0F47C0
1F5F40
2FB900
2E0000
3E0000
7D0000
7C0000
ENDCHAR
STARTCHAR ydieresis
ENCODING 255
SWIDTH 505 0
DWIDTH 9 0
BBX 9 16 0 -4
BITMAP
0B5D00
0B5D00
000000
3E1F00
3D2F00
7D3E00
BC3E00
BC7D00
F8BC00
F8FC80
FFF980
7EF900
0BF400
26F000
37E000
2F8000
ENDCHAR
STARTCHAR Amacron
ENCODING 256
SWIDTH 668 0
DWIDTH 12 0
BBX 14 18 0 -2
BITMAP
0000BFF0
00000000
00000000
00002F40
0001AF40
00076F00
000D3E00
00283E00
1BF97D00
B9F5FC00
B6D0BC00
03C0F800
0B81F400
0F41F400
1F02F000
1F03E000
1E000000
0A000000
ENDCHAR
STARTCHAR amacron
ENCODING 257
SWIDTH 526 0
DWIDTH 9 0
BBX 11 12 -1 0
BITMAP
00FFF0
000000
000000
01FBE0
0BDBD0
1F47C0
2F0BC0
3E0F80
7D0F40
7D1F48
3FAFE4
1F8B90
ENDCHAR
STARTCHAR Abreve
ENCODING 258
SWIDTH 668 0
DWIDTH 12 0
BBX 15 19 0 -2
BITMAP
0000B038
000074B4
00002F90
00000000
00002F40
0001AF40
00076F00
000D3E00
00283E00
1BF97D00
B9F5FC00
B6D0BC00
03C0F800
0B81F400
0F41F400
1F02F000
1F03E000
1E000000
0A000000
ENDCHAR
STARTCHAR abreve
ENCODING 259
SWIDTH 526 0
DWIDTH 9 0
BBX 11 13 -1 0
BITMAP
01E0B0
007F80
000000
000000
01FBE0
0BDBD0
1F47C0
2F0BC0
3E0F80
7D0F40
7D1F48
3FAFE4
1F8B90
ENDCHAR
STARTCHAR Aogonek
ENCODING 260
SWIDTH 668 0
DWIDTH 12 0
BBX 13 16 0 -3
BITMAP
00002F40
0001AF40
00076F00
000D3E00
00283E00
1BF97D00
B9E5FC00
B6D0BC00
03C0F800
0B81F400
0F41F400
1F02F000
1E03E000
1E024000
0A071000
0007D000
ENDCHAR
STARTCHAR aogonek
ENCODING 261
SWIDTH 526 0
DWIDTH 9 0
BBX 11 12 -1 -3
BITMAP
01FBE0
0BDBD0
1F47C0
2F0BC0
3E0F80
7E0F80
7D1F48
3E2F54
1F9BD0
000700
000A10
000BD0
ENDCHAR
STARTCHAR Cacute
ENCODING 262
SWIDTH 497 0
DWIDTH 9 0
BBX 10 18 0 0
BITMAP
0002D0
000380
000700
000500
000000
00BF80
03F5D0
0BD0E0
1F81D0
2F4000
3F0000
7E0000
BD0000
BD0000
BD0000
7E0040
3F4640
1BF900
ENDCHAR
STARTCHAR cacute
ENCODING 263
SWIDTH 384 0
DWIDTH 7 0
BBX 9 13 -1 0
BITMAP
000780
000B00
001D00
000000
01F800
0BDE00
1F4D00
2F0000
3E0000
7E0000
7D0140
3E1900
1BE000
ENDCHAR
STARTCHAR Ccircumflex
ENCODING 264
SWIDTH 497 0
DWIDTH 9 0
BBX 10 18 0 0
BITMAP
000700
001F40
007580
004040
000000
00BF80
03F5D0
0BD0E0
1F81D0
2F4000
3F0000
7E0000
BD0000
BD0000
BD0000
7E0040
3F4640
1BF900
ENDCHAR
STARTCHAR ccircumflex
ENCODING 265
SWIDTH 384 0
DWIDTH 7 0
BBX 9 13 -1 0
BITMAP
000900
007E00
019200
000000
01F800
0BDE00
1F4D00
2F0000
3E0000
7E0000
7D0140
3E1900
1BE000
ENDCHAR
STARTCHAR Cdotaccent
ENCODING 266
SWIDTH 497 0
DWIDTH 9 0
BBX 10 18 0 0
BITMAP
000280
0007D0
0003C0
000000
000000
00BF80
03F5D0
0BD0E0
1F81D0
2F4000
3F0000
7E0000
BD0000
BD0000
BD0000
7E0040
3F4640
1BF900
ENDCHAR
STARTCHAR cdotaccent
ENCODING 267
SWIDTH 384 0
DWIDTH 7 0
BBX 9 13 -1 0
BITMAP
002D00
003E00
002900
000000
01F800
0BDE00
1F4D00
2F0000
3E0000
7E0000
7D0140
3E1900
1BE000
ENDCHAR
STARTCHAR Ccaron
ENCODING 268
SWIDTH 497 0
DWIDTH 9 0
BBX 10 18 0 0
BITMAP
002460
001E80
000E00
000400
000000
00BF80
03F5D0
0BD0E0
1F81D0
2F4000
3F0000
7E0000
BD0000
BD0000
BD0000
7E0040
3F4640
1BF900
ENDCHAR
STARTCHAR ccaron
ENCODING 269
SWIDTH 384 0
DWIDTH 7 0
BBX 10 13 -1 0
BITMAP
006190
003B00
002800
000000
01FD00
0BDE00
1F4900
2F0000
3E0000
7D0000
7D0200
3FA900
1BE000
ENDCHAR
STARTCHAR Dcaron
ENCODING 270
SWIDTH 663 0
DWIDTH 12 0
BBX 12 18 0 0
BITMAP
001464
000EC0
000E00
000400
000000
01BF90
0B51F4
38B87C
B4F43D
F1F43E
A2F03E
13E03D
03E07D
07D0BC
0BC0F8
0BC1F0
0F87D0
1FAE40
ENDCHAR
STARTCHAR dcaron
ENCODING 271
SWIDTH 525 0
DWIDTH 9 0
BBX 13 13 -1 0
BITMAP
000002C0
0001B6C0
0002F180
0002F100
01FBE000
0BDBD000
1F47D000
2F0BC000
3E0F8000
7E0F8000
7D1F4400
3E2F5400
1F9BD000
ENDCHAR
STARTCHAR Dcroat
ENCODING 272
SWIDTH 663 0
DWIDTH 12 0
BBX 12 13 0 0
BITMAP
01BF90
1E55B8
78F83D
B1F43E
A2F03E
17FC3E
03E03D
07D07D
07D0BC
0BC0F8
0B81F0
0F87D0
1FAF40
ENDCHAR
STARTCHAR dcroat
ENCODING 273
SWIDTH 525 0
DWIDTH 9 0
BBX 12 13 -1 0
BITMAP
000054
0001F0
001FFD
0003E0
01FBE0
0BDBD0
1F47D0
2F0BC0
3E0F80
7E0F80
7D1F44
3E2F54
1F9BD0
ENDCHAR
STARTCHAR Emacron
ENCODING 274
SWIDTH 459 0
DWIDTH 8 0
BBX 10 17 0 0
BITMAP
00BFF0
000000
000000
000000
00BE00
02E280
07C280
0B8240
07C000
03E000
1F8000
3F0000
BD0000
BD0040
BE0240
7FFD00
1FE000
ENDCHAR
STARTCHAR emacron
ENCODING 275
SWIDTH 384 0
DWIDTH 7 0
BBX 9 12 -1 0
BITMAP
07FF40
000000
000000
01FD00
0BDE00
1F4D00
2E2C00
3FE000
7E0000
7D0200
3E1900
1BE000
ENDCHAR
STARTCHAR Ebreve
ENCODING 276
SWIDTH 459 0
DWIDTH 8 0
BBX 11 17 0 0
BITMAP
00E074
006F90
000000
000000
00BE00
02E280
07C280
0B8240
07C000
03E000
1F8000
3F0000
BD0000
BD0040
BE0240
7FFD00
1FE000
ENDCHAR
STARTCHAR ebreve
ENCODING 277
SWIDTH 384 0
DWIDTH 7 0
BBX 9 13 -1 0
BITMAP
0B4780
02F900
000000
000000
01FD00
0BDE00
1F4D00
2E2C00
3FE000
7E0000
7D0200
3E1900
1BE000
ENDCHAR
STARTCHAR Edotaccent
ENCODING 278
SWIDTH 459 0
DWIDTH 8 0
BBX 9 18 0 0
BITMAP
000A40
000F80
000B40
000000
000000
00BE00
02E280
07C280
0B8240
07C000
03E000
1F8000
3F0000
BD0000
BD0040
BE0240
7FFD00
1FE000
ENDCHAR
STARTCHAR edotaccent
ENCODING 279
SWIDTH 384 0
DWIDTH 7 0
BBX 8 13 -1 0
BITMAP
002D
003E
0029
0000
01FD
0BDE
1F4D
2E2C
3FE0
7E00
7D02
3E19
1BE0
ENDCHAR
STARTCHAR Eogonek
ENCODING 280
SWIDTH 459 0
DWIDTH 8 0
BBX 9 16 0 -3
BITMAP
01FE00
0BD280
1F42C0
1F4380
0F8000
07E000
0BD000
3F4000
BE0000
BD0000
BE0140
7FAA00
1BF400
006000
00E000
00B800
ENDCHAR
STARTCHAR eogonek
ENCODING 281
SWIDTH 384 0
DWIDTH 7 0
BBX 8 12 -1 -3
BITMAP
01FD
0BDE
1F4D
2E2C
3FE0
7E00
7E02
3FA8
1BE0
0180
0280
02E0
ENDCHAR
STARTCHAR Ecaron
ENCODING 282
SWIDTH 459 0
DWIDTH 8 0
BBX 11 18 0 0
BITMAP
001464
000EC0
000E00
000400
000000
00BE00
02E280
07C280
0B8240
07C000
03E000
1F8000
3F0000
BD0000
BD0040
BE0240
7FFD00
1FE000
ENDCHAR
STARTCHAR ecaron
ENCODING 283
SWIDTH 384 0
DWIDTH 7 0
BBX 10 13 -1 0
BITMAP
005190
003A00
002800
000000
01FD00
0BDE00
1F4D00
2E2800
3F9000
7D0040
7D0200
3E1800
1BE000
ENDCHAR
STARTCHAR Gcircumflex
ENCODING 284
SWIDTH 578 0
DWIDTH 10 0
BBX 10 21 0 -3
BITMAP
000180
0007C0
001E90
002420
000000
00AF90
07E4B0
1F80A0
3F0000
7E0000
BD01E0
BC02D0
7D07D0
3E0FC0
1FEBC0
000B80
000F40
0BDF00
2C2E00
2C3D00
0BF400
ENDCHAR
STARTCHAR gcircumflex
ENCODING 285
SWIDTH 507 0
DWIDTH 9 0
BBX 11 17 -1 -4
BITMAP
000340
001F80
006480
000000
01FBE0
0BDBD0
1F47C0
2F0BC0
3E0F80
7D0F44
7E2F58
3FFF20
1FBF80
01FE00
0A7D00
09BC00
07E000
ENDCHAR
STARTCHAR Gbreve
ENCODING 286
SWIDTH 578 0
DWIDTH 10 0
BBX 12 20 0 -3
BITMAP
003C1D
001BE4
000000
000000
00AF90
07E4B0
1F80B4
3F00E0
7E0000
BD0050
BC02E0
7D03D0
3E0BC0
1FEBC0
000B80
000F40
0BDF00
2C2E00
2C3D00
0BF400
ENDCHAR
STARTCHAR gbreve
ENCODING 287
SWIDTH 507 0
DWIDTH 9 0
BBX 11 17 -1 -4
BITMAP
01E0B0
007F80
000000
000000
01FBE0
0BDBD0
1F47C0
2F0BC0
3E0F80
7D0F44
7E2F58
3FFF20
1FBF80
01FE00
0A7D00
09BC00
07E000
ENDCHAR
STARTCHAR Gdotaccent
ENCODING 288
SWIDTH 578 0
DWIDTH 10 0
BBX 11 21 0 -3
BITMAP
000640
000FC0
000B40
000000
000000
00AF90
07E4B0
1F80B4
3F00E0
7E0000
BD0050
BC02E0
7D03D0
3E0BC0
1FEBC0
000B80
000F40
0BDF00
2C2E00
2C3D00
0BF400
ENDCHAR
STARTCHAR gdotaccent
ENCODING 289
SWIDTH 507 0
DWIDTH 9 0
BBX 11 17 -1 -4
BITMAP
000B40
001F80
000A00
000000
01FBE0
0BDBD0
1F47C0
2F0BC0
3E0F80
7D0F44
7E2F58
3FFF20
1FBF80
01FE00
0A7D00
09BC00
07E000
ENDCHAR
STARTCHAR Gcommaaccent
ENCODING 290
SWIDTH 578 0
DWIDTH 10 0
BBX 10 17 0 -4
BITMAP
007F40
02E6D0
0BC1D0
2F4280
3F0000
7E0000
BD02E0
BD02D0
FC03C0
BC07C0
BD0F80
3E2F40
1BDF40
000000
01D000
00D000
008000
ENDCHAR
STARTCHAR gcommaaccent
ENCODING 291
SWIDTH 507 0
DWIDTH 9 0
BBX 11 18 -1 -4
BITMAP
000100
000D00
001E00
000500
000000
01FBE0
0BDBD0
1F47C0
2F0BC0
3E0F80
7D0F44
7E2F58
3FFF20
1FBF80
01FE00
0A7D00
09BC00
07E000
ENDCHAR
STARTCHAR Hcircumflex
ENCODING 292
SWIDTH 665 0
DWIDTH 12 0
BBX 13 18 0 0
BITMAP
00001400
00007800
00029C00
00050400
00000000
01BC1F40
09BC1F00
34F82F00
B1F43E00
B1F47D00
62FFFD00
02E5BC00
03E0BC00
07D0F800
07C1F400
0BC1F400
0F82F000
0F43E000
ENDCHAR
STARTCHAR hcircumflex
ENCODING 293
SWIDTH 505 0
DWIDTH 9 0
BBX 11 16 -1 0
BITMAP
002400
01F800
064800
015000
07D000
07C000
0BC000
0FEE00
0F9F80
1F4F80
2F0F80
2E1F40
3E1F00
3D2F08
7D2F20
BC0B90
ENDCHAR
STARTCHAR Hbar
ENCODING 294
SWIDTH 665 0
DWIDTH 12 0
BBX 14 13 0 0
BITMAP
01BC1F40
0ABC1F00
38F82F00
B3FFFFD0
B1F43D00
62FFFD00
02E0BC00
03E0B800
07D0F800
07C1F400
0BC1F400
0F82F000
0F43E000
ENDCHAR
STARTCHAR hbar
ENCODING 295
SWIDTH 505 0
DWIDTH 9 0
BBX 11 13 -1 0
BITMAP
015000
07D000
2FFC00
0BC000
0FEF40
0F9F80
1F4F80
1F0F40
2E1F40
3E1F04
3D2F14
7D2FF0
BC0B80
ENDCHAR
STARTCHAR Itilde
ENCODING 296
SWIDTH 375 0
DWIDTH 7 0
BBX 9 17 0 0
BITMAP
005400
03FFC0
001500
000000
01BC00
0AF800
38F800
B1F400
F1F000
A2F000
03E000
03D000
07D000
0BC000
0B8000
0F8000
1F4000
ENDCHAR
STARTCHAR itilde
ENCODING 297
SWIDTH 267 0
DWIDTH 5 0
BBX 6 12 0 0
BITMAP
2E80
5A40
0000
3E00
3D00
7D00
BC00
BC00
F800
F490
FE80
7D00
ENDCHAR
STARTCHAR Imacron
ENCODING 298
SWIDTH 375 0
DWIDTH 7 0
BBX 9 16 0 0
BITMAP
03FF80
000000
000000
01BC00
0AF800
38F800
B1F400
F1F000
A2F000
03E000
03D000
07D000
0BC000
0B8000
0F8000
1F4000
ENDCHAR
STARTCHAR imacron
ENCODING 299
SWIDTH 267 0
DWIDTH 5 0
BBX 6 12 0 0
BITMAP
7FD0
0000
0000
3E00
3D00
7D00
BC00
BC00
F800
F490
FE80
7D00
ENDCHAR
STARTCHAR Ibreve
ENCODING 300
SWIDTH 375 0
DWIDTH 7 0
BBX 10 17 0 0
BITMAP
0280E0
02D2C0
00BE00
000000
01BC00
0AF800
38F800
B1F400
F1F000
A2F000
03E000
03D000
07D000
0BC000
0B8000
0F8000
1F4000
ENDCHAR
STARTCHAR ibreve
ENCODING 301
SWIDTH 267 0
DWIDTH 5 0
BBX 6 13 0 0
BITMAP
74A0
2F80
0000
0000
3E00
3D00
7D00
BC00
BC00
F800
F490
FE80
7D00
ENDCHAR
STARTCHAR Iogonek
ENCODING 302
SWIDTH 375 0
DWIDTH 7 0
BBX 7 22 0 -4
BITMAP
02C0
01D0
00D0
0000
0000
01BC
0AF8
38F8
B1F4
F1F0
A2F0
03E0
03D0
07D0
0BC0
0B80
0F80
1F40
1800
2800
3840
1F40
ENDCHAR
STARTCHAR iogonek
ENCODING 303
SWIDTH 267 0
DWIDTH 5 0
BBX 7 16 -1 -4
BITMAP
03C0
07D0
0280
0F80
0F40
1F40
2F00
2F00
3E00
3D24
3FA0
2F40
3000
A000
B100
7E00
ENDCHAR
STARTCHAR Idotaccent
ENCODING 304
SWIDTH 375 0
DWIDTH 7 0
BBX 8 17 0 0
BITMAP
002D
003E
0019
0000
01BC
0AF8
38F8
B1F4
F1F0
A2F0
03E0
03D0
07D0
0BC0
0B80
0F80
1F40
ENDCHAR
STARTCHAR dotlessi
ENCODING 305
SWIDTH 267 0
DWIDTH 5 0
BBX 6 9 0 0
BITMAP
3E00
3D00
7D00
BC00
BC00
F800
F490
FE80
7D00
ENDCHAR
STARTCHAR IJ
ENCODING 306
SWIDTH 663 0
DWIDTH 12 0
BBX 12 16 0 -3
BITMAP
01BC1B
0AF82E
38F83E
B1F47D
F1F0BC
A2F0BC
03E0F8
03D1F4
07D1F4
0BC2F0
0B83E0
0F87E0
1FD7D0
0E0BC0
0E1F40
07FD00
ENDCHAR
STARTCHAR ij
ENCODING 307
SWIDTH 507 0
DWIDTH 9 0
BBX 10 16 0 -4
BITMAP
0F0780
1F4BC0
0A0680
3E0F80
3D1F40
7D2F00
BC2F00
BC3E00
F83D10
F47D60
FDBC80
7DFE00
0BF800
29F400
2AF000
1F8000
ENDCHAR
STARTCHAR Jcircumflex
ENCODING 308
SWIDTH 536 0
DWIDTH 10 0
BBX 12 21 0 -3
BITMAP
000018
0000BC
000299
000501
000000
0006F4
002EF0
00B2F0
01D3E0
02C7D0
01C7C0
000BC0
000F80
001F40
001F40
002F00
003E00
2F7E00
B07D00
B0B800
2FE000
ENDCHAR
STARTCHAR jcircumflex
ENCODING 309
SWIDTH 240 0
DWIDTH 4 0
BBX 9 17 -4 -4
BITMAP
000340
001F80
006480
000000
003E00
003E00
007D00
00BC00
00BC00
00F840
01F480
01F600
02F800
1FE000
67E000
ABC000
6E4000
ENDCHAR
STARTCHAR Kcommaaccent
ENCODING 310
SWIDTH 601 0
DWIDTH 11 0
BBX 12 17 0 -4
BITMAP
01BC1D
1EF874
78F8E0
B1F780
A1FA00
62FF90
03E2E0
03D2E0
07D2E0
0BC3D0
0B87C0
0F8BC0
1F47D0
000000
007400
007400
006000
ENDCHAR
STARTCHAR kcommaaccent
ENCODING 311
SWIDTH 518 0
DWIDTH 9 0
BBX 11 17 -1 -4
BITMAP
015000
07D000
07C000
0BC000
0F8280
0F9D00
1FB900
2FFF40
2F5F40
3E1F40
3D1F08
7D1FB4
BC0BD0
000000
01D000
01D000
018000
ENDCHAR
STARTCHAR kgreenlandic
ENCODING 312
SWIDTH 518 0
DWIDTH 9 0
BBX 11 9 -1 0
BITMAP
0F8280
0F9D00
1FB900
2FFF40
2F5F40
3E1F40
3D1F08
7D1FB4
BC0BD0
ENDCHAR
STARTCHAR Lacute
ENCODING 313
SWIDTH 379 0
DWIDTH 7 0
BBX 12 22 0 -4
BITMAP
000380
000B00
001D00
000000
000000
01BC00
0AF800
38F800
B1F400
F1F000
62F000
03E000
03D000
07D000
0BC000
0B8000
0F8000
1F9000
01BE40
001FFE
0007FE
0000BC
ENDCHAR
STARTCHAR lacute
ENCODING 314
SWIDTH 267 0
DWIDTH 5 0
BBX 6 17 0 0
BITMAP
0060
00E0
02C0
0140
0540
1F40
1F00
2F00
3E00
3E00
7D00
BC00
BC00
F810
F480
FA80
7D00
ENDCHAR
STARTCHAR Lcommaaccent
ENCODING 315
SWIDTH 379 0
DWIDTH 7 0
BBX 12 17 0 -4
BITMAP
01BC00
0AF800
38F800
B1F400
F1F000
62F000
03E000
03D000
07D000
0BC000
0B8000
0F8000
1F9000
05BE40
1D1FFE
0C07FE
1400BC
ENDCHAR
STARTCHAR lcommaaccent
ENCODING 316
SWIDTH 267 0
DWIDTH 5 0
BBX 6 17 0 -4
BITMAP
0640
1F40
1F00
2F00
3E00
3E00
7D00
BC00
BC00
F810
F480
FA80
7D00
0000
A000
B000
9000
ENDCHAR
STARTCHAR Lcaron
ENCODING 317
SWIDTH 379 0
DWIDTH 7 0
BBX 12 22 0 -4
BITMAP
002060
001F80
000D00
000000
000000
01BC00
0AF800
38F800
B1F400
F1F000
62F000
03E000
03D000
07D000
0BC000
0B8000
0F8000
1F9000
01BE40
001FFE
0007FE
0000BC
ENDCHAR
STARTCHAR lcaron
ENCODING 318
SWIDTH 267 0
DWIDTH 5 0
BBX 7 13 0 0
BITMAP
002C
0A6C
1F58
2F10
2E00
3E00
7D00
7C00
BC00
F800
F490
FE80
7E00
ENDCHAR
STARTCHAR Ldot
ENCODING 319
SWIDTH 605 0
DWIDTH 11 0
BBX 12 17 0 -4
BITMAP
01BC00
0AF800
38F800
B1F400
F1F000
62F000
03E000
03D1E0
07D2F0
0BC190
0B8000
0F8000
1F9000
01BE40
001FFE
0007FE
0000BC
ENDCHAR
STARTCHAR ldot
ENCODING 320
SWIDTH 353 0
DWIDTH 6 0
BBX 6 13 0 0
BITMAP
0540
1F40
1F00
2F00
3E00
3D00
7DF0
BCB0
BC00
F800
F800
FE00
7800
ENDCHAR
STARTCHAR Lslash
ENCODING 321
SWIDTH 392 0
DWIDTH 7 0
BBX 12 17 0 -4
BITMAP
01BC00
0AF800
38F800
B1F500
F1FA00
62F400
03E000
1FD000
07D000
0BC000
0B8000
0F8000
1F9000
01BE40
001FFE
0007FE
0000BC
ENDCHAR
STARTCHAR lslash
ENCODING 322
SWIDTH 286 0
DWIDTH 5 0
BBX 7 13 -1 0
BITMAP
0190
07D0
07C0
0BC4
0FF4
0F80
2F40
BF00
2F00
3E04
3D20
3FA0
1F40
ENDCHAR
STARTCHAR Nacute
ENCODING 323
SWIDTH 702 0
DWIDTH 13 0
BBX 13 18 0 0
BITMAP
00000600
00000E00
00002C00
00001400
00000000
06FC0380
1DBD0380
74FE0740
B1FE0B00
F1FF0B00
B2DF4E00
13CF5D00
038F9D00
074BEC00
0B47F800
0B03F800
0E03F400
1D02F000
ENDCHAR
STARTCHAR nacute
ENCODING 324
SWIDTH 505 0
DWIDTH 9 0
BBX 11 13 -1 0
BITMAP
0003C0
000740
000D00
000000
0FEF40
0F9F80
1F4F80
2F0F80
2E1F40
3E1F04
3D2F18
7D2FB0
BC0B90
ENDCHAR
STARTCHAR Ncommaaccent
ENCODING 325
SWIDTH 668 0
DWIDTH 12 0
BBX 13 17 0 -4
BITMAP
06FC0380
1DBD0380
74FE0740
B1FE0B00
F1FF0B00
B2DF4E00
13CF5D00
038F9D00
074BEC00
0B47F800
0B03F800
0E03F400
1D02F000
00000000
00740000
00740000
00600000
ENDCHAR
STARTCHAR ncommaaccent
ENCODING 326
SWIDTH 505 0
DWIDTH 9 0
BBX 11 13 -1 -4
BITMAP
0FEE00
0F9F80
1F4F80
2F0F80
2E1F40
3E1F00
3D2F08
7D2F20
BC0B90
000000
038000
028000
024000
ENDCHAR
STARTCHAR Ncaron
ENCODING 327
SWIDTH 668 0
DWIDTH 12 0
BBX 13 18 0 0
BITMAP
00004040
00009A00
00007800
00001000
00000000
06FC0380
1DBD0380
74FE0740
B1FE0B00
F1FF0B00
B2DF4E00
13CF5D00
038F9D00
074BEC00
0B47F800
0B03F800
0E03F400
1D02F000
ENDCHAR
STARTCHAR ncaron
ENCODING 328
SWIDTH 505 0
DWIDTH 9 0
BBX 11 13 -1 0
BITMAP
009180
007E00
003400
000000
0FEE00
0F9F80
1F4F80
2F0F80
2E1F40
3E1F00
3D2F08
7D2F20
BC0B90
ENDCHAR
STARTCHAR napostrophe
ENCODING 329
SWIDTH 505 0
DWIDTH 9 0
BBX 11 13 -1 0
BITMAP
1E0000
0E0000
090000
000000
0FEE00
0F9F80
1F4F80
2F0F80
2E1F40
3E1F00
3D2F08
7D2F20
BC0B90
ENDCHAR
STARTCHAR Eng
ENCODING 330
SWIDTH 723 0
DWIDTH 13 0
BBX 13 17 1 -4
BITMAP
06F80380
2EFD0780
74FD0740
F1FE0B00
E2FF0F00
A2DF0E00
139F5D00
074FAC00
074BAC00
0B07F800
0E03F400
1E02F400
1D02F000
0181E000
02C2D000
02C78000
00BD0000
ENDCHAR
STARTCHAR eng
ENCODING 331
SWIDTH 505 0
DWIDTH 9 0
BBX 9 13 -1 -4
BITMAP
0FAF00
0FEF80
1F4F80
2F0F40
2F1F40
3E1F00
7D2E00
7D3E00
BC7D00
02FC00
08BC00
09F400
0BD000
ENDCHAR
STARTCHAR Omacron
ENCODING 332
SWIDTH 665 0
DWIDTH 12 0
BBX 12 16 0 0
BITMAP
003FF8
000000
000000
006FE0
07957C
2D7D2E
74F42E
B2F02E
77D02E
0BC03E
0BC07D
0F80BC
0F80F4
0F82E0
0BEBC0
02FE00
ENDCHAR
STARTCHAR omacron
ENCODING 333
SWIDTH 433 0
DWIDTH 8 0
BBX 11 12 -1 0
BITMAP
03FF80
000000
000000
01F800
0BDA00
1F4E18
2F0F90
3E0A00
7D0D00
7D1C00
3E7400
1F9000
ENDCHAR
STARTCHAR Obreve
ENCODING 334
SWIDTH 665 0
DWIDTH 12 0
BBX 12 17 0 0
BITMAP
001D1A
000BF8
000000
000000
006FE0
07957C
2D7D2E
74F42E
B2F02E
77D02E
0BC03E
0BC07D
0F80BC
0F80F4
0F82E0
0BEBC0
02FE00
ENDCHAR
STARTCHAR obreve
ENCODING 335
SWIDTH 433 0
DWIDTH 8 0
BBX 11 13 -1 0
BITMAP
0381D0
02C280
00BE00
000000
01F800
0BDA00
1F4E18
2F0F90
3E0A00
7D0D00
7D1C00
3E7400
1F9000
ENDCHAR
STARTCHAR Ohungarumlaut
ENCODING 336
SWIDTH 665 0
DWIDTH 12 0
BBX 13 18 0 0
BITMAP
0000E380
0002CA00
00030C00
00000000
00000000
006FE000
07957C00
2D7D2E00
74F42E00
B2F02E00
77D02E00
0BC03E00
0BC07D00
0F80BC00
0F80F400
0F82E000
0BEBC000
02FE0000
ENDCHAR
STARTCHAR ohungarumlaut
ENCODING 337
SWIDTH 433 0
DWIDTH 8 0
BBX 11 13 -1 0
BITMAP
0039E0
00A280
01C700
000000
01F800
0BDA00
1F4E18
2F0F90
3E0A00
7D0D00
7D1C00
3E7400
1F9000
ENDCHAR
STARTCHAR OE
ENCODING 338
SWIDTH 846 0
DWIDTH 15 0
BBX 17 13 0 0
BITMAP
006FEFFF40
07997EAE00
2D7C2D0000
75F42E0000
B2E02E0000
B7D02E0000
1BC03FF000
0BC03D5000
0F807C0000
0F80F80000
0F81E00000
0BC7FFE000
02FFFFE000
ENDCHAR
STARTCHAR oe
ENCODING 339
SWIDTH 663 0
DWIDTH 12 0
BBX 13 9 0 0
BITMAP
06E1BD00
2E6BD600
7C3F8600
B87F4900
F82F6400
F42F4000
F43E0140
F8BF5A00
6F8BE400
ENDCHAR
STARTCHAR Racute
ENCODING 340
SWIDTH 601 0
DWIDTH 11 0
BBX 11 18 0 0
BITMAP
0000F0
0001D0
000380
000100
000000
01BF90
1F55F4
78F874
B1F4B4
E1F1D0
62FFD0
03E7E0
03D2E0
07D2E0
0BC3D0
0B87C0
0F8BC0
1F47D0
ENDCHAR
STARTCHAR racute
ENCODING 341
SWIDTH 376 0
DWIDTH 7 0
BBX 8 13 -1 0
BITMAP
000E
001C
0034
0000
0FAE
0FEF
1F49
2F00
2F00
3E00
3D00
7D00
BC00
ENDCHAR
STARTCHAR Rcommaaccent
ENCODING 342
SWIDTH 601 0
DWIDTH 11 0
BBX 11 17 0 -4
BITMAP
01BF90
1F55F4
78F874
B1F4B4
E1F1D0
62FFD0
03E7E0
03D2E0
07D2E0
0BC3D0
0B87C0
0F8BC0
1F47D0
000000
00B000
00B000
005000
ENDCHAR
STARTCHAR rcommaaccent
ENCODING 343
SWIDTH 376 0
DWIDTH 7 0
BBX 8 13 -1 -4
BITMAP
0FAE
0FEF
1F49
2F00
2F00
3E00
3D00
7D00
BC00
0000
0E00
0A00
0800
ENDCHAR
STARTCHAR Rcaron
ENCODING 344
SWIDTH 601 0
DWIDTH 11 0
BBX 11 18 0 0
BITMAP
000818
0006A0
000380
000100
000000
01BF90
1F55F4
78F874
B1F4B4
E1F1D0
62FFD0
03E7E0
03D2E0
07D2E0
0BC3D0
0B87C0
0F8BC0
1F47D0
ENDCHAR
STARTCHAR rcaron
ENCODING 345
SWIDTH 376 0
DWIDTH 7 0
BBX 8 13 -1 0
BITMAP
0246
01F8
00D0
0000
0FAE
0FEF
1F49
2F00
2F00
3E00
3D00
7D00
BC00
ENDCHAR
STARTCHAR Sacute
ENCODING 346
SWIDTH 570 0
DWIDTH 10 0
BBX 10 18 0 0
BITMAP
0000E0
0002C0
000340
000500
000000
007F80
02E5E0
07D0F0
07E1E0
03F400
01FD00
007F00
051F80
2E4BC0
7C07D0
780BC0
3D6F40
0BF800
ENDCHAR
STARTCHAR sacute
ENCODING 347
SWIDTH 382 0
DWIDTH 7 0
BBX 9 13 -1 0
BITMAP
000B00
001D00
002800
001000
01F400
03F400
06F400
09F400
18F800
24F800
B4FA40
61F800
2F9000
ENDCHAR
STARTCHAR Scircumflex
ENCODING 348
SWIDTH 570 0
DWIDTH 10 0
BBX 10 18 0 0
BITMAP
000180
0007C0
001D90
001010
000000
007F80
02E5E0
07D0F0
07E1E0
03F400
01FD00
007F00
051F80
2E4BC0
7C07D0
780BC0
3D6F40
0BF800
ENDCHAR
STARTCHAR scircumflex
ENCODING 349
SWIDTH 382 0
DWIDTH 7 0
BBX 9 13 -1 0
BITMAP
002800
00BC00
028900
040000
01F400
03F400
06F400
09F400
18F800
24F800
B4FA40
61F800
2F9000
ENDCHAR
STARTCHAR Scedilla
ENCODING 350
SWIDTH 570 0
DWIDTH 10 0
BBX 10 17 0 -4
BITMAP
007F80
02E5E0
07D0F0
07D1E0
03F400
01FC00
007F00
052F80
2F4BC0
7C0BD0
780BC0
3D1F40
1BF900
009000
01B800
057800
02E000
ENDCHAR
STARTCHAR scedilla
ENCODING 351
SWIDTH 382 0
DWIDTH 7 0
BBX 9 13 -1 -4
BITMAP
02F400
03F400
06F400
09F400
18F800
34F800
A4FA40
61F800
2F9000
080000
0F8000
17C000
2E4000
ENDCHAR
STARTCHAR Scaron
ENCODING 352
SWIDTH 570 0
DWIDTH 10 0
BBX 11 18 0 0
BITMAP
000918
0007A0
000380
000100
000000
007F80
02E5E0
07D0F0
07E1E0
03F400
01FD00
007F00
051F80
2E4BC0
7C07D0
780BC0
3D6F40
0BF800
ENDCHAR
STARTCHAR scaron
ENCODING 353
SWIDTH 369 0
DWIDTH 7 0
BBX 9 13 -1 0
BITMAP
014640
00EC00
00A000
000000
01F400
03F400
06F400
09F400
18F800
34F800
A4FA00
66F800
2F9000
ENDCHAR
STARTCHAR uni0162
ENCODING 354
SWIDTH 481 0
DWIDTH 9 0
BBX 13 17 0 -4
BITMAP
06FF9080
1D6FFF80
743FAE00
B03E0000
E07D0000
A0BD0000
10BC0000
00F80000
01F40000
01F40000
02F00000
03E00000
03E00000
01800000
02F40000
04740000
07E00000
ENDCHAR
STARTCHAR uni0163
ENCODING 355
SWIDTH 267 0
DWIDTH 5 0
BBX 7 16 -1 -4
BITMAP
0290
07C0
0BC0
1FE0
0F80
1F40
1F00
2F00
3E00
3D24
3FA0
2F80
1800
2B40
4740
7E00
ENDCHAR
STARTCHAR Tcaron
ENCODING 356
SWIDTH 481 0
DWIDTH 9 0
BBX 13 18 0 0
BITMAP
00041400
000DA000
000B4000
00010000
00000000
06FF9080
1D6FFF80
743FAE00
B03E0000
E07D0000
A0BD0000
10BC0000
00F80000
01F40000
01F40000
02F00000
03E00000
03E00000
ENDCHAR
STARTCHAR tcaron
ENCODING 357
SWIDTH 267 0
DWIDTH 5 0
BBX 8 13 0 0
BITMAP
002D
011D
1F58
2F00
7F80
3E00
7D00
7C00
BC00
F800
F490
FE80
7E00
ENDCHAR
STARTCHAR Tbar
ENCODING 358
SWIDTH 481 0
DWIDTH 9 0
BBX 13 13 0 0
BITMAP
06FF9080
2D6FFF80
743E6A00
B03E0000
E07D0000
60BC0000
00B80000
1FFFD000
01F40000
01F40000
02F00000
03E00000
03E00000
ENDCHAR
STARTCHAR tbar
ENCODING 359
SWIDTH 267 0
DWIDTH 5 0
BBX 7 12 -1 0
BITMAP
0290
07C0
0BC0
1FE0
0F80
7FE0
2F40
2F00
3E00
3E24
3FA0
2F80
ENDCHAR
STARTCHAR Utilde
ENCODING 360
SWIDTH 716 0
DWIDTH 13 0
BBX 14 17 0 0
BITMAP
00005400
0006FF80
00001500
00000000
01BD03D0
1EBD07D0
74BC0BC0
F0F80BC0
E0F40F80
A1F01F40
02E01F00
03E02F00
03D03E00
07C07D00
07D0F800
03FBF000
01BF8000
ENDCHAR
STARTCHAR utilde
ENCODING 361
SWIDTH 505 0
DWIDTH 9 0
BBX 10 12 0 0
BITMAP
06FA40
05A900
000000
3E1F00
3D2F00
7D3E00
BC3E00
BC7D00
F8BC10
F8FC60
FFBEC0
7D2E00
ENDCHAR
STARTCHAR Umacron
ENCODING 362
SWIDTH 716 0
DWIDTH 13 0
BBX 14 16 0 0
BITMAP
0007FF80
00000000
00000000
01BD03D0
1EBD07D0
74BC0BC0
F0F80BC0
E0F40F80
A1F01F40
02E01F00
03E02F00
03D03E00
07C07D00
07D0F800
03FBF000
01BF8000
ENDCHAR
STARTCHAR umacron
ENCODING 363
SWIDTH 505 0
DWIDTH 9 0
BBX 10 12 0 0
BITMAP
0BFF00
000000
000000
3E1F00
3D2F00
7D3E00
BC3E00
BC7D00
F8BC10
F8FC60
FFBEC0
7D2E00
ENDCHAR
STARTCHAR Ubreve
ENCODING 364
SWIDTH 716 0
DWIDTH 13 0
BBX 14 17 0 0
BITMAP
000382C0
0001FE00
00000000
00000000
01BD03D0
1EBD07D0
74BC0BC0
F0F80BC0
E0F40F80
A1F01F40
02E01F00
03E02F00
03D03E00
07C07D00
07D0F800
03FBF000
01BF8000
ENDCHAR
STARTCHAR ubreve
ENCODING 365
SWIDTH 505 0
DWIDTH 9 0
BBX 10 13 0 0
BITMAP
0B0740
06F900
000000
000000
3E1F00
3D2F00
7D3E00
BC3E00
BC7D00
F8BC10
F8FC60
FFBEC0
7D2E00
ENDCHAR
STARTCHAR Uring
ENCODING 366
SWIDTH 716 0
DWIDTH 13 0
BBX 14 18 0 0
BITMAP
00007400
00009800
00008800
0000B400
00000000
01BD03D0
1EBD07D0
74BC0BC0
F0F80BC0
E0F40F80
A1F01F40
02E01F00
03E02F00
03D03E00
07C07D00
07D0F800
03FBF000
01BF8000
ENDCHAR
STARTCHAR uring
ENCODING 367
SWIDTH 505 0
DWIDTH 9 0
BBX 10 12 0 0
BITMAP
00F400
01F400
000000
3E1F00
3D2F00
7D3E00
BC3E00
BC7D00
F8BC10
F8FC60
FFBEC0
7D2E00
ENDCHAR
STARTCHAR Uhungarumlaut
ENCODING 368
SWIDTH 716 0
DWIDTH 13 0
BBX 14 18 0 0
BITMAP
000039E0
0000A280
0001C700
00000000
00000000
01BD03D0
1EBD07D0
74BC0BC0
F0F80BC0
E0F40F80
A1F01F40
02E01F00
03E02F00
03D03E00
07C07D00
07D0F800
03FBF000
01BF8000
ENDCHAR
STARTCHAR uhungarumlaut
ENCODING 369
SWIDTH 505 0
DWIDTH 9 0
BBX 10 13 0 0
BITMAP
00E380
02CA00
031C00
000000
3E1F00
3D2F00
7D3E00
BC3E00
BC7D00
F8BC10
F8FC60
FFBEC0
7D2E00
ENDCHAR
STARTCHAR Uogonek
ENCODING 370
SWIDTH 716 0
DWIDTH 13 0
BBX 14 22 0 -4
BITMAP
0002D000
0001D000
0000A000
00000000
00000000
01BD03D0
1E7D07D0
74BC0BC0
F0F80BC0
E0F40F80
A1F01F40
02E01F00
03D02F00
03D03E00
07C07D00
07D0F800
03FFF400
01FF8000
00240000
00700000
00B14000
007E0000
ENDCHAR
STARTCHAR uogonek
ENCODING 371
SWIDTH 505 0
DWIDTH 9 0
BBX 10 13 0 -4
BITMAP
3E1F00
3D2F00
7D3E00
BC3E00
BC7D00
F8BC10
F8FC60
FFBEC0
7D3F40
002400
007000
00B140
007E00
ENDCHAR
STARTCHAR Wcircumflex
ENCODING 372
SWIDTH 962 0
DWIDTH 17 0
BBX 19 18 0 0
BITMAP
0000001000
000000B400
000007A800
0000040400
0000000000
01BC03D034
0ABC07D070
38BD0BD0A0
B07D0FD0D0
F07D1FD1C0
A07D37D240
007D77D300
007D93D600
007DC3D900
007E83EC00
007F43F800
007F03F000
007E03E000
ENDCHAR
STARTCHAR wcircumflex
ENCODING 373
SWIDTH 661 0
DWIDTH 12 0
BBX 12 13 0 0
BITMAP
000240
001F80
006480
004000
3E1F1D
3D2F1E
7D3E06
BC3E09
BC7D0C
F8BC28
F8FC74
FFFEE0
7D2F40
ENDCHAR
STARTCHAR Ycircumflex
ENCODING 374
SWIDTH 620 0
DWIDTH 11 0
BBX 13 18 0 0
BITMAP
00000400
00007800
00029C00
00050500
00000000
01BD0340
0ABE0700
387E0900
B03F0C00
F02F6800
A01FB000
000FE000
000FC000
000FC000
001F8000
001F4000
002F4000
003F0000
ENDCHAR
STARTCHAR ycircumflex
ENCODING 375
SWIDTH 505 0
DWIDTH 9 0
BBX 9 17 0 -4
BITMAP
002800
00BC00
064900
000000
3E1F00
3D2F00
7D3E00
BC3E00
BC7D00
F8BC00
F8FC80
FFF980
7EF900
0BF400
26F000
37E000
2F8000
ENDCHAR
STARTCHAR Ydieresis
ENCODING 376
SWIDTH 620 0
DWIDTH 11 0
BBX 13 17 0 0
BITMAP
00038B00
0003CB00
00000000
00000000
01BD0340
0ABE0700
387E0900
B03F0C00
F02F6800
A01FB000
000FE000
000FC000
000FC000
001F8000
001F4000
002F4000
003F0000
ENDCHAR
STARTCHAR Zacute
ENCODING 377
SWIDTH 542 0
DWIDTH 10 0
BBX 10 18 0 0
BITMAP
000050
0001D0
000380
000100
000000
0BFFE0
1E0BC0
1D1F80
002F00
007E00
00BC00
01F800
03F000
07E000
0FC000
1F4280
3F03C0
BFFF40
ENDCHAR
STARTCHAR zacute
ENCODING 378
SWIDTH 428 0
DWIDTH 8 0
BBX 8 13 0 0
BITMAP
001D
0038
00B0
0000
1FFD
38BC
25F4
02E0
07D0
0F80
2F14
3E2C
BFF4
ENDCHAR
STARTCHAR Zdotaccent
ENCODING 379
SWIDTH 530 0
DWIDTH 10 0
BBX 10 17 0 0
BITMAP
001D00
001D00
000000
000000
0BFFE0
1E0BC0
1D1F80
002F00
007E00
00BC00
01F800
03F000
07E000
0FC000
1F4280
3F03C0
BFFF40
ENDCHAR
STARTCHAR zdotaccent
ENCODING 380
SWIDTH 428 0
DWIDTH 8 0
BBX 8 12 0 0
BITMAP
00A0
00F0
0000
1FFD
38BC
25F4
02E0
07D0
0F80
2F14
3E2C
BFF4
ENDCHAR
STARTCHAR Zcaron
ENCODING 381
SWIDTH 542 0
DWIDTH 10 0
BBX 11 18 0 0
BITMAP
001014
001990
000B40
000400
000000
0BFFE0
1E0BC0
1D1F80
002F00
007E00
00BC00
01F800
03F000
07E000
0FC000
1F4280
3F03C0
BFFF40
ENDCHAR
STARTCHAR zcaron
ENCODING 382
SWIDTH 428 0
DWIDTH 8 0
BBX 8 13 0 0
BITMAP
0146
00F8
0090
0000
1FFD
38BC
25F4
02E0
07D0
0F80
2F14
3E2C
BFF4
ENDCHAR
STARTCHAR longs
ENCODING 383
SWIDTH 267 0
DWIDTH 5 0
BBX 11 17 -4 -4
BITMAP
0006F4
000F9C
001F00
002F00
00BE00
003D00
007D00
007C00
00B800
00F800
00F400
01F000
02F000
2BE000
A3D000
97C000
2E4000
ENDCHAR
STARTCHAR uni018F
ENCODING 399
SWIDTH 544 0
DWIDTH 10 0
BBX 10 13 0 0
BITMAP
06FE00
0FFF80
1D1BD0
0007E0
0007E0
00AFE0
07DBD0
1E0FC0
3D0F80
782F40
B83E00
78B800
1F9000
ENDCHAR
STARTCHAR florin
ENCODING 402
SWIDTH 267 0
DWIDTH 5 0
BBX 13 17 -5 -4
BITMAP
00002F40
0000F6C0
0002E240
0003D000
002FFD00
000BC000
000F8000
001F4000
002F0000
003E0000
007D0000
007C0000
00B80000
00F40000
75F00000
77D00000
2E400000
ENDCHAR
STARTCHAR Ohorn
ENCODING 416
SWIDTH 665 0
DWIDTH 12 0
BBX 13 16 0 0
BITMAP
00000140
000002C0
00000280
006FE340
07957E00
2D7D2D00
74F42E00
B2F02E00
77D02E00
0BC03E00
0BC07D00
0F80BC00
0F80F800
0F82E000
0BEBC000
02FE0000
ENDCHAR
STARTCHAR ohorn
ENCODING 417
SWIDTH 439 0
DWIDTH 8 0
BBX 10 12 -1 0
BITMAP
000050
0000A0
0000E0
01BAC0
0BDB40
1F4700
2F0B00
3E0B00
7E0E00
3D1D00
3E7400
1B9000
ENDCHAR
STARTCHAR Uhorn
ENCODING 431
SWIDTH 716 0
DWIDTH 13 0
BBX 16 17 0 0
BITMAP
00000005
0000000E
0000000D
00000018
01BD03E0
1EBD07D0
74BC0BC0
F0F80B80
E0F40F80
A1F01F40
02E01F00
03E02F00
03D03E00
07C07D00
07D0F800
03FBF000
01BF8000
ENDCHAR
STARTCHAR uhorn
ENCODING 432
SWIDTH 505 0
DWIDTH 9 0
BBX 10 12 0 0
BITMAP
0000A0
0000A0
0000D0
3E1F40
3D2F00
7D3E00
BC3E00
BC7D00
F8BC10
F8FC60
FFBEC0
7D2E00
ENDCHAR
STARTCHAR uni01B7
ENCODING 439
SWIDTH 555 0
DWIDTH 10 0
BBX 10 13 0 0
BITMAP
07FFF0
0E07D0
0D1F40
003E00
00B800
01F900
006F40
000FC0
000FC0
240FC0
B41F80
747E00
2FE400
ENDCHAR
STARTCHAR uni01CD
ENCODING 461
SWIDTH 668 0
DWIDTH 12 0
BBX 15 20 0 -2
BITMAP
00000404
00000AB4
00000380
00000100
00000000
00002F40
0001AF40
00076F00
000D3E00
00283E00
1BF97D00
B9F5FC00
B6D0BC00
03C0F800
0B81F400
0F41F400
1F02F000
1F03E000
1E000000
0A000000
ENDCHAR
STARTCHAR uni01CE
ENCODING 462
SWIDTH 526 0
DWIDTH 9 0
BBX 11 13 -1 0
BITMAP
002460
001F80
000D00
000000
01FBE0
0BDBD0
1F47C0
2F0BC0
3E0F80
7D0F40
7D1F48
3FAFE4
1F8B90
ENDCHAR
STARTCHAR uni01CF
ENCODING 463
SWIDTH 375 0
DWIDTH 7 0
BBX 10 18 0 0
BITMAP
001010
003680
002E00
000400
000000
01BC00
0AF800
38F800
B1F400
F1F000
A2F000
03E000
03D000
07D000
0BC000
0B8000
0F8000
1F4000
ENDCHAR
STARTCHAR uni01D0
ENCODING 464
SWIDTH 267 0
DWIDTH 5 0
BBX 6 13 0 0
BITMAP
1460
0F80
0900
0000
3E00
3D00
7D00
BC00
BC00
F800
F490
FE80
7D00
ENDCHAR
STARTCHAR uni01D1
ENCODING 465
SWIDTH 665 0
DWIDTH 12 0
BBX 12 18 0 0
BITMAP
000246
0001EC
0000E0
000040
000000
006FE0
07957C
2D7D2E
74F42E
B2F02E
77D02E
0BC03E
0BC07D
0F80BC
0F80F4
0F82E0
0BEBC0
02FE00
ENDCHAR
STARTCHAR uni01D2
ENCODING 466
SWIDTH 433 0
DWIDTH 8 0
BBX 11 13 -1 0
BITMAP
009180
007E00
003400
000000
01F800
0BDA00
1F4F68
2E0F90
3E0E00
7D0D00
7D2C00
3FB400
1F9000
ENDCHAR
STARTCHAR uni01D3
ENCODING 467
SWIDTH 716 0
DWIDTH 13 0
BBX 14 18 0 0
BITMAP
00009180
00007A00
00003800
00001000
00000000
01BD03D0
1EBD07D0
74BC0BC0
F0F80BC0
E0F40F80
A1F01F40
02E01F00
03E02F00
03D03E00
07C07D00
07D0F800
03FBF000
01BF8000
ENDCHAR
STARTCHAR uni01D4
ENCODING 468
SWIDTH 505 0
DWIDTH 9 0
BBX 10 13 0 0
BITMAP
018640
00F800
00A000
000000
3E1F00
3D2F00
7D3E00
BC3E00
BC7D00
F8BC10
F8FC60
FFBEC0
7D2E00
ENDCHAR
STARTCHAR uni01D5
ENCODING 469
SWIDTH 716 0
DWIDTH 13 0
BBX 14 18 0 0
BITMAP
0002FFC0
00010100
0003C780
00038740
00000000
01BD03D0
1EBD07D0
74BC0BC0
F0F80BC0
E0F40F80
A1F01F40
02E01F00
03E02F00
03D03E00
07C07D00
07D0F800
03FBF000
01BF8000
ENDCHAR
STARTCHAR uni01D6
ENCODING 470
SWIDTH 505 0
DWIDTH 9 0
BBX 10 15 0 0
BITMAP
07FF80
000000
000000
074E00
075E00
000000
3E1F00
3D2F00
7D3E00
BC3E00
BC7D00
F8BC10
F8FC60
FFBEC0
7D2E00
ENDCHAR
STARTCHAR uni01D7
ENCODING 471
SWIDTH 716 0
DWIDTH 13 0
BBX 14 18 0 0
BITMAP
00001E00
000A2DD0
000F75D0
00005000
00000000
01BD03D0
1EBD07D0
74BC0BC0
F0F80BC0
E0F40F80
A1F01F40
02E01F00
03E02F00
03D03E00
07C07D00
07D0F800
03FBF000
01BF8000
ENDCHAR
STARTCHAR uni01D8
ENCODING 472
SWIDTH 505 0
DWIDTH 9 0
BBX 10 17 0 0
BITMAP
000500
001D00
002800
002000
000000
074E00
075E00
000000
3E1F00
3D2F00
7D3E00
BC3E00
BC7D00
F8BC10
F8FC60
FFBEC0
7D2E00
ENDCHAR
STARTCHAR uni01D9
ENCODING 473
SWIDTH 716 0
DWIDTH 13 0
BBX 14 18 0 0
BITMAP
00008640
000ABDD0
000B61D0
00000000
00000000
01BD03D0
1EBD07D0
74BC0BC0
F0F80BC0
E0F40F80
A1F01F40
02E01F00
03E02F00
03D03E00
07C07D00
07D0F800
03FBF000
01BF8000
ENDCHAR
STARTCHAR uni01DA
ENCODING 474
SWIDTH 505 0
DWIDTH 9 0
BBX 10 17 0 0
BITMAP
004040
009740
007D00
003000
000000
074E00
075E00
000000
3E1F00
3D2F00
7D3E00
BC3E00
BC7D00
F8BC10
F8FC60
FFBEC0
7D2E00
ENDCHAR
STARTCHAR uni01DB
ENCODING 475
SWIDTH 716 0
DWIDTH 13 0
BBX 14 18 0 0
BITMAP
00007400
000A39D0
000B29D0
00000000
00000000
01BD03D0
1EBD07D0
74BC0BC0
F0F80BC0
E0F40F80
A1F01F40
02E01F00
03E02F00
03D03E00
07C07D00
07D0F800
03FBF000
01BF8000
ENDCHAR
STARTCHAR uni01DC
ENCODING 476
SWIDTH 505 0
DWIDTH 9 0
BBX 10 17 0 0
BITMAP
01D000
00E000
00A000
000000
000000
074E00
075E00
000000
3E1F00
3D2F00
7D3E00
BC3E00
BC7D00
F8BC10
F8FC60
FFBEC0
7D2E00
ENDCHAR
STARTCHAR uni01E4
ENCODING 484
SWIDTH 601 0
DWIDTH 11 0
BBX 11 16 0 -3
BITMAP
00AF90
07E4B0
1F80B0
3F0050
7E0000
BD01E0
BC2FF4
7D07D0
3E0FC0
1FEBC0
000B80
000F40
0BDF00
2C2E00
2C3D00
0BF400
ENDCHAR
STARTCHAR uni01E5
ENCODING 485
SWIDTH 507 0
DWIDTH 9 0
BBX 11 13 -1 -4
BITMAP
01FBE0
0BDBD0
1F47C0
2F0BC0
3E0F80
7D0F44
7E2F58
3FFF20
1FBF40
02BE00
1FFF40
09BC00
07E000
ENDCHAR
STARTCHAR Gcaron
ENCODING 486
SWIDTH 578 0
DWIDTH 10 0
BBX 12 21 0 -3
BITMAP
000519
0007B0
000380
000100
000000
00AF90
07E4B0
1F80B4
3F00E0
7E0000
BD0050
BC02E0
7D03D0
3E0BC0
1FEBC0
000B80
000F40
0BDF00
2C2E00
2C3D00
0BF400
ENDCHAR
STARTCHAR gcaron
ENCODING 487
SWIDTH 507 0
DWIDTH 9 0
BBX 11 17 -1 -4
BITMAP
002460
001F80
000D00
000000
01FBE0
0BDBD0
1F47C0
2F0BC0
3E0F80
7D0F44
7E2F58
3FFF20
1FBF80
01FE00
0A7D00
09BC00
07E000
ENDCHAR
STARTCHAR uni01E8
ENCODING 488
SWIDTH 601 0
DWIDTH 11 0
BBX 13 19 0 0
BITMAP
00010140
00009A00
0000F800
0000A000
00000000
00000000
01BC1D00
1EF87400
78F8E000
B1F78000
A1FA0000
62FF9000
03E2E000
03D2E000
07D2E000
0BC3D000
0B87C000
0F8BC000
1F47D000
ENDCHAR
STARTCHAR uni01E9
ENCODING 489
SWIDTH 518 0
DWIDTH 9 0
BBX 11 17 -1 0
BITMAP
000404
000DA0
000B80
000600
015000
07D000
07C000
0BC000
0F8280
0F9D00
1FB900
2FFF40
2F5F40
3E1F40
3D1F08
7D1FB4
BC0BD0
ENDCHAR
STARTCHAR uni01EA
ENCODING 490
SWIDTH 665 0
DWIDTH 12 0
BBX 12 22 0 -4
BITMAP
002D00
001D00
000E00
000000
000000
006FE0
07957C
2D7D2E
74F42E
B2F02E
73D02E
0BC03E
0BC07D
0F80BC
0F80F4
0F82E0
0BEBC0
02FE00
01C000
028000
038400
01F400
ENDCHAR
STARTCHAR uni01EB
ENCODING 491
SWIDTH 433 0
DWIDTH 8 0
BBX 11 13 -1 -4
BITMAP
01F800
0BDA00
1F4E18
2F0F90
3E0A00
7D0D00
7D1C00
3E7400
1F9000
0C0000
280000
2C4000
1F8000
ENDCHAR
STARTCHAR uni01EE
ENCODING 494
SWIDTH 525 0
DWIDTH 9 0
BBX 10 18 0 0
BITMAP
001010
0025D0
001F40
000D00
000000
07FFF0
0E07D0
0D1F40
003E00
00B800
01F900
006F40
000FC0
000FC0
240FC0
B41F80
747E00
2FE400
ENDCHAR
STARTCHAR uni01EF
ENCODING 495
SWIDTH 600 0
DWIDTH 11 0
BBX 9 18 0 -4
BITMAP
010140
019A00
00F400
009000
000000
2FFC00
75F400
22E000
07D000
0F8000
1F4000
0B8140
07C200
07E800
1BD000
A7D000
DB8000
7E0000
ENDCHAR
STARTCHAR uni01F4
ENCODING 500
SWIDTH 578 0
DWIDTH 10 0
BBX 10 21 0 -3
BITMAP
0000F0
0001D0
0002C0
000340
000000
00AF90
07E4B0
1F80A0
3F0000
7E0000
BD01E0
BC02D0
7D07D0
3E0FC0
1FEBC0
000B80
000F40
0BDF00
2C2E00
2C3D00
0BF400
ENDCHAR
STARTCHAR uni01F5
ENCODING 501
SWIDTH 507 0
DWIDTH 9 0
BBX 11 17 -1 -4
BITMAP
000780
000B00
001D00
000000
01FBE0
0BDBD0
1F47C0
2F0BC0
3E0F80
7D0F44
7E2F58
3FFF20
1FBF80
01FE00
0A7D00
09BC00
07E000
ENDCHAR
STARTCHAR Aringacute
ENCODING 506
SWIDTH 668 0
DWIDTH 12 0
BBX 14 20 0 -2
BITMAP
00000050
000001D0
00000780
00000D80
00000F40
00002F40
0001EF00
00076F00
000D3E00
00283D00
1BF97D00
B9F5FC00
B6D0BC00
03C0F800
0B81F400
0F41F400
1F02F000
1F03E000
1E000000
0A000000
ENDCHAR
STARTCHAR aringacute
ENCODING 507
SWIDTH 526 0
DWIDTH 9 0
BBX 11 15 -1 0
BITMAP
000140
000340
001A00
002200
002E00
000000
01FBE0
0BDBD0
1F47C0
2F0BC0
3E0F80
7D0F40
7D1F48
3FAFE4
1F8B90
ENDCHAR
STARTCHAR AEacute
ENCODING 508
SWIDTH 764 0
DWIDTH 14 0
BBX 16 20 0 -2
BITMAP
00000014
00000070
000000D0
00000140
00000000
00002F81
0001EFBE
00076F00
000D3E00
00283E00
1BF97D00
B9E5FFF0
B6D0BD50
13C0F800
0B81F400
0F41F400
1F02FFF0
1F03FFE0
1E000000
0A000000
ENDCHAR
STARTCHAR aeacute
ENCODING 509
SWIDTH 650 0
DWIDTH 12 0
BBX 12 13 0 0
BITMAP
0000B4
0001D0
000280
000000
07FAF8
187F9D
003F1D
003E78
2BFFD0
BDBD00
F4BD02
F9FE18
7E6F90
ENDCHAR
STARTCHAR Oslashacute
ENCODING 510
SWIDTH 658 0
DWIDTH 12 0
BBX 12 19 0 -1
BITMAP
00002C
000074
0000A0
000050
000000
000180
01AFD0
0BBEB8
39F73C
B2E33D
B7D63D
1BC97D
0F897C
0F8CB8
0F59F4
0F9AE0
0BEF80
02F900
002000
ENDCHAR
STARTCHAR oslashacute
ENCODING 511
SWIDTH 428 0
DWIDTH 8 0
BBX 10 14 -1 -1
BITMAP
000740
000E00
001C00
000000
01BD90
07DB40
1F4B00
2F1F00
3E7A00
7EDE00
7F5C00
3E7400
2F9000
900000
ENDCHAR
STARTCHAR uni0200
ENCODING 512
SWIDTH 668 0
DWIDTH 12 0
BBX 13 20 0 -2
BITMAP
00075D00
0001CB00
0000A240
00000000
00000000
00002F40
0001AF40
00076F00
000D3E00
00283E00
1BF97D00
B9F5FC00
B6D0BC00
03C0F800
0B81F400
0F41F400
1F02F000
1F03E000
1E000000
0A000000
ENDCHAR
STARTCHAR uni0201
ENCODING 513
SWIDTH 526 0
DWIDTH 9 0
BBX 11 13 -1 0
BITMAP
075D00
01CB00
00A240
000000
01FBE0
0BDBD0
1F47C0
2F0BC0
3E0F80
7D0F40
7D1F48
3FAFE4
1F8B90
ENDCHAR
STARTCHAR uni0202
ENCODING 514
SWIDTH 668 0
DWIDTH 12 0
BBX 15 19 0 -2
BITMAP
00001BD0
000075B4
00009024
00000000
00002F40
0001AF40
00076F00
000D3E00
00283E00
1BF97D00
B9F5FC00
B6D0BC00
03C0F800
0B81F400
0F41F400
1F02F000
1F03E000
1E000000
0A000000
ENDCHAR
STARTCHAR uni0203
ENCODING 515
SWIDTH 526 0
DWIDTH 9 0
BBX 11 12 -1 0
BITMAP
006F80
01D1E0
000000
01FBE0
0BDBD0
1F47C0
2F0BC0
3E0F80
7D0F40
7D1F48
3FAFE4
1F8B90
ENDCHAR
STARTCHAR uni0204
ENCODING 516
SWIDTH 459 0
DWIDTH 8 0
BBX 9 18 0 0
BITMAP
0B2C00
028E00
00D300
000000
000000
00BE00
02E280
07C280
0B8240
07C000
03E000
1F8000
3F0000
BD0000
BD0040
BE0240
7FFD00
1FE000
ENDCHAR
STARTCHAR uni0205
ENCODING 517
SWIDTH 384 0
DWIDTH 7 0
BBX 8 13 -1 0
BITMAP
1DB4
0B28
0249
0000
01FD
0BDE
1F4D
2E2C
3FE0
7E00
7E02
3FA8
1BE0
ENDCHAR
STARTCHAR uni0206
ENCODING 518
SWIDTH 459 0
DWIDTH 8 0
BBX 10 17 0 0
BITMAP
002F90
00B5F0
019060
000000
00BE00
02E280
07C280
0B8240
07C000
03E000
1F8000
3F0000
BD0000
BD0040
BE0240
7FFD00
1FE000
ENDCHAR
STARTCHAR uni0207
ENCODING 519
SWIDTH 384 0
DWIDTH 7 0
BBX 9 12 -1 0
BITMAP
02FD00
0B4B40
040100
01FD00
0BDE00
1F4D00
2E2C00
3FE000
7E0000
7D0200
3E1900
1BE000
ENDCHAR
STARTCHAR uni0208
ENCODING 520
SWIDTH 375 0
DWIDTH 7 0
BBX 8 18 0 0
BITMAP
1DB4
0A28
0249
0000
0000
01BC
09F8
34F8
B1F4
E1F0
62F0
03E0
03D0
07D0
0BC0
0B80
0F80
1F40
ENDCHAR
STARTCHAR uni0209
ENCODING 521
SWIDTH 267 0
DWIDTH 5 0
BBX 8 13 -2 0
BITMAP
75D0
2CA0
0924
0000
03E0
03D0
07D0
0BC0
0BC0
0F80
0F49
0FE8
07D0
ENDCHAR
STARTCHAR uni020A
ENCODING 522
SWIDTH 375 0
DWIDTH 7 0
BBX 9 17 0 0
BITMAP
00BE00
039780
060180
000000
01BC00
0AF800
38F800
B1F400
F1F000
A2F000
03E000
03D000
07D000
0BC000
0B8000
0F8000
1F4000
ENDCHAR
STARTCHAR uni020B
ENCODING 523
SWIDTH 267 0
DWIDTH 5 0
BBX 6 12 0 0
BITMAP
2F80
E1D0
0000
3E00
3D00
7D00
BC00
BC00
F800
F490
FE80
7D00
ENDCHAR
STARTCHAR uni020C
ENCODING 524
SWIDTH 665 0
DWIDTH 12 0
BBX 12 18 0 0
BITMAP
01E740
0071C0
0018A0
000000
000000
006FE0
07957C
2D7D2E
74F42E
B2F02E
77D02E
0BC03E
0BC07D
0F80BC
0F80F4
0F82E0
0BEBC0
02FE00
ENDCHAR
STARTCHAR uni020D
ENCODING 525
SWIDTH 433 0
DWIDTH 8 0
BBX 11 13 -1 0
BITMAP
2DB000
0A2800
024D00
000000
01F800
0BDA00
1F4F68
2E0F90
3E0E00
7D0D00
7D2C00
3FB400
1F9000
ENDCHAR
STARTCHAR uni020E
ENCODING 526
SWIDTH 665 0
DWIDTH 12 0
BBX 12 17 0 0
BITMAP
0006F8
001E5D
001809
000000
006FE0
07957C
2D7D2E
74F42E
B2F02E
77D02E
0BC03E
0BC07D
0F80BC
0F80F4
0F82E0
0BEBC0
02FE00
ENDCHAR
STARTCHAR uni020F
ENCODING 527
SWIDTH 433 0
DWIDTH 8 0
BBX 11 12 -1 0
BITMAP
01BE00
074780
010140
01F800
0BDA00
1F4E18
2F0F90
3E0A00
7D0D00
7D1C00
3E7400
1F9000
ENDCHAR
STARTCHAR uni0210
ENCODING 528
SWIDTH 601 0
DWIDTH 11 0
BBX 11 18 0 0
BITMAP
076D00
028A00
009240
000000
000000
01BF90
1F55F4
78F874
B1F4B4
E1F1D0
62FFD0
03E7E0
03D2E0
07D2E0
0BC3D0
0B87C0
0F8BC0
1F47D0
ENDCHAR
STARTCHAR uni0211
ENCODING 529
SWIDTH 376 0
DWIDTH 7 0
BBX 8 13 -1 0
BITMAP
79D0
1C70
0A28
0000
0FAE
0FEF
1F49
2F00
2F00
3E00
3D00
7D00
BC00
ENDCHAR
STARTCHAR uni0212
ENCODING 530
SWIDTH 601 0
DWIDTH 11 0
BBX 11 17 0 0
BITMAP
002F90
00B5F0
019060
000000
01BF90
1F55F4
78F874
B1F4B4
E1F1D0
62FFD0
03E7E0
03D2E0
07D2E0
0BC3D0
0B87C0
0F8BC0
1F47D0
ENDCHAR
STARTCHAR uni0213
ENCODING 531
SWIDTH 376 0
DWIDTH 7 0
BBX 9 12 -1 0
BITMAP
02FE00
0B4740
000000
0FAE00
0FEF00
1F4900
2F0000
2F0000
3E0000
3D0000
7D0000
BC0000
ENDCHAR
STARTCHAR uni0214
ENCODING 532
SWIDTH 716 0
DWIDTH 13 0
BBX 14 18 0 0
BITMAP
002CB000
000A3800
00034C00
00000000
00000000
01BD03D0
1EBD07D0
74BC0BC0
F0F80BC0
E0F40F80
A1F01F40
02E01F00
03E02F00
03D03E00
07C07D00
07D0F800
03FBF000
01BF8000
ENDCHAR
STARTCHAR uni0215
ENCODING 533
SWIDTH 505 0
DWIDTH 9 0
BBX 10 13 0 0
BITMAP
79D000
1C7000
0A2400
000000
3E1F00
3D2F00
7D3E00
BC3E00
BC7D00
F8BC10
F8FC60
FFBEC0
7D2E00
ENDCHAR
STARTCHAR uni0216
ENCODING 534
SWIDTH 716 0
DWIDTH 13 0
BBX 14 17 0 0
BITMAP
0001BE00
00079780
00060280
00000000
01BD03D0
1EBD07D0
74BC0BC0
F0F80BC0
E0F40F80
A1F01F40
02E01F00
03E02F00
03D03E00
07C07D00
07D0F800
03FBF000
01BF8000
ENDCHAR
STARTCHAR uni0217
ENCODING 535
SWIDTH 505 0
DWIDTH 9 0
BBX 10 12 0 0
BITMAP
06F900
0E0B00
000000
3E1F00
3D2F00
7D3E00
BC3E00
BC7D00
F8BC10
F8FC60
FFBEC0
7D2E00
ENDCHAR
STARTCHAR Scommaaccent
ENCODING 536
SWIDTH 570 0
DWIDTH 10 0
BBX 10 17 0 -4
BITMAP
007F80
02E5E0
07D0F0
07E1E0
03F400
01FD00
007F00
051F80
2E4BC0
7C07D0
780BC0
3D6F40
0BF800
000000
038000
028000
024000
ENDCHAR
STARTCHAR scommaaccent
ENCODING 537
SWIDTH 382 0
DWIDTH 7 0
BBX 9 14 -1 -4
BITMAP
016400
02F400
03F400
06F400
09F800
14F800
78F940
A0FE00
62F400
2F9000
000000
0E0000
0A0000
090000
ENDCHAR
STARTCHAR uni021A
ENCODING 538
SWIDTH 481 0
DWIDTH 9 0
BBX 13 17 0 -4
BITMAP
06FF9080
1D6FFF80
743FAE00
B03E0000
E07D0000
A0BD0000
10BC0000
00F80000
01F40000
01F40000
02F00000
03E00000
03E00000
00000000
03800000
02800000
02400000
ENDCHAR
STARTCHAR uni021B
ENCODING 539
SWIDTH 267 0
DWIDTH 5 0
BBX 6 16 0 -4
BITMAP
0A40
1F00
2F00
7F80
3E00
7D00
7C00
BC00
F800
F490
FE80
7E00
0000
A000
B000
9000
ENDCHAR
STARTCHAR uni021E
ENCODING 542
SWIDTH 665 0
DWIDTH 12 0
BBX 13 19 0 0
BITMAP
00010140
00009A00
0000F800
0000A000
00000000
00000000
01BC1F40
09BC1F00
34F82F00
B1F43E00
B1F47D00
62FFFD00
02E5BC00
03E0BC00
07D0F800
07C1F400
0BC1F400
0F82F000
0F43E000
ENDCHAR
STARTCHAR uni021F
ENCODING 543
SWIDTH 600 0
DWIDTH 11 0
BBX 11 17 -1 0
BITMAP
000404
000974
0007D0
000340
015000
07D000
07C000
0BC000
0FEE00
0F9F80
1F4F80
2F0F80
2E1F40
3E1F00
3D2F08
7D2F20
BC0B90
ENDCHAR
STARTCHAR uni0237
ENCODING 567
SWIDTH 240 0
DWIDTH 4 0
BBX 9 13 -4 -4
BITMAP
003E00
003E00
007D00
00BC00
00BC00
00F840
01F480
01F600
02F800
1FE000
67E000
ABC000
6E4000
ENDCHAR
STARTCHAR uni0259
ENCODING 601
SWIDTH 404 0
DWIDTH 7 0
BBX 7 9 0 0
BITMAP
1BE0
25F8
00BC
0BFC
3DF8
B1F4
E2F0
E7D0
7E00
ENDCHAR
STARTCHAR uni0292
ENCODING 658
SWIDTH 442 0
DWIDTH 8 0
BBX 9 13 0 -4
BITMAP
2FFC00
75F400
22E000
07D000
0F8000
1F4000
0B8140
07C200
07E800
1BD000
A7D000
DB8000
7E0000
ENDCHAR
STARTCHAR uni02BB
ENCODING 699
SWIDTH 241 0
DWIDTH 4 0
BBX 3 4 2 9
BITMAP
14
70
B8
74
ENDCHAR
STARTCHAR uni02BC
ENCODING 700
SWIDTH 228 0
DWIDTH 4 0
BBX 2 4 3 10
BITMAP
E0
E0
90
80
ENDCHAR
STARTCHAR circumflex
ENCODING 710
SWIDTH 293 0
DWIDTH 5 0
BBX 5 4 0 10
BITMAP
0100
0780
1E80
6080
ENDCHAR
STARTCHAR caron
ENCODING 711
SWIDTH 294 0
DWIDTH 5 0
BBX 5 4 2 10
BITMAP
4040
DA00
B800
6000
ENDCHAR
STARTCHAR uni02C9
ENCODING 713
SWIDTH 421 0
DWIDTH 8 0
BBX 6 1 2 11
BITMAP
BFF0
ENDCHAR
STARTCHAR uni02CA
ENCODING 714
SWIDTH 256 0
DWIDTH 5 0
BBX 4 4 2 10
BITMAP
19
2C
74
90
ENDCHAR
STARTCHAR uni02CB
ENCODING 715
SWIDTH 274 0
DWIDTH 5 0
BBX 2 3 3 10
BITMAP
E0
70
30
ENDCHAR
STARTCHAR breve
ENCODING 728
SWIDTH 431 0
DWIDTH 8 0
BBX 7 3 1 10
BITMAP
5014
B4B4
2F90
ENDCHAR
STARTCHAR dotaccent
ENCODING 729
SWIDTH 250 0
DWIDTH 5 0
BBX 3 3 1 11
BITMAP
64
F8
B4
ENDCHAR
STARTCHAR ring
ENCODING 730
SWIDTH 156 0
DWIDTH 3 0
BBX 3 3 0 10
BITMAP
74
D8
B4
ENDCHAR
STARTCHAR ogonek
ENCODING 731
SWIDTH 291 0
DWIDTH 5 0
BBX 4 4 1 -4
BITMAP
20
D0
D1
BD
ENDCHAR
STARTCHAR tilde
ENCODING 732
SWIDTH 403 0
DWIDTH 7 0
BBX 7 2 1 10
BITMAP
6FA4
ABE0
ENDCHAR
STARTCHAR hungarumlaut
ENCODING 733
SWIDTH 436 0
DWIDTH 8 0
BBX 6 3 2 10
BITMAP
38E0
A280
C700
ENDCHAR
STARTCHAR gravecomb
ENCODING 768
SWIDTH 0 0
DWIDTH 0 0
BBX 2 3 -3 10
BITMAP
E0
70
30
ENDCHAR
STARTCHAR acutecomb
ENCODING 769
SWIDTH 0 0
DWIDTH 0 0
BBX 4 4 -4 10
BITMAP
05
1D
28
60
ENDCHAR
STARTCHAR uni0302
ENCODING 770
SWIDTH 0 0
DWIDTH 0 0
BBX 5 4 -5 10
BITMAP
0100
0780
1E80
6080
ENDCHAR
STARTCHAR tildecomb
ENCODING 771
SWIDTH 0 0
DWIDTH 0 0
BBX 8 2 -7 10
BITMAP
1FE9
6AF4
ENDCHAR
STARTCHAR uni0304
ENCODING 772
SWIDTH 0 0
DWIDTH 0 0
BBX 7 1 -6 11
BITMAP
7FF8
ENDCHAR
STARTCHAR uni0306
ENCODING 774
SWIDTH 0 0
DWIDTH 0 0
BBX 7 3 -6 10
BITMAP
5014
7474
2F90
ENDCHAR
STARTCHAR uni0307
ENCODING 775
SWIDTH 0 0
DWIDTH 0 0
BBX 3 3 -2 11
BITMAP
A4
F8
B4
ENDCHAR
STARTCHAR uni0308
ENCODING 776
SWIDTH 0 0
DWIDTH 0 0
BBX 6 2 -5 10
BITMAP
B1D0
B1D0
ENDCHAR
STARTCHAR hookabovecomb
ENCODING 777
SWIDTH 0 0
DWIDTH 0 0
BBX 4 4 -4 10
BITMAP
B8
5D
09
60
ENDCHAR
STARTCHAR uni030A
ENCODING 778
SWIDTH 0 0
DWIDTH 0 0
BBX 4 3 -3 10
BITMAP
2D
6A
3D
ENDCHAR
STARTCHAR uni030B
ENCODING 779
SWIDTH 0 0
DWIDTH 0 0
BBX 6 3 -5 10
BITMAP
38E0
A280
C700
ENDCHAR
STARTCHAR uni030C
ENCODING 780
SWIDTH 0 0
DWIDTH 0 0
BBX 5 4 -4 10
BITMAP
4040
DA00
B800
6000
ENDCHAR
STARTCHAR uni030F
ENCODING 783
SWIDTH 0 0
DWIDTH 0 0
BBX 6 3 -6 10
BITMAP
B2C0
28D0
0C70
ENDCHAR
STARTCHAR uni0311
ENCODING 785
SWIDTH 0 0
DWIDTH 0 0
BBX 6 3 -6 10
BITMAP
1B90
B5B0
9060
ENDCHAR
STARTCHAR uni031B
ENCODING 795
SWIDTH 0 0
DWIDTH 0 0
BBX 3 4 -2 8
BITMAP
34
34
60
80
ENDCHAR
STARTCHAR dotbelowcomb
ENCODING 803
SWIDTH 0 0
DWIDTH 0 0
BBX 4 3 -4 -4
BITMAP
28
7D
2D
ENDCHAR
STARTCHAR uni0324
ENCODING 804
SWIDTH 0 0
DWIDTH 0 0
BBX 6 2 -8 -4
BITMAP
B5D0
B1D0
ENDCHAR
STARTCHAR uni0326
ENCODING 806
SWIDTH 0 0
DWIDTH 0 0
BBX 2 3 -4 -4
BITMAP
D0
E0
80
ENDCHAR
STARTCHAR uni0327
ENCODING 807
SWIDTH 0 0
DWIDTH 0 0
BBX 4 4 -6 -4
BITMAP
20
79
1E
F8
ENDCHAR
STARTCHAR uni0328
ENCODING 808
SWIDTH 0 0
DWIDTH 0 0
BBX 5 4 -7 -4
BITMAP
1800
3000
7440
3E00
ENDCHAR
STARTCHAR uni032E
ENCODING 814
SWIDTH 0 0
DWIDTH 0 0
BBX 6 3 -8 -3
BITMAP
5050
75D0
2E40
ENDCHAR
STARTCHAR uni0331
ENCODING 817
SWIDTH 0 0
DWIDTH 0 0
BBX 6 1 -8 -3
BITMAP
FFE0
ENDCHAR
STARTCHAR uni0335
ENCODING 821
SWIDTH 0 0
DWIDTH 0 0
BBX 6 1 -7 4
BITMAP
BFF0
ENDCHAR
STARTCHAR uni0394
ENCODING 916
SWIDTH 619 0
DWIDTH 11 0
BBX 11 15 0 -1
BITMAP
000040
0007D0
000BD0
001EE0
0038E0
0070F0
00E0F0
02C0B0
0740B4
0A0074
1D0078
380038
B4003C
BFFFFC
555554
ENDCHAR
STARTCHAR uni03A9
ENCODING 937
SWIDTH 745 0
DWIDTH 13 0
BBX 13 15 0 -1
BITMAP
00019000
002FFD00
00B41F00
02C00740
07400380
0A000380
0D000340
1D000740
1D000B00
1D000D00
0E002800
07007000
0282D000
7FC3FE00
15415400
ENDCHAR
STARTCHAR uni03BC
ENCODING 956
SWIDTH 505 0
DWIDTH 9 0
BBX 12 12 -2 -3
BITMAP
03E1F0
03D2F0
07D3E0
0BC3E0
0BC7D0
0F87C0
0F8FC6
1FEBE8
2FD2E4
2E0000
3E0000
690000
ENDCHAR
STARTCHAR pi
ENCODING 960
SWIDTH 530 0
DWIDTH 10 0
BBX 10 9 0 0
BITMAP
FFFFD0
6D5E40
281D00
341C00
342800
703800
B03400
A07400
D03800
ENDCHAR
STARTCHAR uni0400
ENCODING 1024
SWIDTH 459 0
DWIDTH 8 0
BBX 9 17 0 0
BITMAP
003800
002C00
000C00
000000
00BE00
02E280
07C280
0B8240
07C000
03E000
1F8000
3F0000
BD0000
BD0040
BE0240
7FFD00
1FE000
ENDCHAR
STARTCHAR uni0401
ENCODING 1025
SWIDTH 459 0
DWIDTH 8 0
BBX 10 16 0 0
BITMAP
00B5D0
00B5D0
000000
00BE00
02E280
07C280
0B8240
07C000
03E000
1F8000
3F0000
BD0000
BD0040
BE0240
7FFD00
1FE000
ENDCHAR
STARTCHAR uni0402
ENCODING 1026
SWIDTH 725 0
DWIDTH 13 0
BBX 13 16 0 -3
BITMAP
06FFFFC0
2D6FAE40
742E0000
B03E0000
B07D0000
607EF800
00BD7E00
00F82E00
00F43E00
01F43D00
02F07D00
02F0BC00
03E0B800
0001F000
0002D000
003F4000
ENDCHAR
STARTCHAR uni0403
ENCODING 1027
SWIDTH 400 0
DWIDTH 7 0
BBX 12 18 0 0
BITMAP
000014
000074
0000A0
0000C0
000000
02BFFD
1EBEB8
78F800
B4F800
B1F400
72F000
02F000
03E000
07D000
07D000
0BC000
0F8000
0F8000
ENDCHAR
STARTCHAR uni0404
ENCODING 1028
SWIDTH 497 0
DWIDTH 9 0
BBX 10 13 0 0
BITMAP
00BF80
03F5D0
0BC0E0
1F8190
2F0000
3FFD00
7E0000
BD0000
BD0000
BD0000
7E0050
3F4640
1BF800
ENDCHAR
STARTCHAR uni0405
ENCODING 1029
SWIDTH 570 0
DWIDTH 10 0
BBX 10 13 0 0
BITMAP
007F80
02E5E0
07D0F0
07E1E0
03F400
01FD00
007F00
051F80
2E4BC0
7C07D0
780BC0
3D6F40
0BF800
ENDCHAR
STARTCHAR uni0406
ENCODING 1030
SWIDTH 374 0
DWIDTH 7 0
BBX 7 13 0 0
BITMAP
01BC
0ABC
38F8
B0F4
B1F4
72F0
02E0
03E0
07D0
07C0
0BC0
0F80
0F80
ENDCHAR
STARTCHAR uni0407
ENCODING 1031
SWIDTH 375 0
DWIDTH 7 0
BBX 9 16 0 0
BITMAP
01D780
01D380
000000
01BC00
0AF800
38F800
B1F400
F1F000
A2F000
03E000
03D000
07D000
0BC000
0B8000
0F8000
1F4000
ENDCHAR
STARTCHAR uni0408
ENCODING 1032
SWIDTH 536 0
DWIDTH 10 0
BBX 11 16 0 -3
BITMAP
0006F4
002EF0
00B2F0
01D3E0
02C7D0
01C7C0
000BC0
000F80
001F40
001F40
002F00
003E00
2F7E00
B07D00
B0B800
2FE000
ENDCHAR
STARTCHAR uni0409
ENCODING 1033
SWIDTH 817 0
DWIDTH 15 0
BBX 15 15 -1 -2
BITMAP
0000BD00
0007BC00
001CBC00
0074F800
00E0F400
02D1FBE0
0782F5F8
0B42E0BC
1F03E07C
2D07D0BC
3D07D0F8
7C0BEFF0
B80F9F80
78000000
14000000
ENDCHAR
STARTCHAR uni040A
ENCODING 1034
SWIDTH 931 0
DWIDTH 17 0
BBX 16 13 0 0
BITMAP
01BC1F40
0ABC1F00
38F82F00
B0F43E00
B1F43D00
62FFFEF8
02E0BD7E
03E0B81F
07D0F81F
07C1F42F
0BC1F43E
0F82FBFC
0F43E7E4
ENDCHAR
STARTCHAR uni040B
ENCODING 1035
SWIDTH 745 0
DWIDTH 13 0
BBX 13 13 0 0
BITMAP
06FFFFC0
2D6FAE40
742E0000
B03E0000
B07D0000
607EB800
00BD7E00
00F82E00
00F43E00
01F43E00
02F07D00
02F07C00
03E07D00
ENDCHAR
STARTCHAR uni040C
ENCODING 1036
SWIDTH 635 0
DWIDTH 11 0
BBX 12 18 0 0
BITMAP
000014
000074
0000A0
0000C0
000000
01BC2F
1EBCBF
38FA80
B0FB00
B1FD00
22FF90
02E2E0
03E2F0
07D2E0
07C3D0
0BC7D0
0F87C0
0F47D0
ENDCHAR
STARTCHAR uni040D
ENCODING 1037
SWIDTH 705 0
DWIDTH 13 0
BBX 13 17 0 0
BITMAP
0002C000
0001D000
00009000
00000000
01BC0BC0
0ABC1FC0
38F82F80
B0F47F40
B1F4FF40
72F2EF00
02F76E00
03EA3E00
07EC7D00
07F47C00
0BF0BC00
0FD0F800
0F80F400
ENDCHAR
STARTCHAR uni040E
ENCODING 1038
SWIDTH 644 0
DWIDTH 12 0
BBX 13 17 0 0
BITMAP
00078140
00078600
0002F800
00000000
01BD0280
0ABE0340
383F0600
B42F0D00
B01F5C00
701FA400
000FF000
000BE000
0007C000
00038000
00534000
01FA0000
00B80000
ENDCHAR
STARTCHAR uni040F
ENCODING 1039
SWIDTH 665 0
DWIDTH 12 0
BBX 13 19 0 -6
BITMAP
01BC1F40
0ABC1F00
38F82F00
B0F43E00
B1F43D00
72F07D00
02E0BC00
03E0BC00
07D0F800
07C1F400
0BC1F400
0F96F000
0FFFE000
00500000
00E00000
00F40000
00B80000
00380000
00200000
ENDCHAR
STARTCHAR uni0410
ENCODING 1040
SWIDTH 668 0
DWIDTH 12 0
BBX 13 15 0 -2
BITMAP
00002F40
0001AF40
00076F00
000D3E00
00283E00
1BF97D00
B9F5FC00
B6D0BC00
03C0F800
0B81F400
0F41F400
1F02F000
1F03E000
1E000000
0A000000
ENDCHAR
STARTCHAR uni0411
ENCODING 1041
SWIDTH 638 0
DWIDTH 11 0
BBX 12 13 0 0
BITMAP
06FFFD
2DFAB8
70F400
B1F400
E2F000
62FB90
03E2F4
07D0F8
07C0F8
0BC0F4
0F82F0
0F7FE0
1F6F40
ENDCHAR
STARTCHAR uni0412
ENCODING 1042
SWIDTH 641 0
DWIDTH 12 0
BBX 11 13 0 0
BITMAP
01BF90
0B55B4
3CB878
B4F474
B1F5E0
72FFE0
02E1F8
03E0BC
07D0BC
07C0B8
0BC1F4
0FAFE0
0F5F80
ENDCHAR
STARTCHAR uni0413
ENCODING 1043
SWIDTH 400 0
DWIDTH 7 0
BBX 12 13 0 0
BITMAP
02BFFD
1EBEB8
78F800
B4F800
B1F400
72F000
02F000
03E000
07D000
07D000
0BC000
0F8000
0F8000
ENDCHAR
STARTCHAR uni0414
ENCODING 1044
SWIDTH 669 0
DWIDTH 12 0
BBX 13 13 -1 0
BITMAP
006FE400
02D56E00
0E2E0F40
2D3E0F80
2C7D0B80
1CBC0F80
00BC0F80
00F80F40
01F41F00
1FF42E00
76F07D00
67F1F400
2F9BD000
ENDCHAR
STARTCHAR uni0415
ENCODING 1045
SWIDTH 459 0
DWIDTH 8 0
BBX 9 13 0 0
BITMAP
00BE00
02E280
07C280
0B8240
07C000
03E000
1F8000
3F0000
BD0000
BD0040
BE0240
7FFD00
1FE000
ENDCHAR
STARTCHAR uni0416
ENCODING 1046
SWIDTH 777 0
DWIDTH 14 0
BBX 16 13 -1 0
BITMAP
02E0682E
07B4F8EE
0029F680
0019F700
001AFA00
001BE900
01FFFF80
07D7D7E0
0F8BC3D0
0F4BC3D0
1F0F87C0
2F1F4B80
7D1F0BC0
ENDCHAR
STARTCHAR uni0417
ENCODING 1047
SWIDTH 525 0
DWIDTH 9 0
BBX 9 13 0 0
BITMAP
01BE00
091F80
140FC0
000F80
002F00
03F800
007E00
002F40
001F40
B02F40
E03F00
F0BD00
6FE000
ENDCHAR
STARTCHAR uni0418
ENCODING 1048
SWIDTH 705 0
DWIDTH 13 0
BBX 13 13 0 0
BITMAP
01BC0BC0
0ABC1FC0
38F82F80
B0F47F40
B1F4FF40
72F2EF00
02F76E00
03EA3E00
07EC7D00
07F47C00
0BF0BC00
0FD0F800
0F80F400
ENDCHAR
STARTCHAR uni0419
ENCODING 1049
SWIDTH 705 0
DWIDTH 13 0
BBX 13 17 0 0
BITMAP
00074200
000B5A00
0006F400
00000000
01BC0BC0
0ABC1FC0
38F82F80
B0F47F40
B1F4FF40
72F2EF00
02F76E00
03EA3E00
07EC7D00
07F47C00
0BF0BC00
0FD0F800
0F80F400
ENDCHAR
STARTCHAR uni041A
ENCODING 1050
SWIDTH 635 0
DWIDTH 11 0
BBX 12 13 0 0
BITMAP
01BC2F
1EBCBF
38FA80
B0FB00
B1FD00
22FF90
02E2E0
03E2F0
07D2E0
07C3D0
0BC7D0
0F87C0
0F47D0
ENDCHAR
STARTCHAR uni041B
ENCODING 1051
SWIDTH 549 0
DWIDTH 10 0
BBX 12 15 -1 -2
BITMAP
0000BD
0007BC
001DBC
0034F8
00B0F4
02D1F4
0382F0
0B42E0
1F03E0
2E07D0
3D07C0
7C0BC0
780F80
780000
280000
ENDCHAR
STARTCHAR uni041C
ENCODING 1052
SWIDTH 787 0
DWIDTH 14 0
BBX 14 13 1 0
BITMAP
01BD07D0
09BD0BD0
38FD1FC0
B1FD2FC0
B2FC3F80
73FC7F80
07BCEF80
0A7DDF40
0DBE9F40
1CBF6F00
38BE2F00
74BD2E00
A0BC3E00
ENDCHAR
STARTCHAR uni041D
ENCODING 1053
SWIDTH 665 0
DWIDTH 12 0
BBX 13 13 0 0
BITMAP
01BC1F40
09BC1F00
34F82F00
B1F43E00
B1F47D00
62FFFD00
02E5BC00
03E0BC00
07D0F800
07C1F400
0BC1F400
0F82F000
0F43E000
ENDCHAR
STARTCHAR uni041E
ENCODING 1054
SWIDTH 665 0
DWIDTH 12 0
BBX 12 13 0 0
BITMAP
006FE0
07957C
2D7D2E
74F42E
B2F02E
77D02E
0BC03E
0BC07D
0F80BC
0F80F4
0F82E0
0BEBC0
02FE00
ENDCHAR
STARTCHAR uni041F
ENCODING 1055
SWIDTH 688 0
DWIDTH 12 0
BBX 14 13 0 0
BITMAP
06FFFFF0
1EBDBFE0
74F82F00
B0F43E00
B1F43D00
72F07D00
02E0BC00
03E0B800
07D0F800
07C1F400
0BC1F400
0F82F000
0F43E000
ENDCHAR
STARTCHAR uni0420
ENCODING 1056
SWIDTH 573 0
DWIDTH 10 0
BBX 11 13 0 0
BITMAP
01BF80
0A41F0
38B8B8
B0F478
F1F4B8
A2F0F0
13E2D0
03EA40
07D000
0BC000
0BC000
0F8000
1F4000
ENDCHAR
STARTCHAR uni0421
ENCODING 1057
SWIDTH 497 0
DWIDTH 9 0
BBX 10 13 0 0
BITMAP
00BF80
03F5D0
0BD0E0
1F81D0
2F4000
3F0000
7E0000
BD0000
BD0000
BD0000
7E0040
3F4640
1BF900
ENDCHAR
STARTCHAR uni0422
ENCODING 1058
SWIDTH 481 0
DWIDTH 9 0
BBX 13 13 0 0
BITMAP
06FF9080
1D6FFF80
743FAE00
B03E0000
E07D0000
A0BD0000
10BC0000
00F80000
01F40000
01F40000
02F00000
03E00000
03E00000
ENDCHAR
STARTCHAR uni0423
ENCODING 1059
SWIDTH 644 0
DWIDTH 12 0
BBX 13 13 0 0
BITMAP
01BD0280
0ABE0340
383F0600
B42F0D00
B01F5C00
701FA400
000FF000
000BE000
0007C000
00038000
00534000
01FA0000
00B80000
ENDCHAR
STARTCHAR uni0424
ENCODING 1060
SWIDTH 786 0
DWIDTH 14 0
BBX 14 15 0 0
BITMAP
01AFE000
0B97E000
0B03D000
0607D000
01AFEE00
0B4BC780
3D0F83D0
7C1F42E0
BC1F43D0
BC2F07D0
7C3E0B80
3E3E2F00
0BFFF400
007D0000
00BC0000
ENDCHAR
STARTCHAR uni0425
ENCODING 1061
SWIDTH 620 0
DWIDTH 11 0
BBX 11 13 0 0
BITMAP
01BD1C
0ABD24
387E60
B03FD0
F02F80
A02F40
001F80
001F80
003FC0
00ABD0
00C7D0
0247E0
0603E0
ENDCHAR
STARTCHAR uni0426
ENCODING 1062
SWIDTH 692 0
DWIDTH 12 0
BBX 13 16 0 -3
BITMAP
01BC1F40
0ABC1F00
38F82F00
B4F43E00
B1F43D00
72F07D00
02E0BC00
03E0B800
07D0F800
07D1F400
0BC1F400
0F92F000
0FFFE000
001FE540
0002FF80
00006E00
ENDCHAR
STARTCHAR uni0427
ENCODING 1063
SWIDTH 695 0
DWIDTH 13 0
BBX 13 13 0 0
BITMAP
01BC0BC0
1EBC0F80
38F80F40
B0F41F40
B1F42F00
21F47E00
00FFFE00
007FBD00
00007C00
0000BC00
0000F800
0000F800
0001F400
ENDCHAR
STARTCHAR uni0428
ENCODING 1064
SWIDTH 906 0
DWIDTH 16 0
BBX 17 13 0 0
BITMAP
01BC2F0F80
0ABC3E0F40
38F87D1F40
B0F47D2F00
B1F4BC2F00
72F0F83E00
02E0F87D00
03E1F47D00
07D2F0BC00
07C2F0F800
0BC3E0F800
0F97E6F400
0FFFFFF000
ENDCHAR
STARTCHAR uni0429
ENCODING 1065
SWIDTH 934 0
DWIDTH 17 0
BBX 17 16 0 -3
BITMAP
01BC2F0F80
0ABC3E0F40
38F87D1F40
B4F47D2F00
B1F4BC2F00
72F0F83E00
02E0F87D00
03E1F47D00
07D2F0BC00
07C2F0F800
0BC3E0F800
0F97D1F400
0FFFE6F000
0016FFF540
00001BFFC0
0000006F40
ENDCHAR
STARTCHAR uni042A
ENCODING 1066
SWIDTH 714 0
DWIDTH 13 0
BBX 13 13 0 0
BITMAP
01BF4000
191F4000
742F0000
B03E0000
B03E0000
747EF800
007D7E00
00BC1F00
00F81F40
00F41F00
01F43E00
02F7FD00
02E2E400
ENDCHAR
STARTCHAR uni042B
ENCODING 1067
SWIDTH 909 0
DWIDTH 16 0
BBX 17 13 0 0
BITMAP
01BC000B80
0ABC000F80
38F8001F40
B0F4001F00
B1F4002F00
62FB903E00
02E5F43D00
03E0B87D00
07D0BCBC00
07C0B8B800
0BC1F4F800
0FAFE1F400
0F5F81F000
ENDCHAR
STARTCHAR uni042C
ENCODING 1068
SWIDTH 640 0
DWIDTH 12 0
BBX 11 13 0 0
BITMAP
01BC00
0ABC00
38F800
B0F400
B1F400
62FB90
02E5F4
03E0B8
07D0BC
07C0B8
0BC1F4
0FAFE0
0F5F80
ENDCHAR
STARTCHAR uni042D
ENCODING 1069
SWIDTH 544 0
DWIDTH 10 0
BBX 11 13 -1 0
BITMAP
006F90
0247F0
0802F4
0001F8
0001F8
01FFF8
0002F4
0003F0
0007E0
280BD0
781F80
383E00
1AE400
ENDCHAR
STARTCHAR uni042E
ENCODING 1070
SWIDTH 946 0
DWIDTH 17 0
BBX 17 13 0 0
BITMAP
01BC0BF800
0ABC156F00
38F81F0B80
B0F47D0B80
B1F4BC0BC0
62FFF40B80
02E6F00F80
03E2F00F40
07D3E01F00
07C3E03E00
0BC3E0B800
0F82F6F000
0F40BF8000
ENDCHAR
STARTCHAR uni042F
ENCODING 1071
SWIDTH 630 0
DWIDTH 11 0
BBX 14 13 -1 0
BITMAP
001BFE00
00B917C0
02D1F5D0
03C1F5D0
03C2F000
01E3E000
01FFE000
07D7D000
0F8BC000
0F4BC000
1F0F8000
2E1F4000
7D1F4000
ENDCHAR
STARTCHAR uni0430
ENCODING 1072
SWIDTH 526 0
DWIDTH 9 0
BBX 11 9 -1 0
BITMAP
01FBE0
0BDBD0
1F47C0
2F0BC0
3E0F80
7D0F40
7D1F48
3FAFE4
1F8B90
ENDCHAR
STARTCHAR uni0431
ENCODING 1073
SWIDTH 430 0
DWIDTH 8 0
BBX 11 13 -1 0
BITMAP
00BFFC
00FFF4
00F400
007800
001D00
01BE00
0BDB00
2F4B00
3E0A00
3E0E00
7D1C00
3E2400
1BD000
ENDCHAR
STARTCHAR uni0432
ENCODING 1074
SWIDTH 449 0
DWIDTH 8 0
BBX 11 13 -1 0
BITMAP
006E00
01F740
02D340
07C300
0F8600
1F4D00
2F7D64
3E7F40
3E0B00
7D0B00
3D0E00
3E2C00
1BE000
ENDCHAR
STARTCHAR uni0433
ENCODING 1075
SWIDTH 375 0
DWIDTH 7 0
BBX 8 9 -1 0
BITMAP
06F4
18BC
20BC
02F8
0BE0
3F40
7E02
7E18
2FE0
ENDCHAR
STARTCHAR uni0434
ENCODING 1076
SWIDTH 507 0
DWIDTH 9 0
BBX 11 13 -1 -4
BITMAP
01FBE0
0BDBD0
1F47C0
2F0BC0
3E0F80
7D0F44
7E2F58
3FFF20
1FBF80
01FE00
0A7D00
09BC00
07E000
ENDCHAR
STARTCHAR uni0435
ENCODING 1077
SWIDTH 384 0
DWIDTH 7 0
BBX 8 9 -1 0
BITMAP
01FD
0BDE
1F4D
2E2C
3FE0
7E00
7D02
3E19
1BE0
ENDCHAR
STARTCHAR uni0436
ENCODING 1078
SWIDTH 882 0
DWIDTH 16 0
BBX 18 9 -1 0
BITMAP
0BD0B82F40
18F4F8B780
20B8F5E340
00B9F2D000
00BFFFC000
00F6E7C000
71F3D7C050
B2D3D3D240
6F47C1F900
ENDCHAR
STARTCHAR uni0437
ENCODING 1079
SWIDTH 498 0
DWIDTH 9 0
BBX 10 13 0 -4
BITMAP
06F800
187D00
203E00
503E00
807D00
81F410
0FD050
02F080
01FA00
06F400
29F400
36E000
1F8000
ENDCHAR
STARTCHAR uni0438
ENCODING 1080
SWIDTH 505 0
DWIDTH 9 0
BBX 10 9 0 0
BITMAP
3E1F00
3D2F00
7D3E00
BC3E00
BC7D00
F8BC10
F8FC60
FFBEC0
7D2E00
ENDCHAR
STARTCHAR uni0439
ENCODING 1081
SWIDTH 505 0
DWIDTH 9 0
BBX 10 13 0 0
BITMAP
074200
0B5A00
06F400
000000
3E1F00
3D2F00
7D3E00
BC3E00
BC7D00
F8BC10
F8FC60
FFBEC0
7D2E00
ENDCHAR
STARTCHAR uni043A
ENCODING 1082
SWIDTH 501 0
DWIDTH 9 0
BBX 11 9 -1 0
BITMAP
0F82D0
0F5ED0
1F7400
2FFE00
2F6F00
3E2F04
3D2E14
7D2FA0
BC0B80
ENDCHAR
STARTCHAR uni043B
ENCODING 1083
SWIDTH 558 0
DWIDTH 10 0
BBX 12 9 -1 0
BITMAP
001BF0
0036F0
0062E0
0093D0
0087D0
10C7C1
B58BC5
A24BF8
2E02E0
ENDCHAR
STARTCHAR uni043C
ENCODING 1084
SWIDTH 827 0
DWIDTH 15 0
BBX 17 9 -1 0
BITMAP
000B40FC00
003F42F800
006B43F400
009B8AF400
008B8DF000
10CBAAF040
B587B2E240
B247E2FA00
2E07C1F800
ENDCHAR
STARTCHAR uni043D
ENCODING 1085
SWIDTH 507 0
DWIDTH 9 0
BBX 11 9 -1 0
BITMAP
0F87D0
0F87C0
1F4B80
2F0B80
2FFF40
3E1F40
3D1F04
7D2F64
BC0B90
ENDCHAR
STARTCHAR uni043E
ENCODING 1086
SWIDTH 439 0
DWIDTH 8 0
BBX 11 9 -1 0
BITMAP
01B900
0BDA00
1F4B18
2F0F90
3E0A00
7E0E00
7D1D00
3E3800
1BD000
ENDCHAR
STARTCHAR uni043F
ENCODING 1087
SWIDTH 505 0
DWIDTH 9 0
BBX 11 9 -1 0
BITMAP
0FEE00
0F9F80
1F4F80
2F0F80
2E1F40
3E1F00
3D2F08
7D2F20
BC0B90
ENDCHAR
STARTCHAR uni0440
ENCODING 1088
SWIDTH 468 0
DWIDTH 8 0
BBX 10 14 -2 -4
BITMAP
019000
03FBD0
03E2E0
07D2F0
07C2F0
0B82E0
0F83E0
0F4BD0
1FAF80
2FBD00
2E0000
3E0000
7D0000
7C0000
ENDCHAR
STARTCHAR uni0441
ENCODING 1089
SWIDTH 384 0
DWIDTH 7 0
BBX 9 9 -1 0
BITMAP
01F800
0BDE00
1F4D00
2F0000
3E0000
7E0000
7D0140
3E1900
1BE000
ENDCHAR
STARTCHAR uni0442
ENCODING 1090
SWIDTH 752 0
DWIDTH 14 0
BBX 15 9 -1 0
BITMAP
0FEF6F40
0F9FDBC0
1F4F87C0
2F0F4BC0
2E1F4B80
3E2F0F80
3D2F0F48
7D3E0F58
BC3D07E0
ENDCHAR
STARTCHAR uni0443
ENCODING 1091
SWIDTH 486 0
DWIDTH 9 0
BBX 9 13 0 -4
BITMAP
3E1F00
3D2F00
7D3E00
BC3E00
BC7D00
F8BC00
F8FC80
FFF980
7EF900
0BF400
26F000
37E000
2F8000
ENDCHAR
STARTCHAR uni0444
ENCODING 1092
SWIDTH 738 0
DWIDTH 13 0
BBX 14 18 -1 -5
BITMAP
00005000
0001F000
0002E000
0003E000
01FBEF80
0BDBD7D0
1F4B83E0
2F0B83E0
3E0F43D0
7D1F0BD0
7E2F1F80
3FFFFF40
1FBEF900
003D0000
007C0000
007C0000
00B80000
00400000
ENDCHAR
STARTCHAR uni0445
ENCODING 1093
SWIDTH 522 0
DWIDTH 9 0
BBX 10 10 0 0
BITMAP
000280
07D3C0
19F1C0
21F640
50FE00
80F800
81F800
07B820
1D7D50
342E40
ENDCHAR
STARTCHAR uni0446
ENCODING 1094
SWIDTH 535 0
DWIDTH 10 0
BBX 9 13 0 -4
BITMAP
3E1F00
3D2F00
7D3E00
BC3E00
BC7D00
F8BC00
F8FC00
FFBE40
7D3E40
015700
0BFE00
0FF800
140000
ENDCHAR
STARTCHAR uni0447
ENCODING 1095
SWIDTH 505 0
DWIDTH 9 0
BBX 10 9 0 0
BITMAP
3E1F00
3D2F00
7D3E00
BC7D00
7EFD00
2EBC10
00BC50
00BFC0
002E00
ENDCHAR
STARTCHAR uni0448
ENCODING 1096
SWIDTH 752 0
DWIDTH 14 0
BBX 14 9 0 0
BITMAP
3E1F0F80
3D2F1F40
7D3E1F00
BC3E2F00
BC7D3E00
F8BC3E00
F8FC7D20
FFBEBFD0
7D2E2F40
ENDCHAR
STARTCHAR uni0449
ENCODING 1097
SWIDTH 782 0
DWIDTH 14 0
BBX 13 13 0 -4
BITMAP
3E1F0F80
3D2F1F40
7D3E1F00
BC3E2F00
BC7D3E00
F8BC3E00
F8FC7D00
FFBEBF80
7D2E2E80
00015680
0007FF00
000FFD00
00180000
ENDCHAR
STARTCHAR uni044A
ENCODING 1098
SWIDTH 448 0
DWIDTH 8 0
BBX 8 9 0 0
BITMAP
7FC0
A740
AE00
2EF8
7D7D
F83D
F87C
F9F4
6F90
ENDCHAR
STARTCHAR uni044B
ENCODING 1099
SWIDTH 655 0
DWIDTH 12 0
BBX 13 9 0 0
BITMAP
3E002800
3D01F800
7C0AF400
BDF4F400
B835F000
F836E000
F4B6E240
FAE3FA00
7F41F800
ENDCHAR
STARTCHAR uni044C
ENCODING 1100
SWIDTH 448 0
DWIDTH 8 0
BBX 8 9 0 0
BITMAP
3E00
3E00
7D50
BFFC
BC7D
F83D
F4BC
FEF4
6F90
ENDCHAR
STARTCHAR uni044D
ENCODING 1101
SWIDTH 413 0
DWIDTH 7 0
BBX 8 9 -1 0
BITMAP
06F8
187D
203E
003E
07FD
007C
A0B8
E1E0
7F80
ENDCHAR
STARTCHAR uni044E
ENCODING 1102
SWIDTH 675 0
DWIDTH 12 0
BBX 15 9 -1 0
BITMAP
0F81BD00
0F83D700
1F4B8748
2F1F4B90
2FFF0700
3E3E0A00
3D3E0D00
7D2F2800
BC1BE000
ENDCHAR
STARTCHAR uni044F
ENCODING 1103
SWIDTH 527 0
DWIDTH 9 0
BBX 11 9 -1 0
BITMAP
01BFE0
07D7D0
0B87C0
0B8BC0
07FF80
11CF44
B69F48
B74FF4
2E0BD0
ENDCHAR
STARTCHAR uni0450
ENCODING 1104
SWIDTH 384 0
DWIDTH 7 0
BBX 8 13 -1 0
BITMAP
00E0
00B0
0030
0000
01FD
0BDE
1F4D
2E2C
3FE0
7E00
7D02
3E19
1BE0
ENDCHAR
STARTCHAR uni0451
ENCODING 1105
SWIDTH 384 0
DWIDTH 7 0
BBX 9 12 -1 0
BITMAP
02D740
02D740
000000
01FD00
0BDE00
1F4D00
2E2C00
3FE000
7E0000
7D0200
3E1900
1BE000
ENDCHAR
STARTCHAR uni0452
ENCODING 1106
SWIDTH 491 0
DWIDTH 9 0
BBX 11 17 -1 -4
BITMAP
015000
07D000
07C000
2FFD00
0F8000
0FAE00
1F9F40
2F0F40
2E1F40
3E2F04
3D2E20
7D3E50
BC7E40
07FC00
0DB800
0DF400
07D000
ENDCHAR
STARTCHAR uni0453
ENCODING 1107
SWIDTH 375 0
DWIDTH 7 0
BBX 8 14 -1 0
BITMAP
0005
000E
002C
0034
0000
06F4
18BC
20BC
02F8
0BE0
3F40
7E02
7E18
2FE0
ENDCHAR
STARTCHAR uni0454
ENCODING 1108
SWIDTH 384 0
DWIDTH 7 0
BBX 8 9 -1 0
BITMAP
01F8
0BDE
1F4D
2F00
3FF0
7E00
7D01
3E19
1BE0
ENDCHAR
STARTCHAR uni0455
ENCODING 1109
SWIDTH 382 0
DWIDTH 7 0
BBX 9 10 -1 0
BITMAP
016400
02F400
03F400
06F400
09F800
14F800
78F940
A0FE00
62F400
2F9000
ENDCHAR
STARTCHAR uni0456
ENCODING 1110
SWIDTH 267 0
DWIDTH 5 0
BBX 6 12 0 0
BITMAP
0F00
1F40
0A00
3E00
3D00
7D00
BC00
BC00
F800
F490
FE80
7D00
ENDCHAR
STARTCHAR uni0457
ENCODING 1111
SWIDTH 267 0
DWIDTH 5 0
BBX 6 12 0 0
BITMAP
B5E0
75D0
0000
3E00
3D00
7D00
BC00
BC00
F800
F490
FE80
7D00
ENDCHAR
STARTCHAR uni0458
ENCODING 1112
SWIDTH 240 0
DWIDTH 4 0
BBX 9 16 -4 -4
BITMAP
001E00
002F40
000A00
003E00
003E00
007D00
00BC00
00BC00
00F840
01F480
01F600
02F800
1FE000
67E000
ABC000
6E4000
ENDCHAR
STARTCHAR uni0459
ENCODING 1113
SWIDTH 745 0
DWIDTH 13 0
BBX 14 9 -1 0
BITMAP
001BF000
0036F000
0062E500
00A3FFD0
00D7D3E0
00C7C2E0
758BC3D0
B747CB80
3E02F900
ENDCHAR
STARTCHAR uni045A
ENCODING 1114
SWIDTH 694 0
DWIDTH 12 0
BBX 13 9 -1 0
BITMAP
0F87D000
0F87C000
1F4B8000
2F0BFF00
2FFF9F80
3E1F4B80
3D1F0F40
7D1F2E00
BC0BE400
ENDCHAR
STARTCHAR uni045B
ENCODING 1115
SWIDTH 505 0
DWIDTH 9 0
BBX 11 13 -1 0
BITMAP
015000
07D000
07C000
2FFD00
0F8000
0F8000
1FAE00
2F9F40
2F0F40
3E1F40
3D2F04
7D2F24
BC0B90
ENDCHAR
STARTCHAR uni045C
ENCODING 1116
SWIDTH 501 0
DWIDTH 9 0
BBX 11 14 -1 0
BITMAP
000140
000740
000A00
001C00
000000
0F82D0
0F5ED0
1F7400
2FFE00
2F6F00
3E2F04
3D2E14
7D2FA0
BC0B80
ENDCHAR
STARTCHAR uni045D
ENCODING 1117
SWIDTH 505 0
DWIDTH 9 0
BBX 10 13 0 0
BITMAP
02C000
01D000
009000
000000
3E1F00
3D2F00
7D3E00
BC3E00
BC7D00
F8BC10
F8FC60
FFBEC0
7D2E00
ENDCHAR
STARTCHAR uni045E
ENCODING 1118
SWIDTH 486 0
DWIDTH 9 0
BBX 9 17 0 -4
BITMAP
074200
0B5A00
06F400
000000
3E1F00
3D2F00
7D3E00
BC3E00
BC7D00
F8BC00
F8FC80
FFF980
7EF900
0BF400
26F000
37E000
2F8000
ENDCHAR
STARTCHAR uni045F
ENCODING 1119
SWIDTH 505 0
DWIDTH 9 0
BBX 10 13 0 -4
BITMAP
3E1F00
3D2F00
7D3E00
BC3E00
BC7D00
F8BC10
F8FC60
FFBEC0
7D2E00
024000
07C000
03D000
028000
ENDCHAR
STARTCHAR uni0462
ENCODING 1122
SWIDTH 659 0
DWIDTH 12 0
BBX 11 13 0 0
BITMAP
00BC00
00F800
1BFFFC
B6FAE4
F2F000
B3FB90
03E2F4
07D0F8
07C0F8
0BC0F4
0F81F0
0F7FE0
1F6F80
ENDCHAR
STARTCHAR uni0463
ENCODING 1123
SWIDTH 692 0
DWIDTH 12 0
BBX 13 9 -1 0
BITMAP
0FEE0000
0F9F8000
1F4F8000
2F0FFE00
2E1F9F80
3E1F0B80
3D2F0F40
7D1F6E00
BC0BE400
ENDCHAR
STARTCHAR uni046A
ENCODING 1130
SWIDTH 834 0
DWIDTH 15 0
BBX 13 13 1 0
BITMAP
01BFFFC0
1EBE0240
747F0900
F02F5800
E01FE000
12FFFF40
0F8F8BC0
1F0F87C0
2E1F4B80
2E1F0F80
3D2F1F40
7D3E1F00
B83E1F40
ENDCHAR
STARTCHAR uni046B
ENCODING 1131
SWIDTH 750 0
DWIDTH 14 0
BBX 11 9 1 0
BITMAP
0BFFF4
79F460
B0F880
70BE40
0BFFE4
2E7CB8
3C7CB8
7CB8F4
B4F4F4
ENDCHAR
STARTCHAR uni0472
ENCODING 1138
SWIDTH 665 0
DWIDTH 12 0
BBX 12 13 0 0
BITMAP
006FE0
0B957C
2D7C2E
74F42E
B2F02E
77D02E
0BEFFE
0BC07D
0F80BC
0F80F4
0F82E0
0BD7C0
02FE00
ENDCHAR
STARTCHAR uni0473
ENCODING 1139
SWIDTH 439 0
DWIDTH 8 0
BBX 11 9 -1 0
BITMAP
01BD00
0BDA00
1F4F68
2F4B50
3FBE00
7D0E00
7D2C00
3FB400
1BD000
ENDCHAR
STARTCHAR uni0474
ENCODING 1140
SWIDTH 668 0
DWIDTH 12 0
BBX 13 13 0 0
BITMAP
01BC06C0
0ABC0F40
38BD2E00
B07D3C00
F07D7400
A07DB000
007DA000
007DD000
007EC000
007E8000
007F0000
007F0000
007E0000
ENDCHAR
STARTCHAR uni0475
ENCODING 1141
SWIDTH 414 0
DWIDTH 7 0
BBX 7 9 0 0
BITMAP
3E38
3D2C
7D0C
BC0C
BC18
F834
F4A0
FFC0
7E40
ENDCHAR
STARTCHAR uni0490
ENCODING 1168
SWIDTH 431 0
DWIDTH 8 0
BBX 12 15 0 0
BITMAP
000005
00000A
06BFFD
1EFFF8
74F800
B1F400
B1F000
72F000
03E000
03D000
07D000
0BC000
0B8000
0F8000
1F4000
ENDCHAR
STARTCHAR uni0491
ENCODING 1169
SWIDTH 342 0
DWIDTH 6 0
BBX 8 11 -1 0
BITMAP
0005
000E
0FFD
0F40
1F40
2F00
2F00
3E00
3D00
7D00
BC00
ENDCHAR
STARTCHAR uni0492
ENCODING 1170
SWIDTH 400 0
DWIDTH 7 0
BBX 12 13 0 0
BITMAP
02BFFD
1EBEB8
74F800
B4F800
B1F400
72F000
02F000
1FFD00
03D000
07D000
0BC000
0F8000
0F8000
ENDCHAR
STARTCHAR uni0493
ENCODING 1171
SWIDTH 375 0
DWIDTH 7 0
BBX 8 9 -1 0
BITMAP
06F4
18BC
20BC
11F8
7FFD
2F40
7D02
7E18
2FE0
ENDCHAR
STARTCHAR uni0494
ENCODING 1172
SWIDTH 665 0
DWIDTH 12 0
BBX 12 14 0 -1
BITMAP
02BFFD
1EBEB8
74F800
B4F800
B1F400
72FBE0
02F5F8
03E07C
07D07C
07D07C
0BC0B8
0F81F4
0FAFE0
001A40
ENDCHAR
STARTCHAR uni0495
ENCODING 1173
SWIDTH 486 0
DWIDTH 9 0
BBX 10 13 -1 -4
BITMAP
0BFFC0
0FAE40
1F4000
2FBD00
2FBF00
3E2F00
3D2E20
7D3E60
BC7E40
02FC00
0DB800
0DF400
0BD000
ENDCHAR
STARTCHAR uni0496
ENCODING 1174
SWIDTH 777 0
DWIDTH 14 0
BBX 16 19 -1 -6
BITMAP
02E0682E
07B4F8EE
0029F680
0019F700
001AFA00
001BE900
01FFFF80
07D7D7E0
0F8BC3D0
0F4BC3D0
1F0F87C0
2F1F4B80
7D1F0BC0
00000A00
00000F00
00000B80
000007C0
00000240
00000100
ENDCHAR
STARTCHAR uni0497
ENCODING 1175
SWIDTH 882 0
DWIDTH 16 0
BBX 18 13 -1 -4
BITMAP
0BD0B82F40
18F4F8B780
20B8F5E340
00B9F2D000
00BFFFC000
00F6E7C000
71F3D7C050
B2D3D3E680
6F47C1FD00
0000006000
000000F400
000000B800
0000002000
ENDCHAR
STARTCHAR uni0498
ENCODING 1176
SWIDTH 525 0
DWIDTH 9 0
BBX 9 18 0 -5
BITMAP
01BE00
091F80
140FC0
000F80
002F00
03F800
007E00
002F40
001F40
B02F40
E03F00
F0BD00
6FE000
070000
0B8000
07D000
02D000
018000
ENDCHAR
STARTCHAR uni0499
ENCODING 1177
SWIDTH 498 0
DWIDTH 9 0
BBX 10 17 0 -8
BITMAP
06F800
187D00
203E00
503E00
807D00
81F410
0FD050
02F180
01FA00
06F400
25F400
37E000
1F8000
090000
1E0000
1F0000
090000
ENDCHAR
STARTCHAR uni049A
ENCODING 1178
SWIDTH 635 0
DWIDTH 11 0
BBX 12 18 0 -5
BITMAP
01BC2F
1EBCBF
38FA80
B0FB00
B1FD00
22FF90
02E2E0
03E2F0
07D2E0
07C3D0
0BC7D0
0F87C0
0F47D0
000380
0007C0
0003D0
0002E0
0000C0
ENDCHAR
STARTCHAR uni049B
ENCODING 1179
SWIDTH 501 0
DWIDTH 9 0
BBX 11 13 -1 -4
BITMAP
0F82D0
0F5ED0
1F7400
2FFE00
2F6F00
3E2F04
3D2F14
7D2F20
BC0B80
000600
000F40
000B40
000600
ENDCHAR
STARTCHAR uni049C
ENCODING 1180
SWIDTH 721 0
DWIDTH 13 0
BBX 14 13 0 0
BITMAP
01BC06E0
0ABC1EE0
38F83400
B0F59000
B1F68000
62FFF400
02E9F800
03E8B800
07D0F800
07C0F400
0BC1F000
0F82F000
0F41F000
ENDCHAR
STARTCHAR uni049D
ENCODING 1181
SWIDTH 551 0
DWIDTH 10 0
BBX 12 9 -1 0
BITMAP
0F81B4
0FA678
1FA400
2FBF40
2FCBC0
3FCB81
3E8B89
7D0BF8
BC06E0
ENDCHAR
STARTCHAR uni04A0
ENCODING 1184
SWIDTH 691 0
DWIDTH 12 0
BBX 13 13 0 0
BITMAP
06FF0BC0
2D6F2AC0
743EA000
B03E8000
E07F4000
60BFF400
00B8B800
00F8BC00
01F4B800
01F0F400
02F1F400
03E1F000
03E1F400
ENDCHAR
STARTCHAR uni04A1
ENCODING 1185
SWIDTH 676 0
DWIDTH 12 0
BBX 13 9 0 0
BITMAP
1BF82E00
B8F8AE00
E0F64000
E1FF9000
52FAF000
02E1F040
03E1F180
07D1FB00
07C0B900
ENDCHAR
STARTCHAR uni04A2
ENCODING 1186
SWIDTH 665 0
DWIDTH 12 0
BBX 13 16 0 -3
BITMAP
01BC1F40
0ABC1F00
38F82F00
B0F43E00
B1F47E00
62FFFD00
02E5BC00
03E0BC00
07D0F800
07C1F400
0BC1F400
0F82F000
0F42E000
00007940
00002F80
00001E00
ENDCHAR
STARTCHAR uni04A3
ENCODING 1187
SWIDTH 507 0
DWIDTH 9 0
BBX 11 13 -1 -4
BITMAP
0F87D0
0F87C0
1F4B80
2F0B80
2FFF40
3E1F40
3D1F04
7D2F64
BC0FD0
000600
000F40
000B40
000600
ENDCHAR
STARTCHAR uni04A4
ENCODING 1188
SWIDTH 689 0
DWIDTH 12 0
BBX 17 13 0 0
BITMAP
01BC1FFF80
0ABC1FAE00
38F82F0000
B0F43E0000
B1F47D0000
62FFFD0000
02E5BC0000
03E0B80000
07D0F80000
07C1F40000
0BC1F00000
0F82F00000
0F43E00000
ENDCHAR
STARTCHAR uni04A5
ENCODING 1189
SWIDTH 681 0
DWIDTH 12 0
BBX 14 9 -1 0
BITMAP
0F87FFE0
0F87EB80
1F4B8000
2F0B8000
2FFF4000
3E1F0000
3D1F1800
7D2FB000
BC0B9000
ENDCHAR
STARTCHAR uni04AA
ENCODING 1194
SWIDTH 497 0
DWIDTH 9 0
BBX 10 19 0 -6
BITMAP
00BF80
02F5D0
0BD0E0
1F81D0
2F4040
3F0000
7E0000
7D0000
BD0000
BD0000
BD0040
7F4180
2FFE00
07E400
03C000
03E000
01F000
00B000
008000
ENDCHAR
STARTCHAR uni04AB
ENCODING 1195
SWIDTH 384 0
DWIDTH 7 0
BBX 8 13 -1 -4
BITMAP
01F8
0BDE
1F4D
2F00
3E00
3D00
7D02
3F6D
1FE0
0300
0B80
07C0
0240
ENDCHAR
STARTCHAR uni04AE
ENCODING 1198
SWIDTH 620 0
DWIDTH 11 0
BBX 13 13 0 0
BITMAP
01BD0340
0ABE0700
387E0900
B03F0C00
F02F6800
A01FB000
000FE000
000FC000
000FC000
001F8000
001F4000
002F4000
003F0000
ENDCHAR
STARTCHAR uni04AF
ENCODING 1199
SWIDTH 480 0
DWIDTH 9 0
BBX 7 14 1 -5
BITMAP
F838
F82C
B80C
BC08
BC24
BC20
7C90
7E80
7E00
7D00
7C00
BC00
F800
5000
ENDCHAR
STARTCHAR uni04B0
ENCODING 1200
SWIDTH 620 0
DWIDTH 11 0
BBX 13 13 0 0
BITMAP
01BD0340
0ABE0700
387E0900
B03F0C00
F02F6800
A01FB000
000FE000
000FC000
007FF400
001F8000
001F4000
002F4000
003F0000
ENDCHAR
STARTCHAR uni04B1
ENCODING 1201
SWIDTH 480 0
DWIDTH 9 0
BBX 8 14 0 -5
BITMAP
3E0E
3E0B
2E03
2F02
2F09
2F08
1F24
1FA0
1F80
BFF0
2F40
2F00
3E00
1400
ENDCHAR
STARTCHAR uni04B6
ENCODING 1206
SWIDTH 695 0
DWIDTH 13 0
BBX 13 16 0 -3
BITMAP
01BC0BC0
1EBC0F80
38F80F40
B0F41F40
B1F42F00
21F47E00
00FFFE00
007EBD00
00007D00
0000BC00
0000F800
0000F800
0001F400
00002E40
00001FC0
00000B40
ENDCHAR
STARTCHAR uni04B7
ENCODING 1207
SWIDTH 505 0
DWIDTH 9 0
BBX 10 13 0 -4
BITMAP
3E1F00
3D2F00
7D3E00
BC7D00
7EFD00
2EBC10
00BC50
00BF80
003E00
001800
003D00
002D00
001800
ENDCHAR
STARTCHAR uni04B8
ENCODING 1208
SWIDTH 715 0
DWIDTH 13 0
BBX 14 13 0 0
BITMAP
01BC07D0
0ABC0BC0
38F80BC0
B4F40F80
B1F41F40
71F55F40
00FABF00
007FBE00
00023E00
00017D00
0000BC00
0000BC00
0000F800
ENDCHAR
STARTCHAR uni04B9
ENCODING 1209
SWIDTH 545 0
DWIDTH 10 0
BBX 11 9 0 0
BITMAP
3E0BC0
3D0F80
7D8F40
BDAF40
7FFF00
2FBE04
023E20
023FE0
001F80
ENDCHAR
STARTCHAR uni04BA
ENCODING 1210
SWIDTH 679 0
DWIDTH 12 0
BBX 11 13 0 0
BITMAP
01BC00
0ABC00
38F800
B0F400
B1F400
62FBF4
02F4BC
03E07C
07D07C
07C0BC
0BC0F8
0F80F4
0F41F4
ENDCHAR
STARTCHAR uni04BB
ENCODING 1211
SWIDTH 505 0
DWIDTH 9 0
BBX 11 13 -1 0
BITMAP
015000
07D000
07C000
0BC000
0FEE00
0F9F80
1F4F80
2F0F80
2E1F40
3E1F00
3D2F08
7D2F20
BC0B90
ENDCHAR
STARTCHAR uni04C0
ENCODING 1216
SWIDTH 375 0
DWIDTH 7 0
BBX 7 13 0 0
BITMAP
01BC
0AF8
38F8
B1F4
F1F0
A2F0
03E0
03D0
07D0
0BC0
0B80
0F80
1F40
ENDCHAR
STARTCHAR uni04C1
ENCODING 1217
SWIDTH 777 0
DWIDTH 14 0
BBX 16 17 -1 0
BITMAP
0002D080
0003D640
0001F900
00000000
02E0682E
07B4F8EE
0029F680
0019F700
001AFA00
001BE900
01FFFF80
07D7D7E0
0F8BC3D0
0F4BC3D0
1F0F87C0
2F1F4B80
7D1F0BC0
ENDCHAR
STARTCHAR uni04C2
ENCODING 1218
SWIDTH 882 0
DWIDTH 16 0
BBX 18 13 -1 0
BITMAP
0002C08000
0003D64000
0001F90000
0000000000
0BD0B82F40
18F4F8B780
20B8F5E340
00B9F2D000
00BFFFC000
00F6E7C000
71F3D7C050
B2D3D3D240
6F47C1F900
ENDCHAR
STARTCHAR uni04CB
ENCODING 1227
SWIDTH 695 0
DWIDTH 13 0
BBX 13 15 0 -2
BITMAP
01BC0BC0
0ABC0F80
38F80F40
B4F41F40
B1F42F00
B1F42E00
00F9BE00
007FBD00
00007C00
0000BC00
0000F800
0000F400
015BF400
02FE0000
01F40000
ENDCHAR
STARTCHAR uni04CC
ENCODING 1228
SWIDTH 516 0
DWIDTH 9 0
BBX 10 13 0 -4
BITMAP
2F1F40
3E1F00
3D2F00
7D3E00
7FFD00
2EBD10
007D60
007FC0
002E00
056800
2FF000
3F9000
500000
ENDCHAR
STARTCHAR uni04CF
ENCODING 1231
SWIDTH 267 0
DWIDTH 5 0
BBX 6 13 0 0
BITMAP
0640
1F40
1F00
2F00
3E00
3E00
7D00
BC00
BC00
F810
F480
FA80
7D00
ENDCHAR
STARTCHAR uni04D0
ENCODING 1232
SWIDTH 668 0
DWIDTH 12 0
BBX 15 19 0 -2
BITMAP
00007814
000078A0
00002F80
00000000
00002F40
0001AF40
00076F00
000D3E00
00283E00
1BF97D00
B9F5FC00
B6D0BC00
03C0F800
0B81F400
0F41F400
1F02F000
1F03E000
1E000000
0A000000
ENDCHAR
STARTCHAR uni04D1
ENCODING 1233
SWIDTH 526 0
DWIDTH 9 0
BBX 11 13 -1 0
BITMAP
00B420
00B590
006E40
000000
01FBE0
0BDBD0
1F47C0
2F0BC0
3E0F80
7D0F40
7D1F48
3FAFE4
1F8B90
ENDCHAR
STARTCHAR uni04D2
ENCODING 1234
SWIDTH 668 0
DWIDTH 12 0
BBX 14 19 0 -2
BITMAP
00003CB0
000038B0
00000000
00000000
00002F40
0001AF40
00076F00
000D3E00
00283E00
1BF97D00
B9F5FC00
B6D0BC00
03C0F800
0B81F400
0F41F400
1F02F000
1F03E000
1E000000
0A000000
ENDCHAR
STARTCHAR uni04D3
ENCODING 1235
SWIDTH 526 0
DWIDTH 9 0
BBX 11 12 -1 0
BITMAP
0078E0
0074E0
000000
01FBE0
0BDBD0
1F47C0
2F0BC0
3E0F80
7D0F40
7D1F48
3FAFE4
1F8B90
ENDCHAR
STARTCHAR uni04D4
ENCODING 1236
SWIDTH 764 0
DWIDTH 14 0
BBX 16 15 0 -2
BITMAP
00002F81
0001EFBE
00076F00
000D3E00
00283E00
1BF97D00
B9E5FFF0
B6D0BD50
13C0F800
0B81F400
0F41F400
1F02FFF0
1F03FFE0
1E000000
0A000000
ENDCHAR
STARTCHAR uni04D5
ENCODING 1237
SWIDTH 650 0
DWIDTH 12 0
BBX 12 9 0 0
BITMAP
07FAF8
187F9D
003F1D
003E78
2BFFD0
BDBD00
F4BD02
F9FE18
7E6F90
ENDCHAR
STARTCHAR uni04D6
ENCODING 1238
SWIDTH 459 0
DWIDTH 8 0
BBX 10 17 0 0
BITMAP
00B020
00F590
007E40
000000
00BE00
02E280
07C280
0B8240
07C000
03E000
1F8000
3F0000
BD0000
BD0040
BE0240
7FFD00
1FE000
ENDCHAR
STARTCHAR uni04D7
ENCODING 1239
SWIDTH 384 0
DWIDTH 7 0
BBX 9 13 -1 0
BITMAP
02C080
03D740
01F900
000000
01FD00
0BDE00
1F4D00
2E2C00
3FE000
7E0000
7D0200
3E1900
1BE000
ENDCHAR
STARTCHAR uni04D8
ENCODING 1240
SWIDTH 544 0
DWIDTH 10 0
BBX 10 13 0 0
BITMAP
06FE00
0FFF80
1D1BD0
0007E0
0007E0
00AFE0
07DBD0
1E0FC0
3D0F80
782F40
B83E00
78B800
1F9000
ENDCHAR
STARTCHAR uni04D9
ENCODING 1241
SWIDTH 404 0
DWIDTH 7 0
BBX 7 9 0 0
BITMAP
1BE0
25F8
00BC
0BFC
3DF8
B1F4
E2F0
E7D0
7E00
ENDCHAR
STARTCHAR uni04DC
ENCODING 1244
SWIDTH 777 0
DWIDTH 14 0
BBX 16 16 -1 0
BITMAP
0001D780
0001D780
00000000
02E0682E
07B4F8EE
0029F680
0019F700
001AFA00
001BE900
01FFFF80
07D7D7E0
0F8BC3D0
0F4BC3D0
1F0F87C0
2F1F4B80
7D1F0BC0
ENDCHAR
STARTCHAR uni04DD
ENCODING 1245
SWIDTH 882 0
DWIDTH 16 0
BBX 18 12 -1 0
BITMAP
0002D78000
0001D74000
0000000000
0BD0B82F40
18F4F8B780
20B8F5E340
00B9F2D000
00BFFFC000
00F6E7C000
71F3D7C050
B2D3D3D240
6F47C1F900
ENDCHAR
STARTCHAR uni04DE
ENCODING 1246
SWIDTH 525 0
DWIDTH 9 0
BBX 10 16 0 0
BITMAP
00F2D0
00A2C0
000000
01BE00
091F80
140FC0
000F80
002F00
03F800
007E00
002F40
001F40
B02F40
E03F00
F0BD00
6FE000
ENDCHAR
STARTCHAR uni04DF
ENCODING 1247
SWIDTH 498 0
DWIDTH 9 0
BBX 10 16 0 -4
BITMAP
078F00
038A00
000000
06F800
187D00
203E00
503E00
807D00
81F410
0FD050
02F080
01FA00
06F400
29F400
36E000
1F8000
ENDCHAR
STARTCHAR uni04E2
ENCODING 1250
SWIDTH 705 0
DWIDTH 13 0
BBX 13 16 0 0
BITMAP
000BFF40
00000000
00000000
01BC0BC0
0ABC1FC0
38F82F80
B0F47F40
B1F4FF40
72F2EF00
02F76E00
03EA3E00
07EC7D00
07F47C00
0BF0BC00
0FD0F800
0F80F400
ENDCHAR
STARTCHAR uni04E3
ENCODING 1251
SWIDTH 505 0
DWIDTH 9 0
BBX 10 12 0 0
BITMAP
0BFF00
000000
000000
3E1F00
3D2F00
7D3E00
BC3E00
BC7D00
F8BC10
F8FC60
FFBEC0
7D2E00
ENDCHAR
STARTCHAR uni04E4
ENCODING 1252
SWIDTH 705 0
DWIDTH 13 0
BBX 13 16 0 0
BITMAP
00078F00
00078E00
00000000
01BC0BC0
0ABC1FC0
38F82F80
B0F47F40
B1F4FF40
72F2EF00
02F76E00
03EA3E00
07EC7D00
07F47C00
0BF0BC00
0FD0F800
0F80F400
ENDCHAR
STARTCHAR uni04E5
ENCODING 1253
SWIDTH 505 0
DWIDTH 9 0
BBX 10 12 0 0
BITMAP
078F00
078E00
000000
3E1F00
3D2F00
7D3E00
BC3E00
BC7D00
F8BC10
F8FC60
FFBEC0
7D2E00
ENDCHAR
STARTCHAR uni04E6
ENCODING 1254
SWIDTH 665 0
DWIDTH 12 0
BBX 12 16 0 0
BITMAP
000B5E
000B5D
000000
006FE0
07957C
2D7D2E
74F42E
B2F02E
77D02E
0BC03E
0BC07D
0F80BC
0F80F4
0F82E0
0BEBC0
02FE00
ENDCHAR
STARTCHAR uni04E7
ENCODING 1255
SWIDTH 439 0
DWIDTH 8 0
BBX 11 12 -1 0
BITMAP
00E3C0
00E280
000000
01B900
0BDA00
1F4B18
2F0F90
3E0A00
7E0E00
7D1D00
3E3800
1BD000
ENDCHAR
STARTCHAR uni04E8
ENCODING 1256
SWIDTH 665 0
DWIDTH 12 0
BBX 12 13 0 0
BITMAP
006FE0
0B957C
2D7C2E
74F42E
B2E02E
77D02E
0BFFFE
0BC07D
0F80BC
0F80F4
0F82E0
0BD7C0
02FE00
ENDCHAR
STARTCHAR uni04E9
ENCODING 1257
SWIDTH 439 0
DWIDTH 8 0
BBX 11 9 -1 0
BITMAP
01B900
0BDA00
1F4B18
2F0F90
3FFF00
7E0E00
7D1D00
3E3800
1BD000
ENDCHAR
STARTCHAR uni04EE
ENCODING 1262
SWIDTH 644 0
DWIDTH 12 0
BBX 13 16 0 0
BITMAP
0007FF40
00000000
00000000
01BD0280
0ABE0340
383F0600
B42F0D00
B01F5C00
701FA400
000FF000
000BE000
0007C000
00038000
00534000
01FA0000
00B80000
ENDCHAR
STARTCHAR uni04EF
ENCODING 1263
SWIDTH 486 0
DWIDTH 9 0
BBX 9 16 0 -4
BITMAP
0BFF00
000000
000000
3E1F00
3D2F00
7D3E00
BC3E00
BC7D00
F8BC00
F8FC80
FFF980
7EF900
0BF400
26F000
37E000
2F8000
ENDCHAR
STARTCHAR uni04F0
ENCODING 1264
SWIDTH 644 0
DWIDTH 12 0
BBX 13 16 0 0
BITMAP
0003CB00
00038B00
00000000
01BD0280
0ABE0340
383F0600
B42F0D00
B01F5C00
701FA400
000FF000
000BE000
0007C000
00038000
00534000
01FA0000
00B80000
ENDCHAR
STARTCHAR uni04F1
ENCODING 1265
SWIDTH 486 0
DWIDTH 9 0
BBX 9 16 0 -4
BITMAP
078F00
074E00
000000
3E1F00
3D2F00
7D3E00
BC3E00
BC7D00
F8BC00
F8FC80
FFF980
7EF900
0BF400
26F000
37E000
2F8000
ENDCHAR
STARTCHAR uni04F2
ENCODING 1266
SWIDTH 644 0
DWIDTH 12 0
BBX 13 17 0 0
BITMAP
0000B2C0
0001D740
00024900
00000000
01BD0280
0ABE0340
383F0600
B42F0D00
B01F5C00
701FA400
000FF000
000BE000
0007C000
00038000
00534000
01FA0000
00B80000
ENDCHAR
STARTCHAR uni04F3
ENCODING 1267
SWIDTH 486 0
DWIDTH 9 0
BBX 9 17 0 -4
BITMAP
00E380
02CA00
030C00
000000
3E1F00
3D2F00
7D3E00
BC3E00
BC7D00
F8BC00
F8FC80
FFF980
7EF900
0BF400
26F000
37E000
2F8000
ENDCHAR
STARTCHAR uni04F4
ENCODING 1268
SWIDTH 695 0
DWIDTH 13 0
BBX 13 16 0 0
BITMAP
00078F00
00038A00
00000000
01BC0BC0
1EBC0F80
38F80F40
B0F41F40
B1F42F00
21F47E00
00FFFE00
007FBD00
00007C00
0000BC00
0000F800
0000F800
0001F400
ENDCHAR
STARTCHAR uni04F5
ENCODING 1269
SWIDTH 505 0
DWIDTH 9 0
BBX 10 12 0 0
BITMAP
074E00
074E00
000000
3E1F00
3D2F00
7D3E00
BC7D00
7EFD00
2EBC10
00BC50
00BFC0
002E00
ENDCHAR
STARTCHAR uni04F6
ENCODING 1270
SWIDTH 442 0
DWIDTH 8 0
BBX 12 16 0 -3
BITMAP
06BFFD
1EBEB8
74F800
B4F400
B1F400
72F000
02E000
03E000
07D000
07C000
0BC000
0F8000
0F8000
02F500
00FD00
007800
ENDCHAR
STARTCHAR uni04F7
ENCODING 1271
SWIDTH 375 0
DWIDTH 7 0
BBX 8 13 -1 -4
BITMAP
06F4
18BC
20BC
02F8
0BE0
3F41
7D06
7FA8
2F90
0600
0F40
0B80
0700
ENDCHAR
STARTCHAR uni04F8
ENCODING 1272
SWIDTH 909 0
DWIDTH 16 0
BBX 17 16 0 0
BITMAP
000078F000
000078E000
0000000000
01BC000B80
0ABC000F80
38F8001F40
B0F4001F00
B1F4002F00
62FB903E00
02E5F43D00
03E0B87D00
07D0BCBC00
07C0B8B800
0BC1F4F800
0FAFE1F400
0F5F81F000
ENDCHAR
STARTCHAR uni04F9
ENCODING 1273
SWIDTH 642 0
DWIDTH 12 0
BBX 12 12 0 0
BITMAP
00A280
00F3C0
000000
290028
3D01F4
7C0BF4
BDB5F0
B876E0
F436E0
F4B3D2
FAE3F9
7F41F8
ENDCHAR
STARTCHAR uni051A
ENCODING 1306
SWIDTH 665 0
DWIDTH 12 0
BBX 12 15 0 -2
BITMAP
006FE0
0B957C
2D7C2D
74F42E
B2F02E
77D02E
0BC03E
0BC07D
0F80BC
0F80F8
0FEAF0
0BDFD0
02FF80
0003E8
0001F4
ENDCHAR
STARTCHAR uni051B
ENCODING 1307
SWIDTH 486 0
DWIDTH 9 0
BBX 10 14 -1 -5
BITMAP
01FBE0
0BDBD0
1F47C0
2F0BC0
3E0F80
7D1F40
7E2F40
3FFF00
1FBE00
003E00
007D00
007C00
00B800
004000
ENDCHAR
STARTCHAR uni051C
ENCODING 1308
SWIDTH 962 0
DWIDTH 17 0
BBX 19 13 0 0
BITMAP
01BC03D034
0ABC07D070
38BD0BD0A0
B07D0FD0D0
F07D1FD1C0
A07D37D240
007D77D300
007D93D600
007DC3D900
007E83EC00
007F43F800
007F03F000
007E03E000
ENDCHAR
STARTCHAR uni051D
ENCODING 1309
SWIDTH 661 0
DWIDTH 12 0
BBX 12 9 0 0
BITMAP
3E1F1D
3D2F1E
7D3E06
BC3E09
BC7D0C
F8BC28
F8FC74
FFFEE0
7D2F40
ENDCHAR
STARTCHAR uni0524
ENCODING 1316
SWIDTH 742 0
DWIDTH 13 0
BBX 14 16 0 -3
BITMAP
06FFFFF0
2DBDAF90
74F82F00
B0F43E00
B1F43D00
62F07D00
02E0BC00
03E0B800
07D0F800
07C1F400
0BC1F000
0F82F000
0F43F000
00007D40
00002F80
00001E00
ENDCHAR
STARTCHAR uni0525
ENCODING 1317
SWIDTH 505 0
DWIDTH 9 0
BBX 11 13 -1 -4
BITMAP
0FEF40
0F9F80
1F4F80
2F0F80
2E1F40
3E1F04
3D2F14
7D2FE0
BC0B80
000600
000F40
000B80
000700
ENDCHAR
STARTCHAR uni1E0C
ENCODING 7692
SWIDTH 663 0
DWIDTH 12 0
BBX 12 17 0 -4
BITMAP
01BF90
0B51F4
38B87C
B4F43D
F1F43E
A2F03E
13E03D
03E07D
07D0BC
0BC0F8
0BC1F0
0F87D0
1FAE40
000000
01A000
02F000
01E000
ENDCHAR
STARTCHAR uni1E0D
ENCODING 7693
SWIDTH 525 0
DWIDTH 9 0
BBX 11 17 -1 -4
BITMAP
000050
0001F4
0002F0
0003E0
01FBE0
0BDBD0
1F47D0
2F0BC0
3E0F80
7E0F80
7D1F44
3E2F54
1F9BD0
000000
028000
07D000
03C000
ENDCHAR
STARTCHAR uni1E20
ENCODING 7712
SWIDTH 578 0
DWIDTH 10 0
BBX 11 19 0 -3
BITMAP
00BFF0
000000
000000
00AF90
07E4B0
1F80B4
3F00E0
7E0000
BD0050
BC02E0
7D03D0
3E0BC0
1FEBC0
000B80
000F40
0BDF00
2C2E00
2C3D00
0BF400
ENDCHAR
STARTCHAR uni1E21
ENCODING 7713
SWIDTH 507 0
DWIDTH 9 0
BBX 11 16 -1 -4
BITMAP
01FFE0
000000
000000
01FBE0
0BDBD0
1F47C0
2F0BC0
3E0F80
7D0F44
7E2F58
3FFF20
1FBF80
01FE00
0A7D00
09BC00
07E000
ENDCHAR
STARTCHAR uni1E24
ENCODING 7716
SWIDTH 665 0
DWIDTH 12 0
BBX 13 17 0 -4
BITMAP
01BC1F40
09BC1F00
34F82F00
B1F43E00
B1F47D00
62FFFD00
02E5BC00
03E0BC00
07D0F800
07C1F400
0BC1F400
0F82F000
0F43E000
00000000
00A40000
01F80000
00B40000
ENDCHAR
STARTCHAR uni1E25
ENCODING 7717
SWIDTH 505 0
DWIDTH 9 0
BBX 11 17 -1 -4
BITMAP
015000
07D000
07C000
0BC000
0FEE00
0F9F80
1F4F80
2F0F80
2E1F40
3E1F00
3D2F08
7D2F20
BC0B90
000000
028000
0BD000
078000
ENDCHAR
STARTCHAR uni1E2A
ENCODING 7722
SWIDTH 665 0
DWIDTH 12 0
BBX 13 17 0 -4
BITMAP
01BC1F40
09BC1F00
34F82F00
B1F43E00
B1F47D00
62FFFD00
02E5BC00
03E0BC00
07D0F800
07C1F400
0BC1F400
0F82F000
0F43E000
00000000
05024000
074B0000
02F80000
ENDCHAR
STARTCHAR uni1E2B
ENCODING 7723
SWIDTH 505 0
DWIDTH 9 0
BBX 11 17 -1 -4
BITMAP
015000
07D000
07C000
0BC000
0FEE00
0F9F80
1F4F80
2F0F80
2E1F40
3E1F00
3D2F08
7D2F20
BC0B90
000000
241800
282800
1BD000
ENDCHAR
STARTCHAR uni1E36
ENCODING 7734
SWIDTH 379 0
DWIDTH 7 0
BBX 12 17 0 -4
BITMAP
01BC00
0AF800
38F800
B1F400
F1F000
62F000
03E000
03D000
07D000
0BC000
0B8000
0F8000
1F9000
01BE40
191FFE
2F07FE
1E00BC
ENDCHAR
STARTCHAR uni1E37
ENCODING 7735
SWIDTH 293 0
DWIDTH 5 0
BBX 6 17 0 -4
BITMAP
0680
0B80
0F80
1F40
1F40
2F00
3E00
3E00
7D00
7C10
BC20
BE80
2E00
0000
A400
F800
B400
ENDCHAR
STARTCHAR uni1E42
ENCODING 7746
SWIDTH 787 0
DWIDTH 14 0
BBX 14 17 1 -4
BITMAP
01BD07D0
09BD0BD0
38FD1FC0
B1FD2FC0
B2FC3F80
73FC7F80
07BCEF80
0A7DDF40
0DBE9F40
1CBF6F00
38BE2F00
74BD2E00
A0BC3E00
00000000
00A00000
01F40000
00F00000
ENDCHAR
STARTCHAR uni1E43
ENCODING 7747
SWIDTH 752 0
DWIDTH 14 0
BBX 15 13 -1 -4
BITMAP
0FEF6F40
0F9FDBC0
1F4F87C0
2F0F4BC0
2E1F4B80
3E2F0F80
3D2F0F48
7D3E0F58
BC3D07E0
00000000
00680000
00BC0000
00780000
ENDCHAR
STARTCHAR uni1E44
ENCODING 7748
SWIDTH 668 0
DWIDTH 12 0
BBX 13 17 0 0
BITMAP
00007800
0000BC00
00006400
00000000
06FC0380
1DBD0380
74FE0740
B1FE0B00
F1FF0B00
B2DF4E00
13CF5D00
038F9D00
074BEC00
0B47F800
0B03F800
0E03F400
1D02F000
ENDCHAR
STARTCHAR uni1E45
ENCODING 7749
SWIDTH 505 0
DWIDTH 9 0
BBX 11 13 -1 0
BITMAP
001E00
003F00
001900
000000
0FEE00
0F9F80
1F4F80
2F0F80
2E1F40
3E1F00
3D2F08
7D2F20
BC0B90
ENDCHAR
STARTCHAR uni1E46
ENCODING 7750
SWIDTH 668 0
DWIDTH 12 0
BBX 13 17 0 -4
BITMAP
06FC0380
1DBD0380
74FE0740
B1FE0B00
F1FF0B00
B2DF4E00
13CF5D00
038F9D00
074BEC00
0B47F800
0B03F800
0E03F400
1D02F000
00000000
00640000
00F80000
00B40000
ENDCHAR
STARTCHAR uni1E47
ENCODING 7751
SWIDTH 505 0
DWIDTH 9 0
BBX 11 13 -1 -4
BITMAP
0FEE00
0F9F80
1F4F80
2F0F80
2E1F40
3E1F00
3D2F08
7D2F20
BC0B90
000000
028000
07D000
03C000
ENDCHAR
STARTCHAR uni1E5A
ENCODING 7770
SWIDTH 601 0
DWIDTH 11 0
BBX 11 17 0 -4
BITMAP
01BF90
1F55F4
78F874
B1F4B4
E1F1D0
62FFD0
03E7E0
03D2E0
07D2E0
0BC3D0
0B87C0
0F8BC0
1F47D0
000000
00A000
01F800
00B400
ENDCHAR
STARTCHAR uni1E5B
ENCODING 7771
SWIDTH 376 0
DWIDTH 7 0
BBX 8 13 -1 -4
BITMAP
0FAE
0FEF
1F49
2F00
2F00
3E00
3D00
7D00
BC00
0000
6400
BC00
7800
ENDCHAR
STARTCHAR uni1E60
ENCODING 7776
SWIDTH 570 0
DWIDTH 10 0
BBX 10 18 0 0
BITMAP
000640
000FC0
000B40
000000
000000
007F80
02E5E0
07D0F0
07E1E0
03F400
01FD00
007F00
051F80
2E4BC0
7C07D0
780BC0
3D6F40
0BF800
ENDCHAR
STARTCHAR uni1E61
ENCODING 7777
SWIDTH 382 0
DWIDTH 7 0
BBX 8 13 -1 0
BITMAP
0078
00FC
0064
0000
01B4
03F4
07F4
09F4
18F8
24F8
B4FA
61F8
2F90
ENDCHAR
STARTCHAR uni1E62
ENCODING 7778
SWIDTH 570 0
DWIDTH 10 0
BBX 10 17 0 -4
BITMAP
007F80
02E5E0
07D0F0
07E1E0
03F400
01FD00
007F00
051F80
2E4BC0
7C07D0
780BC0
3D6F40
0BF800
000000
064000
0BC000
078000
ENDCHAR
STARTCHAR uni1E63
ENCODING 7779
SWIDTH 382 0
DWIDTH 7 0
BBX 9 14 -1 -4
BITMAP
016400
02F400
03F400
06F400
09F800
14F800
78F940
A0FE00
62F400
2F9000
000000
190000
3E0000
2D0000
ENDCHAR
STARTCHAR uni1E6C
ENCODING 7788
SWIDTH 481 0
DWIDTH 9 0
BBX 13 17 0 -4
BITMAP
06FF9080
1D6FFF80
743FAE00
B03E0000
E07D0000
A0BD0000
10BC0000
00F80000
01F40000
01F40000
02F00000
03E00000
03E00000
00000000
06800000
0BC00000
07800000
ENDCHAR
STARTCHAR uni1E6D
ENCODING 7789
SWIDTH 267 0
DWIDTH 5 0
BBX 7 16 -1 -4
BITMAP
0290
07C0
0BC0
1FE0
0F80
1F40
1F00
2F00
3E00
3D24
3FA0
1F80
0000
6400
BC00
7800
ENDCHAR
STARTCHAR Wgrave
ENCODING 7808
SWIDTH 962 0
DWIDTH 17 0
BBX 19 18 0 0
BITMAP
0000074000
0000038000
0000028000
0000000000
0000000000
01BC03D034
0ABC07D070
38BD0BD0A0
B07D0FD0D0
F07D1FD1C0
A07D37D240
007D77D300
007D93D600
007DC3D900
007E83EC00
007F43F800
007F03F000
007E03E000
ENDCHAR
STARTCHAR wgrave
ENCODING 7809
SWIDTH 661 0
DWIDTH 12 0
BBX 12 13 0 0
BITMAP
003800
002800
001C00
000000
3E1F1D
3D2F1E
7D3E06
BC3E09
BC7D0C
F8BC28
F8FC74
FFFEE0
7D2F40
ENDCHAR
STARTCHAR Wacute
ENCODING 7810
SWIDTH 962 0
DWIDTH 17 0
BBX 19 18 0 0
BITMAP
0000001400
0000007800
000000A000
0000004000
0000000000
01BC03D034
0ABC07D070
38BD0BD0A0
B07D0FD0D0
F07D1FD1C0
A07D37D240
007D77D300
007D93D600
007DC3D900
007E83EC00
007F43F800
007F03F000
007E03E000
ENDCHAR
STARTCHAR wacute
ENCODING 7811
SWIDTH 661 0
DWIDTH 12 0
BBX 12 13 0 0
BITMAP
0002D0
000380
000B00
000400
3E1F1D
3D2F1E
7D3E06
BC3E09
BC7D0C
F8BC28
F8FC74
FFFEE0
7D2F40
ENDCHAR
STARTCHAR Wdieresis
ENCODING 7812
SWIDTH 962 0
DWIDTH 17 0
BBX 19 17 0 0
BITMAP
00001D3800
00001E3C00
0000000000
0000000000
01BC03D034
0ABC07D070
38BD0BD0A0
B07D0FD0D0
F07D1FD1C0
A07D37D240
007D77D300
007D93D600
007DC3D900
007E83EC00
007F43F800
007F03F000
007E03E000
ENDCHAR
STARTCHAR wdieresis
ENCODING 7813
SWIDTH 661 0
DWIDTH 12 0
BBX 12 12 0 0
BITMAP
00B2D0
00F2D0
000000
3E1F1D
3D2F1E
7D3E06
BC3E09
BC7D0C
F8BC28
F8FC74
FFFEE0
7D2F40
ENDCHAR
STARTCHAR uni1E8E
ENCODING 7822
SWIDTH 620 0
DWIDTH 11 0
BBX 13 17 0 0
BITMAP
0000B400
0000F800
00006400
00000000
01BD0340
0ABE0700
387E0900
B03F0C00
F02F6800
A01FB000
000FE000
000FC000
000FC000
001F8000
001F4000
002F4000
003F0000
ENDCHAR
STARTCHAR uni1E8F
ENCODING 7823
SWIDTH 505 0
DWIDTH 9 0
BBX 9 17 0 -4
BITMAP
00B400
00F800
00A400
000000
3E1F00
3D2F00
7D3E00
BC3E00
BC7D00
F8BC00
F8FC80
FFF980
7EF900
0BF400
26F000
37E000
2F8000
ENDCHAR
STARTCHAR uni1E92
ENCODING 7826
SWIDTH 542 0
DWIDTH 10 0
BBX 10 22 0 -4
BITMAP
0000E0
0002C0
000380
000500
000000
0BFFE0
1E0BC0
1D1F80
002F00
007E00
00BC00
01F800
03F000
07E000
0FC000
1F4280
3F03C0
BFFF40
000000
028000
0BD000
078000
ENDCHAR
STARTCHAR uni1E93
ENCODING 7827
SWIDTH 428 0
DWIDTH 8 0
BBX 8 13 0 -4
BITMAP
1FFD
38BC
25F4
02E0
07D0
0F80
2F14
3E2C
BFF4
0000
2800
7E00
2D00
ENDCHAR
STARTCHAR uni1E97
ENCODING 7831
SWIDTH 267 0
DWIDTH 5 0
BBX 6 14 0 0
BITMAP
2CB0
2CB0
0500
1F40
2F00
7F80
3E00
7D00
7C00
BC00
F800
F490
FE80
7E00
ENDCHAR
STARTCHAR uni1E9E
ENCODING 7838
SWIDTH 559 0
DWIDTH 10 0
BBX 12 17 -1 -4
BITMAP
006FFE
00F8BC
02F1F8
03E2F0
07D7D0
0BCBC0
0B8B80
0F83D0
1F42F0
1F02F0
2F02E0
3E47D0
3DBE40
7D0000
7C0000
B80000
E40000
ENDCHAR
STARTCHAR uni1EA0
ENCODING 7840
SWIDTH 668 0
DWIDTH 12 0
BBX 13 17 0 -4
BITMAP
00002F40
0001AF40
00076F00
000D3E00
00283E00
1BF97D00
B9F5FC00
B6D0BC00
03C0F800
0B81F400
0F41F400
1F02F000
1F03E000
1E000000
0A1A0000
002F0000
001E0000
ENDCHAR
STARTCHAR uni1EA1
ENCODING 7841
SWIDTH 526 0
DWIDTH 9 0
BBX 11 13 -1 -4
BITMAP
01FBE0
0BDBD0
1F47C0
2F0BC0
3E0F80
7D0F40
7D1F48
3FAFE4
1F8B90
000000
028000
07D000
03C000
ENDCHAR
STARTCHAR uni1EA2
ENCODING 7842
SWIDTH 668 0
DWIDTH 12 0
BBX 14 20 0 -2
BITMAP
00000B80
000005D0
000000C0
00000A00
00000000
00002F40
0001AF40
00076F00
000D3E00
00283E00
1BF97D00
B9F5FC00
B6D0BC00
03C0F800
0B81F400
0F41F400
1F02F000
1F03E000
1E000000
0A000000
ENDCHAR
STARTCHAR uni1EA3
ENCODING 7843
SWIDTH 526 0
DWIDTH 9 0
BBX 11 13 -1 0
BITMAP
000F80
0005C0
000A40
000000
01FBE0
0BDBD0
1F47C0
2F0BC0
3E0F80
7D0F40
7D1F48
3FAFE4
1F8B90
ENDCHAR
STARTCHAR uni1EA4
ENCODING 7844
SWIDTH 668 0
DWIDTH 12 0
BBX 15 20 0 -2
BITMAP
00000004
00000298
00000990
00001040
00000000
00002F40
0001AF40
00076F00
000D3E00
00283E00
1BF97D00
B9F5FC00
B6D0BC00
03C0F800
0B81F400
0F41F400
1F02F000
1F03E000
1E000000
0A000000
ENDCHAR
STARTCHAR uni1EA5
ENCODING 7845
SWIDTH 526 0
DWIDTH 9 0
BBX 12 16 -1 0
BITMAP
000005
00000D
000028
000310
001F40
006080
000000
01FBE0
0BDBD0
1F47C0
2F0BC0
3E0F80
7D0F40
7D1F48
3FAFE4
1F8B90
ENDCHAR
STARTCHAR uni1EA6
ENCODING 7846
SWIDTH 668 0
DWIDTH 12 0
BBX 15 20 0 -2
BITMAP
00000024
00000298
00001880
00000000
00000000
00002F40
0001AF40
00076F00
000D3E00
00283E00
1BF97D00
B9F5FC00
B6D0BC00
03C0F800
0B81F400
0F41F400
1F02F000
1F03E000
1E000000
0A000000
ENDCHAR
STARTCHAR uni1EA7
ENCODING 7847
SWIDTH 526 0
DWIDTH 9 0
BBX 11 15 -1 0
BITMAP
000034
000024
000314
001E40
005080
000000
01FBE0
0BDBD0
1F47C0
2F0BC0
3E0F80
7D0F40
7D1F48
3FAFE4
1F8B90
ENDCHAR
STARTCHAR uni1EA8
ENCODING 7848
SWIDTH 668 0
DWIDTH 12 0
BBX 16 20 0 -2
BITMAP
0000002D
0000016D
00000990
00002440
00000000
00002F40
0001AF40
00076F00
000D3E00
00283E00
1BF97D00
B9F5FC00
B6D0BC00
03C0F800
0B81F400
0F41F400
1F02F000
1F03E000
1E000000
0A000000
ENDCHAR
STARTCHAR uni1EA9
ENCODING 7849
SWIDTH 526 0
DWIDTH 9 0
BBX 11 15 -1 0
BITMAP
000078
00001C
000324
001F40
006080
000000
01FBE0
0BDBD0
1F47C0
2F0BC0
3E0F80
7D0F40
7D1F48
3FAFE4
1F8B90
ENDCHAR
STARTCHAR uni1EAA
ENCODING 7850
SWIDTH 668 0
DWIDTH 12 0
BBX 15 20 0 -2
BITMAP
000005A4
00000290
000009C0
00001040
00000000
00002F40
0001AF40
00076F00
000D3E00
00283E00
1BF97D00
B9F5FC00
B6D0BC00
03C0F800
0B81F400
0F41F400
1F02F000
1F03E000
1E000000
0A000000
ENDCHAR
STARTCHAR uni1EAB
ENCODING 7851
SWIDTH 526 0
DWIDTH 9 0
BBX 11 15 -1 0
BITMAP
000BA0
000000
000300
001F40
006080
000000
01FBE0
0BDBD0
1F47C0
2F0BC0
3E0F80
7D0F40
7D1F48
3FAFE4
1F8B90
ENDCHAR
STARTCHAR uni1EAC
ENCODING 7852
SWIDTH 668 0
DWIDTH 12 0
BBX 14 22 0 -4
BITMAP
00000180
000007C0
00001D90
00001010
00000000
00002F40
0001AF40
00076F00
000D3E00
00283E00
1BF97D00
B9F5FC00
B6D0BC00
03C0F800
0B81F400
0F41F400
1F02F000
1F03E000
1E000000
0A1A0000
002F0000
001E0000
ENDCHAR
STARTCHAR uni1EAD
ENCODING 7853
SWIDTH 526 0
DWIDTH 9 0
BBX 11 17 -1 -4
BITMAP
000340
001F80
006480
000000
01FBE0
0BDBD0
1F47C0
2F0BC0
3E0F80
7D0F40
7D1F48
3FAFE4
1F8B90
000000
028000
07D000
03C000
ENDCHAR
STARTCHAR uni1EAE
ENCODING 7854
SWIDTH 668 0
DWIDTH 12 0
BBX 14 20 0 -2
BITMAP
00000050
00000180
00003570
00001A80
00000000
00002F40
0001AF40
00076F00
000D3E00
00283E00
1BF97D00
B9F5FC00
B6D0BC00
03C0F800
0B81F400
0F41F400
1F02F000
1F03E000
1E000000
0A000000
ENDCHAR
STARTCHAR uni1EAF
ENCODING 7855
SWIDTH 526 0
DWIDTH 9 0
BBX 11 15 -1 0
BITMAP
000280
000340
000600
00A1A0
006E40
000000
01FBE0
0BDBD0
1F47C0
2F0BC0
3E0F80
7D0F40
7D1F48
3FAFE4
1F8B90
ENDCHAR
STARTCHAR uni1EB0
ENCODING 7856
SWIDTH 668 0
DWIDTH 12 0
BBX 14 20 0 -2
BITMAP
00000700
00000300
00003470
00001A80
00000000
00002F40
0001AF40
00076F00
000D3E00
00283E00
1BF97D00
B9F5FC00
B6D0BC00
03C0F800
0B81F400
0F41F400
1F02F000
1F03E000
1E000000
0A000000
ENDCHAR
STARTCHAR uni1EB1
ENCODING 7857
SWIDTH 526 0
DWIDTH 9 0
BBX 11 15 -1 0
BITMAP
001C00
000D00
000500
00A0A0
006E40
000000
01FBE0
0BDBD0
1F47C0
2F0BC0
3E0F80
7D0F40
7D1F48
3FAFE4
1F8B90
ENDCHAR
STARTCHAR uni1EB2
ENCODING 7858
SWIDTH 668 0
DWIDTH 12 0
BBX 14 20 0 -2
BITMAP
00000780
00001390
00003570
00001FD0
00000000
00002F40
0001AF40
00076F00
000D3E00
00283E00
1BF97D00
B9F5FC00
B6D0BC00
03C0F800
0B81F400
0F41F400
1F02F000
1F03E000
1E000000
0A000000
ENDCHAR
STARTCHAR uni1EB3
ENCODING 7859
SWIDTH 526 0
DWIDTH 9 0
BBX 11 15 -1 0
BITMAP
000B00
000640
000B40
00A5A0
006E40
000000
01FBE0
0BDBD0
1F47C0
2F0BC0
3E0F80
7D0F40
7D1F48
3FAFE4
1F8B90
ENDCHAR
STARTCHAR uni1EB4
ENCODING 7860
SWIDTH 668 0
DWIDTH 12 0
BBX 14 20 0 -2
BITMAP
00000590
00001150
00003470
00001A80
00000000
00002F40
0001AF40
00076F00
000D3E00
00283E00
1BF97D00
B9F5FC00
B6D0BC00
03C0F800
0B81F400
0F41F400
1F02F000
1F03E000
1E000000
0A000000
ENDCHAR
STARTCHAR uni1EB5
ENCODING 7861
SWIDTH 526 0
DWIDTH 9 0
BBX 11 15 -1 0
BITMAP
001B90
000000
000000
00A0A0
006E80
000000
01FBE0
0BDBD0
1F47C0
2F0BC0
3E0F80
7D0F40
7D1F48
3FAFE4
1F8B90
ENDCHAR
STARTCHAR uni1EB6
ENCODING 7862
SWIDTH 668 0
DWIDTH 12 0
BBX 15 21 0 -4
BITMAP
0000B038
000074B4
00002F90
00000000
00002F40
0001AF40
00076F00
000D3E00
00283E00
1BF97D00
B9F5FC00
B6D0BC00
03C0F800
0B81F400
0F41F400
1F02F000
1F03E000
1E000000
0A1A0000
002F0000
001E0000
ENDCHAR
STARTCHAR uni1EB7
ENCODING 7863
SWIDTH 526 0
DWIDTH 9 0
BBX 11 17 -1 -4
BITMAP
01E0B0
007F80
000000
000000
01FBE0
0BDBD0
1F47C0
2F0BC0
3E0F80
7D0F40
7D1F48
3FAFE4
1F8B90
000000
028000
07D000
03C000
ENDCHAR
STARTCHAR uni1EB8
ENCODING 7864
SWIDTH 459 0
DWIDTH 8 0
BBX 9 17 0 -4
BITMAP
00BE00
02E280
07C280
0B8240
07C000
03E000
1F8000
3F0000
BD0000
BD0040
BE0240
7FFD00
1FE000
000000
1A0000
2F0000
1E0000
ENDCHAR
STARTCHAR uni1EB9
ENCODING 7865
SWIDTH 384 0
DWIDTH 7 0
BBX 8 13 -1 -4
BITMAP
01FD
0BDE
1F4D
2E2C
3FE0
7E00
7D02
3E19
1BE0
0000
0A00
1F40
1E00
ENDCHAR
STARTCHAR uni1EBA
ENCODING 7866
SWIDTH 459 0
DWIDTH 8 0
BBX 9 18 0 0
BITMAP
001F40
0006C0
000D00
000000
000000
00BE00
02E280
07C280
0B8240
07C000
03E000
1F8000
3F0000
BD0000
BD0040
BE0240
7FFD00
1FE000
ENDCHAR
STARTCHAR uni1EBB
ENCODING 7867
SWIDTH 384 0
DWIDTH 7 0
BBX 8 13 -1 0
BITMAP
007D
000A
0034
0000
01FD
0BDE
1F4D
2E2C
3FE0
7E00
7D02
3E19
1BE0
ENDCHAR
STARTCHAR uni1EBC
ENCODING 7868
SWIDTH 459 0
DWIDTH 8 0
BBX 11 17 0 0
BITMAP
006E44
00ABE0
000000
000000
00BE00
02E280
07C280
0B8240
07C000
03E000
1F8000
3F0000
BD0000
BD0040
BE0240
7FFD00
1FE000
ENDCHAR
STARTCHAR uni1EBD
ENCODING 7869
SWIDTH 384 0
DWIDTH 7 0
BBX 9 12 -1 0
BITMAP
02FA40
05BE00
000000
01FD00
0BDE00
1F4D00
2E2C00
3FE000
7E0000
7D0200
3E1900
1BE000
ENDCHAR
STARTCHAR uni1EBE
ENCODING 7870
SWIDTH 459 0
DWIDTH 8 0
BBX 11 18 0 0
BITMAP
000018
000730
001A90
005040
000000
00BE00
02E280
07C280
0B8240
07C000
03E000
1F8000
3F0000
BD0000
BD0040
BE0240
7FFD00
1FE000
ENDCHAR
STARTCHAR uni1EBF
ENCODING 7871
SWIDTH 384 0
DWIDTH 7 0
BBX 11 16 -1 0
BITMAP
000014
000034
000060
000940
007A00
018200
000000
01FD00
0BDE00
1F4D00
2E2C00
3FE000
7E0000
7D0200
3E1900
1BE000
ENDCHAR
STARTCHAR uni1EC0
ENCODING 7872
SWIDTH 459 0
DWIDTH 8 0
BBX 10 18 0 0
BITMAP
000070
000720
002580
000000
000000
00BE00
02E280
07C280
0B8240
07C000
03E000
1F8000
3F0000
BD0000
BD0040
BE0240
7FFD00
1FE000
ENDCHAR
STARTCHAR uni1EC1
ENCODING 7873
SWIDTH 384 0
DWIDTH 7 0
BBX 10 15 -1 0
BITMAP
0000D0
000090
000960
007A00
018200
000000
01FD00
0BDE00
1F4D00
2E2C00
3FE000
7E0000
7D0200
3E1900
1BE000
ENDCHAR
STARTCHAR uni1EC2
ENCODING 7874
SWIDTH 459 0
DWIDTH 8 0
BBX 11 18 0 0
BITMAP
000038
00023C
001A50
006040
000000
00BE00
02E280
07C280
0B8240
07C000
03E000
1F8000
3F0000
BD0000
BD0040
BE0240
7FFD00
1FE000
ENDCHAR
STARTCHAR uni1EC3
ENCODING 7875
SWIDTH 384 0
DWIDTH 7 0
BBX 10 15 -1 0
BITMAP
0001E0
000070
000990
007E00
019200
000000
01FD00
0BDE00
1F4D00
2E2C00
3FE000
7E0000
7D0200
3E1900
1BE000
ENDCHAR
STARTCHAR uni1EC4
ENCODING 7876
SWIDTH 459 0
DWIDTH 8 0
BBX 10 18 0 0
BITMAP
001F90
000780
001A40
005040
000000
00BE00
02E280
07C280
0B8240
07C000
03E000
1F8000
3F0000
BD0000
BD0040
BE0240
7FFD00
1FE000
ENDCHAR
STARTCHAR uni1EC5
ENCODING 7877
SWIDTH 384 0
DWIDTH 7 0
BBX 9 15 -1 0
BITMAP
001E80
000000
000900
007E00
019200
000000
01FD00
0BDE00
1F4D00
2E2C00
3FE000
7E0000
7D0200
3E1900
1BE000
ENDCHAR
STARTCHAR uni1EC6
ENCODING 7878
SWIDTH 459 0
DWIDTH 8 0
BBX 9 22 0 -4
BITMAP
000700
001F40
007580
004040
000000
00BE00
02E280
07C280
0B8240
07C000
03E000
1F8000
3F0000
BD0000
BD0040
BE0240
7FFD00
1FE000
000000
1A0000
2F0000
1E0000
ENDCHAR
STARTCHAR uni1EC7
ENCODING 7879
SWIDTH 384 0
DWIDTH 7 0
BBX 8 17 -1 -4
BITMAP
0009
007E
0192
0000
01FD
0BDE
1F4D
2E2C
3FE0
7E00
7D02
3E19
1BE0
0000
0A00
1F40
1E00
ENDCHAR
STARTCHAR uni1EC8
ENCODING 7880
SWIDTH 375 0
DWIDTH 7 0
BBX 9 18 0 0
BITMAP
002E00
001740
000300
002400
000000
01BC00
0AF800
38F800
B1F400
F1F000
A2F000
03E000
03D000
07D000
0BC000
0B8000
0F8000
1F4000
ENDCHAR
STARTCHAR uni1EC9
ENCODING 7881
SWIDTH 267 0
DWIDTH 5 0
BBX 6 13 0 0
BITMAP
1F80
05C0
0A00
0000
3E00
3D00
7D00
BC00
BC00
F800
F490
FE80
7D00
ENDCHAR
STARTCHAR uni1ECA
ENCODING 7882
SWIDTH 375 0
DWIDTH 7 0
BBX 7 17 0 -4
BITMAP
01BC
0AF8
38F8
B1F4
F1F0
A2F0
03E0
03D0
07D0
0BC0
0B80
0F80
1F40
0000
1900
3F00
2D00
ENDCHAR
STARTCHAR uni1ECB
ENCODING 7883
SWIDTH 267 0
DWIDTH 5 0
BBX 7 16 -1 -4
BITMAP
03C0
07D0
0280
0F80
0F40
1F40
2F00
2F00
3E00
3D24
3FA0
1F40
0000
6400
BC00
7800
ENDCHAR
STARTCHAR uni1ECC
ENCODING 7884
SWIDTH 665 0
DWIDTH 12 0
BBX 12 17 0 -4
BITMAP
006FE0
07957C
2D7D2E
74F42E
B2F02E
77D02E
0BC03E
0BC07D
0F80BC
0F80F4
0F82E0
0BEBC0
02FE00
000000
01A000
02F000
01E000
ENDCHAR
STARTCHAR uni1ECD
ENCODING 7885
SWIDTH 433 0
DWIDTH 8 0
BBX 11 13 -1 -4
BITMAP
01F800
0BDA00
1F4E18
2F0F90
3E0A00
7D0D00
7D1C00
3E7400
1F9000
000000
0A0000
1F4000
1E0000
ENDCHAR
STARTCHAR uni1ECE
ENCODING 7886
SWIDTH 665 0
DWIDTH 12 0
BBX 12 18 0 0
BITMAP
0002E0
000174
000024
000180
000000
006FE0
07957C
2D7D2E
74F42E
B2F02E
77D02E
0BC03E
0BC07D
0F80BC
0F80F4
0F82E0
0BEBC0
02FE00
ENDCHAR
STARTCHAR uni1ECF
ENCODING 7887
SWIDTH 433 0
DWIDTH 8 0
BBX 11 13 -1 0
BITMAP
002E00
001740
002900
000000
01F800
0BDA00
1F4E18
2F0F90
3E0A00
7D0D00
7D1C00
3E7400
1F9000
ENDCHAR
STARTCHAR uni1ED0
ENCODING 7888
SWIDTH 665 0
DWIDTH 12 0
BBX 13 18 0 0
BITMAP
00000340
0000A600
00026400
00041000
00000000
006FE000
07957C00
2D7D2E00
74F42E00
B2F02E00
77D02E00
0BC03E00
0BC07D00
0F80BC00
0F80F400
0F82E000
0BEBC000
02FE0000
ENDCHAR
STARTCHAR uni1ED1
ENCODING 7889
SWIDTH 433 0
DWIDTH 8 0
BBX 11 16 -1 0
BITMAP
000014
000034
000060
000940
007A00
018200
000000
01F800
0BDA00
1F4E18
2F0F90
3E0A00
7D0D00
7D1C00
3E7400
1F9000
ENDCHAR
STARTCHAR uni1ED2
ENCODING 7890
SWIDTH 665 0
DWIDTH 12 0
BBX 12 18 0 0
BITMAP
000009
0000A6
000620
000000
000000
006FE0
07957C
2D7D2E
74F42E
B2F02E
77D02E
0BC03E
0BC07D
0F80BC
0F80F4
0F82E0
0BEBC0
02FE00
ENDCHAR
STARTCHAR uni1ED3
ENCODING 7891
SWIDTH 433 0
DWIDTH 8 0
BBX 11 15 -1 0
BITMAP
0000D0
000090
000960
007A00
018200
000000
01F800
0BDA00
1F4E18
2F0F90
3E0A00
7D0D00
7D1C00
3E7400
1F9000
ENDCHAR
STARTCHAR uni1ED4
ENCODING 7892
SWIDTH 665 0
DWIDTH 12 0
BBX 13 18 0 0
BITMAP
00000740
00005780
00026500
00051000
00000000
006FE000
07957C00
2D7D2E00
74F42E00
B2F02E00
77D02E00
0BC03E00
0BC07D00
0F80BC00
0F80F400
0F82E000
0BEBC000
02FE0000
ENDCHAR
STARTCHAR uni1ED5
ENCODING 7893
SWIDTH 433 0
DWIDTH 8 0
BBX 11 15 -1 0
BITMAP
0001E0
000070
0009E0
003D40
009600
000000
01F800
0BDA00
1F4E18
2F0F90
3E0A00
7D0D00
7D1C00
3E7400
1F9000
ENDCHAR
STARTCHAR uni1ED6
ENCODING 7894
SWIDTH 665 0
DWIDTH 12 0
BBX 12 18 0 0
BITMAP
0002F9
0000A4
000270
000410
000000
006FE0
07957C
2D7D2E
74F42E
B2F02E
77D02E
0BC03E
0BC07D
0F80BC
0F80F4
0F82E0
0BEBC0
02FE00
ENDCHAR
STARTCHAR uni1ED7
ENCODING 7895
SWIDTH 433 0
DWIDTH 8 0
BBX 11 16 -1 0
BITMAP
001500
002B80
000000
000900
007E00
019200
000000
01F800
0BDA00
1F4E18
2F0F90
3E0A00
7D0D00
7D1C00
3E7400
1F9000
ENDCHAR
STARTCHAR uni1ED8
ENCODING 7896
SWIDTH 665 0
DWIDTH 12 0
BBX 12 22 0 -4
BITMAP
000090
0002E0
000E60
001010
000000
006FE0
07957C
2D7D2E
74F42E
B2F02E
77D02E
0BC03E
0BC07D
0F80BC
0F80F4
0F82E0
0BEBC0
02FE00
000000
01A000
02F000
01E000
ENDCHAR
STARTCHAR uni1ED9
ENCODING 7897
SWIDTH 433 0
DWIDTH 8 0
BBX 11 17 -1 -4
BITMAP
001C00
007D00
029600
000000
01F800
0BDA00
1F4E18
2F0F90
3E0A00
7D0D00
7D1C00
3E7400
1F9000
000000
0A0000
1F4000
1E0000
ENDCHAR
STARTCHAR uni1EDA
ENCODING 7898
SWIDTH 665 0
DWIDTH 12 0
BBX 13 18 0 0
BITMAP
00007400
0000E000
0001C140
000142C0
00000280
006FE340
07957E00
2D7D2D00
74F42E00
B2F02E00
77D02E00
0BC03E00
0BC07D00
0F80BC00
0F80F800
0F82E000
0BEBC000
02FE0000
ENDCHAR
STARTCHAR uni1EDB
ENCODING 7899
SWIDTH 439 0
DWIDTH 8 0
BBX 10 13 -1 0
BITMAP
000B00
001D00
0028A0
0000E0
01B9C0
0BDB40
1F4700
2F0B00
3E0B00
7E0E00
3D1D00
3E7400
1B9000
ENDCHAR
STARTCHAR uni1EDC
ENCODING 7900
SWIDTH 665 0
DWIDTH 12 0
BBX 13 18 0 0
BITMAP
001D0000
000E0000
000A02C0
000002C0
00000280
006FE340
07957E00
2D7D2D00
74F42E00
B2F02E00
77D02E00
0BC03E00
0BC07D00
0F80BC00
0F80F800
0F82E000
0BEBC000
02FE0000
ENDCHAR
STARTCHAR uni1EDD
ENCODING 7901
SWIDTH 439 0
DWIDTH 8 0
BBX 10 13 -1 0
BITMAP
00B400
007400
0038A0
0000E0
01BAC0
0BDB40
1F4700
2F0B00
3E0B00
7E0E00
3D1D00
3E7400
1B9000
ENDCHAR
STARTCHAR uni1EDE
ENCODING 7902
SWIDTH 665 0
DWIDTH 12 0
BBX 13 18 0 0
BITMAP
0002E000
00017400
00002400
00018280
000002C0
006FE340
07957E00
2D7D2D00
74F42E00
B2F02E00
77D02E00
0BC03E00
0BC07D00
0F80BC00
0F80F800
0F82E000
0BEBC000
02FE0000
ENDCHAR
STARTCHAR uni1EDF
ENCODING 7903
SWIDTH 439 0
DWIDTH 8 0
BBX 10 13 -1 0
BITMAP
002E00
001740
0029A0
0000A0
01B9C0
0BDB40
1F4700
2F0B00
3E0B00
7E0E00
3D1D00
3E7400
1B9000
ENDCHAR
STARTCHAR uni1EE0
ENCODING 7904
SWIDTH 665 0
DWIDTH 12 0
BBX 13 17 0 0
BITMAP
00054000
002FF540
000142C0
00000280
006FE340
07957E00
2D7D2D00
74F42E00
B2F02E00
77D02E00
0BC03E00
0BC07D00
0F80BC00
0F80F800
0F82E000
0BEBC000
02FE0000
ENDCHAR
STARTCHAR uni1EE1
ENCODING 7905
SWIDTH 439 0
DWIDTH 8 0
BBX 10 12 -1 0
BITMAP
02E950
05B8A0
0000E0
01BAC0
0BDB40
1F4700
2F0B00
3E0B00
7D0E00
3E2D00
3FB400
1B9000
ENDCHAR
STARTCHAR uni1EE2
ENCODING 7906
SWIDTH 665 0
DWIDTH 12 0
BBX 13 20 0 -4
BITMAP
00000140
000002C0
00000280
006FE340
07957E00
2D7D2D00
74F42E00
B2F02E00
77D02E00
0BC03E00
0BC07D00
0F80BC00
0F80F800
0F82E000
0BEBC000
02FE0000
00000000
01A00000
02F00000
01E00000
ENDCHAR
STARTCHAR uni1EE3
ENCODING 7907
SWIDTH 439 0
DWIDTH 8 0
BBX 10 16 -1 -4
BITMAP
000050
0000A0
0000E0
01BAC0
0BDB40
1F4700
2F0B00
3E0B00
7E0E00
3D1D00
3E7400
1B9000
000000
0A0000
1F4000
1E0000
ENDCHAR
STARTCHAR uni1EE4
ENCODING 7908
SWIDTH 716 0
DWIDTH 13 0
BBX 14 17 0 -4
BITMAP
01BD03D0
1EBD07D0
74BC0BC0
F0F80BC0
E0F40F80
A1F01F40
02E01F00
03E02F00
03D03E00
07C07D00
07D0F800
03FBF000
01BF8000
00000000
00640000
00BC0000
00780000
ENDCHAR
STARTCHAR uni1EE5
ENCODING 7909
SWIDTH 505 0
DWIDTH 9 0
BBX 10 13 0 -4
BITMAP
3E1F00
3D2F00
7D3E00
BC3E00
BC7D00
F8BC10
F8FC60
FFBEC0
7D2E00
000000
0A0000
2F4000
1E0000
ENDCHAR
STARTCHAR uni1EE6
ENCODING 7910
SWIDTH 716 0
DWIDTH 13 0
BBX 14 18 0 0
BITMAP
00007D00
00005A00
00000A00
00003400
00000000
01BD03D0
1EBD07D0
74BC0BC0
F0F80BC0
E0F40F80
A1F01F40
02E01F00
03E02F00
03D03E00
07C07D00
07D0F800
03FBF000
01BF8000
ENDCHAR
STARTCHAR uni1EE7
ENCODING 7911
SWIDTH 505 0
DWIDTH 9 0
BBX 10 13 0 0
BITMAP
01F800
001C00
00D000
000000
3E1F00
3D2F00
7D3E00
BC3E00
BC7D00
F8BC10
F8FC60
FFBEC0
7D2E00
ENDCHAR
STARTCHAR uni1EE8
ENCODING 7912
SWIDTH 716 0
DWIDTH 13 0
BBX 16 18 0 0
BITMAP
00000B00
00000E05
00002C0E
0000140D
00000018
01BD03E0
1EBD07D0
74BC0BC0
F0F80B80
E0F40F80
A1F01F40
02E01F00
03E02F00
03D03E00
07C07D00
07D0F800
03FBF000
01BF8000
ENDCHAR
STARTCHAR uni1EE9
ENCODING 7913
SWIDTH 505 0
DWIDTH 9 0
BBX 10 13 0 0
BITMAP
001D00
003850
0070A0
0000D0
3E1F80
3D2F00
7D3E00
BC3E00
BC7D00
F8BC10
F8FC60
FFBEC0
7D2E00
ENDCHAR
STARTCHAR uni1EEA
ENCODING 7914
SWIDTH 716 0
DWIDTH 13 0
BBX 16 18 0 0
BITMAP
0002D000
0001D00D
0000A00E
0000000D
00000028
01BD03D0
1EBD07C0
74BC0BC0
F0F80B80
E0F40F80
A1F01F40
02E01F00
03E02F00
03D03E00
07C07D00
07D0F800
03FBF000
01BF8000
ENDCHAR
STARTCHAR uni1EEB
ENCODING 7915
SWIDTH 505 0
DWIDTH 9 0
BBX 10 13 0 0
BITMAP
01D000
00D050
00A0A0
0000D0
3E1F80
3D2F00
7D3E00
BC3E00
BC7D00
F8BC10
F8FC60
FFBEC0
7D2E00
ENDCHAR
STARTCHAR uni1EEC
ENCODING 7916
SWIDTH 716 0
DWIDTH 13 0
BBX 16 18 0 0
BITMAP
00007D00
00005A05
00000A0E
0000340D
00000018
01BD03E0
1EBD07D0
74BC0BC0
F0F80B80
E0F40F80
A1F01F40
02E01F00
03E02F00
03D03E00
07C07D00
07D0F800
03FBF000
01BF8000
ENDCHAR
STARTCHAR uni1EED
ENCODING 7917
SWIDTH 505 0
DWIDTH 9 0
BBX 10 13 0 0
BITMAP
01F800
001C00
00D0A0
0000E0
3E1FC0
3D2F00
7D3E00
BC3E00
BC7D00
F8BC10
F8FC60
FFBEC0
7D2E00
ENDCHAR
STARTCHAR uni1EEE
ENCODING 7918
SWIDTH 716 0
DWIDTH 13 0
BBX 16 17 0 0
BITMAP
00005405
0006FF8E
0000150D
00000018
01BD03E0
1EBD07D0
74BC0BC0
F0F80B80
E0F40F80
A1F01F40
02E01F00
03E02F00
03D03E00
07C07D00
07D0F800
03FBF000
01BF8000
ENDCHAR
STARTCHAR uni1EEF
ENCODING 7919
SWIDTH 505 0
DWIDTH 9 0
BBX 10 12 0 0
BITMAP
02E9A0
05A4A0
0000D0
3E1F80
3D2F00
7D3E00
BC3E00
BC7D00
F8BC10
F8FC60
FFBEC0
7D2E00
ENDCHAR
STARTCHAR uni1EF0
ENCODING 7920
SWIDTH 716 0
DWIDTH 13 0
BBX 16 21 0 -4
BITMAP
00000005
0000000E
0000000D
00000018
01BD03E0
1EBD07D0
74BC0BC0
F0F80B80
E0F40F80
A1F01F40
02E01F00
03E02F00
03D03E00
07C07D00
07D0F800
03FBF000
01BF8000
00000000
00640000
00BC0000
00780000
ENDCHAR
STARTCHAR uni1EF1
ENCODING 7921
SWIDTH 505 0
DWIDTH 9 0
BBX 10 16 0 -4
BITMAP
0000A0
0000A0
0000D0
3E1F40
3D2F00
7D3E00
BC3E00
BC7D00
F8BC10
F8FC60
FFBEC0
7D2E00
000000
0A0000
2F4000
1E0000
ENDCHAR
STARTCHAR Ygrave
ENCODING 7922
SWIDTH 620 0
DWIDTH 11 0
BBX 13 18 0 0
BITMAP
0001E000
0000E000
0000B000
00000000
00000000
01BD0340
0ABE0700
387E0900
B03F0C00
F02F6800
A01FB000
000FE000
000FC000
000FC000
001F8000
001F4000
002F4000
003F0000
ENDCHAR
STARTCHAR ygrave
ENCODING 7923
SWIDTH 505 0
DWIDTH 9 0
BBX 9 17 0 -4
BITMAP
02D000
01D000
00E000
000000
3E1F00
3D2F00
7D3E00
BC3E00
BC7D00
F8BC00
F8FC80
FFF980
7EF900
0BF400
26F000
37E000
2F8000
ENDCHAR
STARTCHAR uni1EF4
ENCODING 7924
SWIDTH 620 0
DWIDTH 11 0
BBX 13 17 0 -4
BITMAP
01BD0340
0ABE0700
387E0900
B03F0C00
F02F6800
A01FB000
000FE000
000FC000
000FC000
001F8000
001F4000
002F4000
003F0000
00000000
00280000
007D0000
00780000
ENDCHAR
STARTCHAR uni1EF5
ENCODING 7925
SWIDTH 505 0
DWIDTH 9 0
BBX 9 13 0 -4
BITMAP
3E1F00
3D2F00
7D3E00
BC3E00
BC7D00
F8BC00
F8FC80
FFF980
7EF900
0BF400
26F100
3BEB80
2F8740
ENDCHAR
STARTCHAR uni1EF6
ENCODING 7926
SWIDTH 620 0
DWIDTH 11 0
BBX 13 18 0 0
BITMAP
00007D00
00005A00
00000A00
00003400
00000000
01BD0340
0ABE0700
387E0900
B03F0C00
F02F6800
A01FB000
000FE000
000FC000
000FC000
001F8000
001F4000
002F4000
003F0000
ENDCHAR
STARTCHAR uni1EF7
ENCODING 7927
SWIDTH 505 0
DWIDTH 9 0
BBX 9 17 0 -4
BITMAP
01F800
00E400
000000
000000
3E1F00
3D2F00
7D3E00
BC3E00
BC7D00
F8BC00
F8FC80
FFF980
7EF900
0BF400
26F000
37E000
2F8000
ENDCHAR
STARTCHAR uni1EF8
ENCODING 7928
SWIDTH 620 0
DWIDTH 11 0
BBX 13 17 0 0
BITMAP
00015000
000BFF40
00005400
00000000
01BD0340
0ABE0700
387E0900
B03F0C00
F02F6800
A01FB000
000FE000
000FC000
000FC000
001F8000
001F4000
002F4000
003F0000
ENDCHAR
STARTCHAR uni1EF9
ENCODING 7929
SWIDTH 505 0
DWIDTH 9 0
BBX 9 16 0 -4
BITMAP
06FA40
05A900
000000
3E1F00
3D2F00
7D3E00
BC3E00
BC7D00
F8BC00
F8FC80
FFF980
7EF900
0BF400
26F000
37E000
2F8000
ENDCHAR
STARTCHAR uni2010
ENCODING 8208
SWIDTH 290 0
DWIDTH 5 0
BBX 4 1 0 4
BITMAP
7F
ENDCHAR
STARTCHAR endash
ENCODING 8211
SWIDTH 352 0
DWIDTH 6 0
BBX 6 1 0 4
BITMAP
7FD0
ENDCHAR
STARTCHAR emdash
ENCODING 8212
SWIDTH 444 0
DWIDTH 8 0
BBX 7 1 0 4
BITMAP
7FF8
ENDCHAR
STARTCHAR quoteleft
ENCODING 8216
SWIDTH 209 0
DWIDTH 4 0
BBX 3 4 1 9
BITMAP
08
34
7C
38
ENDCHAR
STARTCHAR quoteright
ENCODING 8217
SWIDTH 238 0
DWIDTH 4 0
BBX 3 4 1 9
BITMAP
38
7C
28
20
ENDCHAR
STARTCHAR quotesinglbase
ENCODING 8218
SWIDTH 220 0
DWIDTH 4 0
BBX 3 4 0 -1
BITMAP
B0
F4
60
80
ENDCHAR
STARTCHAR quotedblleft
ENCODING 8220
SWIDTH 429 0
DWIDTH 8 0
BBX 7 4 1 9
BITMAP
0824
3470
7CB8
38B4
ENDCHAR
STARTCHAR quotedblright
ENCODING 8221
SWIDTH 426 0
DWIDTH 8 0
BBX 6 4 2 9
BITMAP
B5E0
F5F0
7090
9080
ENDCHAR
STARTCHAR quotedblbase
ENCODING 8222
SWIDTH 440 0
DWIDTH 8 0
BBX 6 4 0 -1
BITMAP
B1D0
F6E0
60D0
8180
ENDCHAR
STARTCHAR dagger
ENCODING 8224
SWIDTH 495 0
DWIDTH 9 0
BBX 8 17 1 -4
BITMAP
00A0
00D0
00D0
01C0
0280
7FFD
BFFC
0700
0600
0A00
0D00
0C00
1C00
2800
2800
3400
7000
ENDCHAR
STARTCHAR daggerdbl
ENCODING 8225
SWIDTH 495 0
DWIDTH 9 0
BBX 9 17 0 -4
BITMAP
002800
003400
003400
007000
00A000
1FFF40
2FFF00
01C000
01C000
7FFD00
7FFD00
034000
070000
0A0000
0A0000
0D0000
1C0000
ENDCHAR
STARTCHAR bullet
ENCODING 8226
SWIDTH 434 0
DWIDTH 8 0
BBX 4 3 2 3
BITMAP
7D
BE
7D
ENDCHAR
STARTCHAR ellipsis
ENCODING 8230
SWIDTH 702 0
DWIDTH 13 0
BBX 12 3 0 0
BITMAP
282919
7D7E2F
3C2D1E
ENDCHAR
STARTCHAR perthousand
ENCODING 8240
SWIDTH 1175 0
DWIDTH 21 0
BBX 20 13 1 0
BITMAP
0B80280000
39D0700000
B4E0D00000
F0E1800000
E1D3400000
E2CA000000
E39C2F40BD
7E28B6C2DA
0071E2C74B
00D1D2CB0F
0282C38B0E
0341DB4B2C
0A00B902E0
ENDCHAR
STARTCHAR minute
ENCODING 8242
SWIDTH 196 0
DWIDTH 4 0
BBX 4 5 1 8
BITMAP
2D
38
74
60
50
ENDCHAR
STARTCHAR second
ENCODING 8243
SWIDTH 341 0
DWIDTH 6 0
BBX 6 5 1 8
BITMAP
2DE0
39D0
7680
6340
5100
ENDCHAR
STARTCHAR guilsinglleft
ENCODING 8249
SWIDTH 359 0
DWIDTH 6 0
BBX 6 7 0 1
BITMAP
0060
0280
2900
B000
1D00
0280
0040
ENDCHAR
STARTCHAR guilsinglright
ENCODING 8250
SWIDTH 344 0
DWIDTH 6 0
BBX 6 7 0 1
BITMAP
2400
0A00
01D0
00A0
0780
7400
4000
ENDCHAR
STARTCHAR fraction
ENCODING 8260
SWIDTH 248 0
DWIDTH 4 0
BBX 9 13 -2 0
BITMAP
000280
000700
000A00
001C00
003400
006000
00D000
028000
070000
0A0000
1C0000
340000
A00000
ENDCHAR
STARTCHAR uni2052
ENCODING 8274
SWIDTH 796 0
DWIDTH 14 0
BBX 10 13 2 0
BITMAP
3C00A0
7D01C0
280340
000600
000D00
002800
007000
00A000
01C000
034000
0A0180
0D03E0
2802D0
ENDCHAR
STARTCHAR uni2070
ENCODING 8304
SWIDTH 379 0
DWIDTH 7 0
BBX 6 8 1 5
BITMAP
0B80
39D0
B4E0
F0E0
E1D0
E2C0
E380
7E00
ENDCHAR
STARTCHAR uni2074
ENCODING 8308
SWIDTH 352 0
DWIDTH 6 0
BBX 5 8 1 5
BITMAP
2580
2AC0
3780
6340
AF80
0B00
0A00
0500
ENDCHAR
STARTCHAR uni2075
ENCODING 8309
SWIDTH 335 0
DWIDTH 6 0
BBX 5 7 1 6
BITMAP
2F80
2000
7E00
5780
A380
D740
BE00
ENDCHAR
STARTCHAR uni2076
ENCODING 8310
SWIDTH 351 0
DWIDTH 6 0
BBX 5 8 1 5
BITMAP
0B80
39C0
B440
FB40
EA80
E280
E340
7E00
ENDCHAR
STARTCHAR uni2077
ENCODING 8311
SWIDTH 329 0
DWIDTH 6 0
BBX 5 7 1 6
BITMAP
BF80
4700
0900
2800
7000
E000
A000
ENDCHAR
STARTCHAR uni2078
ENCODING 8312
SWIDTH 354 0
DWIDTH 6 0
BBX 5 8 1 5
BITMAP
1F80
39C0
39C0
1F00
6B40
D3C0
D380
7E00
ENDCHAR
STARTCHAR uni2079
ENCODING 8313
SWIDTH 345 0
DWIDTH 6 0
BBX 5 8 1 5
BITMAP
2F40
7780
D2C0
D6C0
7A80
0340
8A00
A400
ENDCHAR
STARTCHAR uni2080
ENCODING 8320
SWIDTH 379 0
DWIDTH 7 0
BBX 6 7 1 0
BITMAP
1B80
79D0
B0E0
E1E0
E1D0
E780
7E00
ENDCHAR
STARTCHAR uni2081
ENCODING 8321
SWIDTH 229 0
DWIDTH 4 0
BBX 3 8 1 0
BITMAP
14
F8
34
74
70
B0
E0
D0
ENDCHAR
STARTCHAR uni2082
ENCODING 8322
SWIDTH 328 0
DWIDTH 6 0
BBX 5 7 1 0
BITMAP
2F40
6780
6340
0A00
2400
9000
FF40
ENDCHAR
STARTCHAR uni2083
ENCODING 8323
SWIDTH 336 0
DWIDTH 6 0
BBX 5 7 1 0
BITMAP
1F40
3680
2680
0A00
9380
D380
6A00
ENDCHAR
STARTCHAR uni2084
ENCODING 8324
SWIDTH 352 0
DWIDTH 6 0
BBX 5 7 1 0
BITMAP
2980
3680
6340
BF80
0B00
0B00
0E00
ENDCHAR
STARTCHAR uni2085
ENCODING 8325
SWIDTH 335 0
DWIDTH 6 0
BBX 5 7 1 0
BITMAP
2F80
2000
7E00
5780
A380
D740
BD00
ENDCHAR
STARTCHAR uni2086
ENCODING 8326
SWIDTH 351 0
DWIDTH 6 0
BBX 5 7 1 0
BITMAP
1B80
3880
BB40
EA80
E280
E740
7D00
ENDCHAR
STARTCHAR uni2087
ENCODING 8327
SWIDTH 329 0
DWIDTH 6 0
BBX 5 7 1 0
BITMAP
BF80
4600
0900
2800
B000
E000
A000
ENDCHAR
STARTCHAR uni2088
ENCODING 8328
SWIDTH 354 0
DWIDTH 6 0
BBX 5 7 1 0
BITMAP
1F80
39C0
2E80
2F40
A380
E380
7E00
ENDCHAR
STARTCHAR uni2089
ENCODING 8329
SWIDTH 345 0
DWIDTH 6 0
BBX 5 7 1 0
BITMAP
2F40
A2C0
D2C0
BAC0
0380
8700
A900
ENDCHAR
STARTCHAR colonmonetary
ENCODING 8353
SWIDTH 384 0
DWIDTH 7 0
BBX 8 13 0 -1
BITMAP
00CC
0198
02F8
1F5E
3C1D
7800
B400
F400
B400
7810
2FE0
2640
2300
ENDCHAR
STARTCHAR franc
ENCODING 8355
SWIDTH 529 0
DWIDTH 10 0
BBX 11 13 0 0
BITMAP
00FFF4
00F800
00F400
01F400
02F000
02FF40
03E000
07D000
07D000
BFFD00
0F8000
0F8000
1F4000
ENDCHAR
STARTCHAR lira
ENCODING 8356
SWIDTH 455 0
DWIDTH 8 0
BBX 10 13 0 0
BITMAP
002F80
00F6D0
02E2C0
03D000
07D000
3FFE00
0B8000
7FFC00
1F4000
1F0000
2E0180
3FFF80
BFFE40
ENDCHAR
STARTCHAR uni20A6
ENCODING 8358
SWIDTH 723 0
DWIDTH 13 0
BBX 14 13 0 0
BITMAP
00BC03C0
00BD0380
00FE0740
01FE0B00
02EF0E00
7FFFFFE0
038F9D00
BFFFFFD0
0B4BEC00
0B07F800
0F03F400
0E03F400
1D02F000
ENDCHAR
STARTCHAR uni20A9
ENCODING 8361
SWIDTH 841 0
DWIDTH 15 0
BBX 17 13 0 0
BITMAP
0BC03D0340
0BC07D0700
0BC0FD0A00
0BC1FD0D00
07C2FD1800
07C37D2400
7FFFFFFF40
07C93D6000
BFFFFFFF00
07D87EC000
07E43E8000
07F03F0000
07D03E0000
ENDCHAR
STARTCHAR Euro
ENCODING 8364
SWIDTH 507 0
DWIDTH 9 0
BBX 11 13 0 0
BITMAP
001BE0
00B978
01F078
07D0B4
0BC000
3FFF80
1F8000
7FFF00
1F8000
0F8000
0FD040
07FF80
01FE00
ENDCHAR
STARTCHAR uni20AE
ENCODING 8366
SWIDTH 481 0
DWIDTH 9 0
BBX 13 13 0 0
BITMAP
06FF9080
1D6FFF80
743E6A00
B03E0000
E07D0000
A0BD0000
11BEE000
2FF80000
11FF9000
6FF40000
02F00000
02E00000
03E00000
ENDCHAR
STARTCHAR uni20B3
ENCODING 8371
SWIDTH 573 0
DWIDTH 10 0
BBX 11 13 0 0
BITMAP
01BF80
0A45F0
38B878
B1F478
E1F4B4
62F0F0
03E2D0
1FFE40
07D000
3FFE00
0BC000
0F8000
1F4000
ENDCHAR
STARTCHAR uni20B4
ENCODING 8372
SWIDTH 570 0
DWIDTH 10 0
BBX 10 13 0 0
BITMAP
01BF80
0B47E0
0E03D0
050B80
3FFFE0
01B400
7FFFD0
1F4000
2E0B80
7D07C0
7D03C0
3E4B40
0BF900
ENDCHAR
STARTCHAR uni20B8
ENCODING 8376
SWIDTH 522 0
DWIDTH 9 0
BBX 14 13 0 0
BITMAP
1FFFFFE0
00000000
01BFFFC0
1E5FAF40
782F0000
B43E0000
B03E0000
607D0000
00BC0000
00BC0000
00F80000
01F40000
01F00000
ENDCHAR
STARTCHAR uni20B9
ENCODING 8377
SWIDTH 544 0
DWIDTH 10 0
BBX 10 14 1 0
BITMAP
7FFFD0
00B800
BFFF80
007C00
00B800
02E000
FFC000
07F000
01F000
02F000
02E000
03E000
07D000
02E000
ENDCHAR
STARTCHAR uni20BA
ENCODING 8378
SWIDTH 455 0
DWIDTH 8 0
BBX 10 13 0 0
BITMAP
00F800
01F400
02F000
02FA00
07E400
7BEB00
07E400
2FC180
0F81D0
0F41D0
1F4780
2FAE00
2FA400
ENDCHAR
STARTCHAR uni20BD
ENCODING 8381
SWIDTH 573 0
DWIDTH 10 0
BBX 11 13 0 0
BITMAP
01BF80
0A45F0
38B878
B1F478
E1F0B4
62F0F0
03E6D0
3FFE40
07D000
7FF800
0BC000
0F8000
1F4000
ENDCHAR
STARTCHAR uni2116
ENCODING 8470
SWIDTH 996 0
DWIDTH 18 0
BBX 18 13 0 0
BITMAP
02FC03C000
1DBD0387C0
74FE075EA0
B1FE0B2C60
F1FF0B3890
B2DF4E38C0
13CF4D2F40
038B9D0400
074BECBFC0
0B47F85540
0B03F80000
0E02F40000
1E02F00000
ENDCHAR
STARTCHAR uni2120
ENCODING 8480
SWIDTH 585 0
DWIDTH 11 0
BBX 8 6 2 7
BITMAP
1411
6566
34AE
5DA9
8D69
6554
ENDCHAR
STARTCHAR trademark
ENCODING 8482
SWIDTH 379 0
DWIDTH 7 0
BBX 8 4 -1 8
BITMAP
1A55
5869
18A9
1468
ENDCHAR
STARTCHAR uni2126
ENCODING 8486
SWIDTH 745 0
DWIDTH 13 0
BBX 13 15 0 -1
BITMAP
00019000
002FFD00
00B41F00
02C00740
07400380
0A000380
0D000340
1D000740
1D000B00
1D000D00
0E002800
07007000
0282D000
7FC3FE00
15415400
ENDCHAR
STARTCHAR uni212A
ENCODING 8490
SWIDTH 601 0
DWIDTH 11 0
BBX 12 13 0 0
BITMAP
01BC1D
1EF874
78F8E0
B1F780
A1FA00
62FF90
03E2E0
03D2E0
07D2E0
0BC3D0
0B87C0
0F8BC0
1F47D0
ENDCHAR
STARTCHAR uni212B
ENCODING 8491
SWIDTH 668 0
DWIDTH 12 0
BBX 13 18 0 -2
BITMAP
00000640
00000880
00000A80
00002F40
0001AF40
00076F00
000D3E00
00283E00
1BF97D00
B9F5FC00
B6D0BC00
13C0F800
0B81F400
0F41F400
1F02F000
1F03E000
1E000000
0E000000
ENDCHAR
STARTCHAR estimated
ENCODING 8494
SWIDTH 786 0
DWIDTH 14 0
BBX 14 13 0 0
BITMAP
006F9000
02D57C00
0F400F00
2F400F80
3F400FC0
7F400FD0
7FFFFFE0
7F400000
3F400000
2F400000
0F400000
07901D00
00BFE400
ENDCHAR
STARTCHAR uni2153
ENCODING 8531
SWIDTH 733 0
DWIDTH 13 0
BBX 12 13 1 0
BITMAP
180090
F801C0
340340
740A00
700D00
B02800
E0707D
D0D0DB
01C09A
034028
0A018E
1C034E
2801A8
ENDCHAR
STARTCHAR uni2154
ENCODING 8532
SWIDTH 852 0
DWIDTH 15 0
BBX 14 13 1 0
BITMAP
2E400A00
67801C00
63802400
07007000
0D00D000
24028000
900307E0
FF4A0DB0
001C05A0
003401C0
006018B0
00D024B0
02801A80
ENDCHAR
STARTCHAR oneeighth
ENCODING 8539
SWIDTH 741 0
DWIDTH 13 0
BBX 12 13 1 0
BITMAP
180090
F801C0
340340
740A00
700D00
B02800
E0707E
D0D0E7
01C0BA
0340BC
0A024E
1C039E
2801F8
ENDCHAR
STARTCHAR threeeighths
ENCODING 8540
SWIDTH 828 0
DWIDTH 15 0
BBX 14 13 1 0
BITMAP
2F401C00
36803400
27407000
0A00D000
A3828000
D7470000
690A0BD0
001C1DA0
00341E90
00601B80
00D071D0
028075D0
07002F40
ENDCHAR
STARTCHAR fiveeighths
ENCODING 8541
SWIDTH 827 0
DWIDTH 15 0
BBX 14 13 1 0
BITMAP
2F801C00
20003400
7E007000
5780D000
A3828000
D7470000
BE0A0BD0
001C1DA0
00341E90
00601B80
00D071D0
0280B5D0
07002F40
ENDCHAR
STARTCHAR seveneighths
ENCODING 8542
SWIDTH 761 0
DWIDTH 14 0
BBX 13 13 1 0
BITMAP
BF806000
4700D000
09028000
28070000
700A0000
E01C0000
A0342E00
00A0B640
00D07600
02807D00
07018B00
09028B00
1C01BD00
ENDCHAR
STARTCHAR partialdiff
ENCODING 8706
SWIDTH 597 0
DWIDTH 11 0
BBX 11 14 0 -1
BITMAP
002FD0
00A5F0
000038
000038
000038
01BF78
0B96F4
1C00B0
3400E0
7401D0
740780
3D5E00
1FF400
014000
ENDCHAR
STARTCHAR uni2206
ENCODING 8710
SWIDTH 619 0
DWIDTH 11 0
BBX 11 15 0 -1
BITMAP
000040
0007D0
000BD0
001EE0
0038E0
0070F0
00E0F0
02C0B0
0740B4
0A0074
1D0078
380038
B4003C
BFFFFC
555554
ENDCHAR
STARTCHAR product
ENCODING 8719
SWIDTH 661 0
DWIDTH 12 0
BBX 12 14 0 -1
BITMAP
3FFFFD
1756D4
0702C0
0B0280
0A0340
0D0740
1D0700
1C0A00
280E00
380D00
341D00
701C00
B02800
501000
ENDCHAR
STARTCHAR summation
ENCODING 8721
SWIDTH 605 0
DWIDTH 11 0
BBX 11 14 0 -1
BITMAP
03FFFC
03D554
02D000
00E000
007400
003C00
001D00
007800
01E000
038000
0E0000
2D0000
7FFF80
155500
ENDCHAR
STARTCHAR minus
ENCODING 8722
SWIDTH 471 0
DWIDTH 8 0
BBX 7 2 1 5
BITMAP
FFF4
5550
ENDCHAR
STARTCHAR uni2215
ENCODING 8725
SWIDTH 488 0
DWIDTH 9 0
BBX 9 14 0 0
BITMAP
000140
000340
000A00
001C00
002800
007000
009000
01C000
034000
0A0000
0D0000
280000
700000
A00000
ENDCHAR
STARTCHAR uni2219
ENCODING 8729
SWIDTH 434 0
DWIDTH 8 0
BBX 4 4 2 3
BITMAP
14
BD
BE
7C
ENDCHAR
STARTCHAR radical
ENCODING 8730
SWIDTH 660 0
DWIDTH 12 0
BBX 12 14 0 -1
BITMAP
0002FD
000394
000700
000A00
001D00
002C00
003400
007000
78A000
2CD000
1EC000
0F8000
0B4000
050000
ENDCHAR
STARTCHAR infinity
ENCODING 8734
SWIDTH 833 0
DWIDTH 15 0
BBX 13 7 0 2
BITMAP
07E02F40
1D79E6C0
341F41C0
741F02C0
38779740
2FD1FE00
05001000
ENDCHAR
STARTCHAR integral
ENCODING 8747
SWIDTH 305 0
DWIDTH 5 0
BBX 9 18 -2 -3
BITMAP
000B80
002D00
003800
003400
007400
00B000
00A000
00E000
01D000
01C000
02C000
028000
038000
074000
070000
0B0000
1E0000
B80000
ENDCHAR
STARTCHAR approxequal
ENCODING 8776
SWIDTH 441 0
DWIDTH 8 0
BBX 8 6 0 2
BITMAP
1FFF
1554
0000
7F95
56FD
0014
ENDCHAR
STARTCHAR notequal
ENCODING 8800
SWIDTH 500 0
DWIDTH 9 0
BBX 9 10 0 0
BITMAP
006000
006000
1FFF40
2FFF00
008000
018000
3FFE00
7FFD00
030000
010000
ENDCHAR
STARTCHAR lessequal
ENCODING 8804
SWIDTH 405 0
DWIDTH 7 0
BBX 7 10 0 1
BITMAP
0004
006C
06E0
2E00
1F40
02F0
0060
0000
BFF4
5550
ENDCHAR
STARTCHAR greaterequal
ENCODING 8805
SWIDTH 405 0
DWIDTH 7 0
BBX 8 10 0 1
BITMAP
0400
0F40
02E4
007D
02E4
2E40
2400
0000
BFF8
5550
ENDCHAR
STARTCHAR lozenge
ENCODING 9674
SWIDTH 619 0
DWIDTH 11 0
BBX 10 14 1 0
BITMAP
001400
00BC00
01DE00
074B00
0E0740
280380
B002C0
D001D0
A00740
740E00
382800
2CB000
1ED000
0F4000
ENDCHAR
STARTCHAR uni27E8
ENCODING 10216
SWIDTH 456 0
DWIDTH 8 0
BBX 7 19 1 -3
BITMAP
0004
001C
0034
0090
0280
0700
0D00
2400
6000
C000
9000
3000
1800
0900
0300
0180
0090
0030
0010
ENDCHAR
STARTCHAR uni27E9
ENCODING 10217
SWIDTH 456 0
DWIDTH 8 0
BBX 8 19 0 -3
BITMAP
1000
2400
1C00
0A00
0340
01C0
00A0
0034
0018
000D
0028
0070
00D0
0240
0600
1C00
3400
9000
4000
ENDCHAR
STARTCHAR ff
ENCODING 64256
SWIDTH 508 0
DWIDTH 9 0
BBX 16 17 -4 -4
BITMAP
0002F6F8
000F9FD9
001F0F80
002F1F40
003FFFF0
003E2F00
007D3E00
00BC3E00
00BC7D00
00F8BC00
01F4BC00
01F4F800
02F6F400
2FF1F400
A3E2F000
A7E7D000
2F6F4000
ENDCHAR
STARTCHAR fi
ENCODING 64257
SWIDTH 534 0
DWIDTH 10 0
BBX 14 17 -4 -4
BITMAP
0001FE00
000BD780
001F4B80
002F0000
002FDF80
003E1F40
007D2F00
007D2F00
00BC3E00
00F83D00
00F47D20
01F47FA0
02F02F40
2BE00000
A3E00000
97C00000
2E400000
ENDCHAR
STARTCHAR fl
ENCODING 64258
SWIDTH 548 0
DWIDTH 10 0
BBX 15 17 -4 -4
BITMAP
0002FA40
000F87D0
001F47D0
002F0BC0
003FDBC0
003E0F80
007D1F40
00BC1F00
00BC2F00
00F83E00
01F43E14
01F43FA0
02F01F80
2BE00000
A3E00000
97C00000
2E400000
ENDCHAR
STARTCHAR ffi
ENCODING 64259
SWIDTH 764 0
DWIDTH 14 0
BBX 19 17 -4 -4
BITMAP
0002F5BE40
000F8BD7C0
001F5F4780
002F1F0000
003FFFFF80
003E3E0F40
007D3E1F40
00BC7D2F00
00BCBC2E00
00F8BC3E00
01F4F83D24
01F5F43FA0
02FAF02F40
2BF2F00000
A3E3E00000
A7D7D00000
2E6F400000
ENDCHAR
STARTCHAR ffl
ENCODING 64260
SWIDTH 780 0
DWIDTH 14 0
BBX 19 17 -4 -4
BITMAP
0002FAFA40
000F8F87E0
001F5F43D0
002F1F07D0
003FFFEBC0
003E3E0B80
007D3E0F80
00BC7D1F40
00BCBC1F00
00F8BC2F00
01F4F83E18
01F5F42FB0
02FAF41F80
2BF2F00000
A3E3E00000
A7D7D00000
2E6F400000
ENDCHAR
STARTCHAR .notdef
ENCODING -1
SWIDTH 810 0
DWIDTH 15 0
BBX 15 23 0 -5
BITMAP
006AAAA4
00500014
00800020
00800020
00800020
01400050
02400050
02069080
021CB080
061CA080
05018140
08060200
08080200
08000200
141C0600
14040500
20000800
20000800
20000800
50001400
90001400
80002000
AAAAA000
ENDCHAR
STARTCHAR A.salt
ENCODING -1
SWIDTH 590 0
DWIDTH 11 0
BBX 11 15 0 -2
BITMAP
0001BC
000AF8
0028F8
0071F4
00D1F0
02C2F0
07FFE0
0F03D0
1E07D0
3D0BC0
7C0B80
B80F80
B41F40
B40000
740000
ENDCHAR
STARTCHAR B.salt
ENCODING -1
SWIDTH 633 0
DWIDTH 11 0
BBX 11 13 0 0
BITMAP
01BF90
0B55F4
38F874
B1F4B4
F1F1E0
A2FFE0
03E2F8
03D0F8
07D0F8
0BC0F4
0BC2F0
0F87D0
1FBE40
ENDCHAR
STARTCHAR E.salt
ENCODING -1
SWIDTH 554 0
DWIDTH 10 0
BBX 11 13 0 0
BITMAP
06FFF8
1DFEE0
74F400
B1F400
B2F000
B2F000
13FF40
07E500
07D000
0BC000
0F8000
0FFF40
1FFF40
ENDCHAR
STARTCHAR N.salt
ENCODING -1
SWIDTH 669 0
DWIDTH 12 0
BBX 13 13 0 0
BITMAP
01BEF800
09FD7D00
35F83E00
B2F43E00
E2F07D00
B3F0BC00
03E0BC00
07D0F800
0BD1F400
0BC1F000
0F82F040
1F82F200
1F40B900
ENDCHAR
STARTCHAR i.loclTRK
ENCODING -1
SWIDTH 267 0
DWIDTH 5 0
BBX 6 12 0 0
BITMAP
0F00
1F40
0A00
3E00
3D00
7D00
BC00
BC00
F800
F490
FE80
7D00
ENDCHAR
STARTCHAR a.end
ENCODING -1
SWIDTH 467 0
DWIDTH 8 0
BBX 10 9 -1 0
BITMAP
01FBE0
0BDBD0
1F47C0
2F0BC0
3E0F80
7D0F40
7E2F40
3FEFD0
1F8B80
ENDCHAR
STARTCHAR aacute.end
ENCODING -1
SWIDTH 461 0
DWIDTH 8 0
BBX 10 13 -1 0
BITMAP
000380
000B00
001D00
000000
01FBD0
0BDBD0
1F4BC0
2E0B80
3D0F80
7D1F40
7D2F40
3FEFC0
1F8B80
ENDCHAR
STARTCHAR c.end
ENCODING -1
SWIDTH 341 0
DWIDTH 6 0
BBX 8 9 -1 0
BITMAP
01F8
0BDD
1F4D
2F00
3E00
7D00
7D00
3E14
1FD0
ENDCHAR
STARTCHAR d.end
ENCODING -1
SWIDTH 476 0
DWIDTH 9 0
BBX 11 13 -1 0
BITMAP
000050
0001F4
0002F0
0003E0
01FBE0
0BDBD0
1F47C0
2F0BC0
3E0F80
7D0F40
7E2F40
3FEFD0
1F8B80
ENDCHAR
STARTCHAR e.end
ENCODING -1
SWIDTH 366 0
DWIDTH 7 0
BBX 8 9 -1 0
BITMAP
01FD
0BDE
1F4D
2E28
3FE0
7D00
7D00
3E14
1BD0
ENDCHAR
STARTCHAR eacute.end
ENCODING -1
SWIDTH 367 0
DWIDTH 7 0
BBX 8 13 -1 0
BITMAP
000F
001D
0038
0000
01FD
0BDE
1F4D
2E2C
3FE0
7E00
7D00
3E14
1BD0
ENDCHAR
STARTCHAR uni0292.end
ENCODING -1
SWIDTH 391 0
DWIDTH 7 0
BBX 7 13 0 -4
BITMAP
2FF8
B1F0
63D0
0B80
1F40
2F00
1F80
07D0
03D0
2BD0
97D0
DB80
7E00
ENDCHAR
STARTCHAR g.end
ENCODING -1
SWIDTH 480 0
DWIDTH 9 0
BBX 10 13 -1 -4
BITMAP
01FBE0
0BDBD0
1F47C0
2F0BC0
3E0F80
7D0F40
7E2F40
3FFF00
1FBE00
02BE00
097D00
0DBC00
07E000
ENDCHAR
STARTCHAR uni01E5.end
ENCODING -1
SWIDTH 507 0
DWIDTH 9 0
BBX 10 13 -1 -4
BITMAP
01FBE0
0BDBD0
1F47C0
2F0BC0
3E0F80
7D0F40
7E2F40
3FFF00
1FBE00
06BE00
1FFF40
0DBC00
07E000
ENDCHAR
STARTCHAR h.end
ENCODING -1
SWIDTH 453 0
DWIDTH 8 0
BBX 9 13 -1 0
BITMAP
015000
07D000
07C000
0BC000
0FAE40
0F9F80
1F4F80
2F0F40
2E1F40
3E1F00
3D2F00
7D2F80
BC0F40
ENDCHAR
STARTCHAR i.end
ENCODING -1
SWIDTH 209 0
DWIDTH 4 0
BBX 5 13 0 0
BITMAP
0A00
1F40
0F00
0000
3E00
3D00
7D00
BC00
BC00
F800
F400
FD00
7D00
ENDCHAR
STARTCHAR iacute.end
ENCODING -1
SWIDTH 209 0
DWIDTH 4 0
BBX 6 13 0 0
BITMAP
02D0
0740
0A00
0000
3E00
3D00
7D00
BC00
BC00
F800
F400
FD00
7D00
ENDCHAR
STARTCHAR ij.end
ENCODING -1
SWIDTH 480 0
DWIDTH 9 0
BBX 9 17 0 -4
BITMAP
0F0780
1F4BC0
0A0680
000000
3E0F80
3D1F40
7D2F00
BC2F00
BC3E00
F87D00
F47D00
FDBC00
7DF800
1AF800
25F400
3BF000
1F8000
ENDCHAR
STARTCHAR j.end
ENCODING -1
SWIDTH 213 0
DWIDTH 4 0
BBX 9 17 -4 -4
BITMAP
000E00
001F40
000A00
000000
003E00
003E00
007D00
00BC00
00BC00
00F800
01F400
01F400
06F000
2BE000
A3E000
97C000
2E4000
ENDCHAR
STARTCHAR k.end
ENCODING -1
SWIDTH 472 0
DWIDTH 9 0
BBX 10 13 -1 0
BITMAP
015000
07D000
07D000
0BC000
0F8280
0F8A00
1F7800
2FFE00
2FAF40
3E1F40
3D1F40
7D1F90
BC0B80
ENDCHAR
STARTCHAR l.end
ENCODING -1
SWIDTH 207 0
DWIDTH 4 0
BBX 5 13 0 0
BITMAP
0540
1F40
1F00
2F00
3E00
3D00
7D00
BC00
B800
F800
F400
FE00
B800
ENDCHAR
STARTCHAR m.end
ENCODING -1
SWIDTH 701 0
DWIDTH 13 0
BBX 14 9 -1 0
BITMAP
0FEF6F80
0F9FDBC0
1F4F87C0
2F0F4BC0
2E1F4B80
3E2F0F40
3D2F0F40
7D3E0FD0
BC3D0B80
ENDCHAR
STARTCHAR n.end
ENCODING -1
SWIDTH 454 0
DWIDTH 8 0
BBX 9 9 -1 0
BITMAP
0FEF40
0F9F80
1F4F80
2F0F80
2E1F40
3E1F00
3D2F00
7D2F80
BC0F40
ENDCHAR
STARTCHAR o.end
ENCODING -1
SWIDTH 487 0
DWIDTH 9 0
BBX 10 9 -1 0
BITMAP
01F800
0BDA10
1F4B80
2F0F40
3E0A00
7E0E00
7D1D00
3E3800
1BD000
ENDCHAR
STARTCHAR oacute.end
ENCODING -1
SWIDTH 487 0
DWIDTH 9 0
BBX 10 13 -1 0
BITMAP
000B00
001D00
002800
000000
01F800
0BDA10
1F4B80
2F0F40
3E0A00
3E0E00
7D1D00
3E2800
1BD000
ENDCHAR
STARTCHAR s.end
ENCODING -1
SWIDTH 316 0
DWIDTH 6 0
BBX 7 10 -1 0
BITMAP
0050
02F4
03F4
06F4
09F4
14F8
38F8
A4F8
62F4
2F90
ENDCHAR
STARTCHAR t.end
ENCODING -1
SWIDTH 276 0
DWIDTH 5 0
BBX 5 12 0 0
BITMAP
0A40
1F40
2F00
7FC0
3E00
7D00
7D00
BC00
F800
F800
FD00
B800
ENDCHAR
STARTCHAR u.end
ENCODING -1
SWIDTH 459 0
DWIDTH 8 0
BBX 8 9 0 0
BITMAP
3E1F
3D2F
7D3E
BC3E
BC7D
F8BC
F8FC
FFBE
7D2E
ENDCHAR
STARTCHAR uacute.end
ENCODING -1
SWIDTH 459 0
DWIDTH 8 0
BBX 8 13 0 0
BITMAP
002C
0074
00A0
0000
3E1F
3D2F
7D3E
BC3E
BC7D
F8BC
F8FC
FFBE
7D2E
ENDCHAR
STARTCHAR x.end
ENCODING -1
SWIDTH 500 0
DWIDTH 9 0
BBX 9 10 0 0
BITMAP
000280
07D3C0
19F180
21F740
50FD00
80F800
42F800
06BC00
1C7F40
342E00
ENDCHAR
STARTCHAR y.end
ENCODING -1
SWIDTH 460 0
DWIDTH 8 0
BBX 9 13 0 -4
BITMAP
3E1F40
3D2F00
7D3E00
BC3E00
BC7D00
F8BC00
F8FC00
FFF800
7EF400
1AF400
32F000
67E000
2F8000
ENDCHAR
STARTCHAR k.salt
ENCODING -1
SWIDTH 518 0
DWIDTH 9 0
BBX 11 13 -1 0
BITMAP
005000
07D000
07D000
0BC000
0F86C0
0F9F80
1FA500
2FFF40
2F5F40
3E1F40
3D1F08
7D1FB4
BC0BD0
ENDCHAR
STARTCHAR p.salt
ENCODING -1
SWIDTH 482 0
DWIDTH 9 0
BBX 12 14 -2 -4
BITMAP
019000
03EB80
03FBE0
07D1E0
07C1E0
0BC1FD
0F8BD0
0F6BC0
1F7B40
2F3D00
2E0000
3E0000
7D0000
7C0000
ENDCHAR
STARTCHAR E_x
ENCODING -1
SWIDTH 797 0
DWIDTH 14 0
BBX 15 13 0 0
BITMAP
00BE4000
02E28000
07C28000
0B8240E0
07C054B0
03E0BC30
1F807C90
3F007E80
BE003E00
BD003E04
BD00BF08
7E465FB4
1FE40B90
ENDCHAR
STARTCHAR F_i
ENCODING -1
SWIDTH 726 0
DWIDTH 13 0
BBX 14 13 0 0
BITMAP
06FFFFC0
2DBDBF40
74B80000
B0F80000
B1F42F00
61FF7E00
02F03E00
03E07D00
03D07C00
07D0BC10
0BC0F860
0BC0BEC0
0F807E00
ENDCHAR
STARTCHAR T_h
ENCODING -1
SWIDTH 971 0
DWIDTH 17 0
BBX 18 13 0 0
BITMAP
06FFEA9000
2D6F5F8000
743E0F8000
B03D0F4000
A07D1FBD00
10BC2F6F00
00B82E1F00
00F83D2F00
01F47D3E00
01F47C3E00
02F0BC7D20
03E0B83D50
03E0F82F40
ENDCHAR
STARTCHAR T_i
ENCODING -1
SWIDTH 744 0
DWIDTH 13 0
BBX 14 13 0 0
BITMAP
06FFFFC0
2D2FFFC0
743E1A40
B03E0000
E07D1F40
60BC2F00
00BC2F00
00F83E00
01F43D00
01F47D00
02F0BC20
03E07ED0
03E02E40
ENDCHAR
STARTCHAR a_x
ENCODING -1
SWIDTH 899 0
DWIDTH 16 0
BBX 18 10 -1 0
BITMAP
0000000240
01FBE3E7C0
0BDBD2E180
1F47C2F240
2F0BC1F600
3E0F81F800
7D0F41F410
7E2F47F860
3FAFEDBEC0
1F87E42E00
ENDCHAR
STARTCHAR a_z
ENCODING -1
SWIDTH 906 0
DWIDTH 16 0
BBX 17 9 -1 0
BITMAP
01FBE2FFC0
0BDBD75F40
1F47C22F00
2F0BC07D00
3E0F80B800
7D0F41F000
7E2F43E240
3FEFDBD740
1F8B8FFE00
ENDCHAR
STARTCHAR b_s
ENCODING -1
SWIDTH 799 0
DWIDTH 14 0
BBX 15 13 0 0
BITMAP
05400000
1F400000
1F000000
2F000540
3FF41F80
3E7C2FC0
7D2E8BC0
BC2E0BC0
B82C0BC0
F83CE7D4
F8B547F4
FFE18BC0
7F40BE00
ENDCHAR
STARTCHAR b_s_x
ENCODING -1
SWIDTH 1144 0
DWIDTH 21 0
BBX 21 13 0 0
BITMAP
054000000000
1F4000000000
1F0000000000
2F0005400B00
3FF41F8BCB40
3E7C2FC7C300
7D2E8BC7D600
BC2E0BC3E800
BC2C0BC3F400
F83CE7C7F040
F8B547E9F080
FEE18B90FF40
7F40BE007900
ENDCHAR
STARTCHAR b_s_z
ENCODING -1
SWIDTH 1158 0
DWIDTH 21 0
BBX 21 13 0 0
BITMAP
054000000000
1F4000000000
1F0000000000
2F0005400000
3FB41F83FF80
3E7C2FCB2F00
7D2E8BC53D00
BC2E0BC0BC00
BC2C0BC1F400
F83CE7C2E000
F8B547C7CB00
FFE18B8F8B00
7F40BE2FFD00
ENDCHAR
STARTCHAR c_x
ENCODING -1
SWIDTH 755 0
DWIDTH 14 0
BBX 15 10 -1 0
BITMAP
00000060
01F8BCB4
0BDD7C20
1F4D7D60
2F003E80
3E003F40
7D002F00
7D00BF08
3E465FF4
1BE40BD0
ENDCHAR
STARTCHAR c_z
ENCODING -1
SWIDTH 769 0
DWIDTH 14 0
BBX 15 9 -1 0
BITMAP
01F82FF8
0BDD76F0
1F4D77D0
2F000BC0
3E001F40
7D002E00
7D007D10
3E14F9B0
1FD2FFD0
ENDCHAR
STARTCHAR e_x
ENCODING -1
SWIDTH 762 0
DWIDTH 14 0
BBX 15 10 -1 0
BITMAP
00000060
01FD7CB4
0BDE7D24
1F4D3D60
2E2C3F80
3FE02F00
7D002F00
7E00AF48
3F464FF8
1BE807D0
ENDCHAR
STARTCHAR e_z
ENCODING -1
SWIDTH 788 0
DWIDTH 14 0
BBX 15 9 -1 0
BITMAP
01F82FFC
0B9D75F4
1F0D12E0
2E7807D0
3FE00F80
7D001F00
7D003E20
3E14BC74
1FD1FFE0
ENDCHAR
STARTCHAR eacute_x
ENCODING -1
SWIDTH 760 0
DWIDTH 14 0
BBX 15 13 -1 0
BITMAP
000B4000
000E0000
00280000
00000060
01FDBCB4
0BDE7D24
1F4D3D60
2E283E80
3FE02F00
7D002F00
7D00AF48
3F464FF4
1BE407D0
ENDCHAR
STARTCHAR f_f_t
ENCODING -1
SWIDTH 780 0
DWIDTH 14 0
BBX 19 17 -4 -4
BITMAP
0002FAFA40
000F8F87E0
001F5F47D0
002F1F07D0
003FFFFFF0
003E3E0B80
007D3E0F80
00BC7D1F40
00BCBC1F00
00F8BC2F00
01F4F83E18
01F5F42FB0
02FAF41F80
2BF2F00000
A3E3E00000
A7D7D00000
2E6F400000
ENDCHAR
STARTCHAR f_i_x
ENCODING -1
SWIDTH 898 0
DWIDTH 16 0
BBX 21 17 -4 -4
BITMAP
0001FE000000
000BD7800000
001F4B800000
002F01000900
002FDF8F9F00
003E1F4F8600
007D2F0BC900
007D2F07D800
00BC3E07E000
00F83D07D000
00F47D1FE180
01F47FB6FB00
02F02F80B800
2BE000000000
A3E000000000
97C000000000
2E4000000000
ENDCHAR
STARTCHAR f_i_z
ENCODING -1
SWIDTH 904 0
DWIDTH 16 0
BBX 20 17 -4 -4
BITMAP
0001FE0000
000BD78000
001F4B8000
002F000000
002FDF8BFF
003E1F5D7D
007D2F18BC
007D2F01F4
00BC3E02E0
00F83D07D0
00F47D0F84
01F47E6F5D
02F02E7FF8
2BE0000000
A3E0000000
97C0000000
2E40000000
ENDCHAR
STARTCHAR f_l_x
ENCODING -1
SWIDTH 912 0
DWIDTH 16 0
BBX 21 17 -4 -4
BITMAP
0002FA400000
000F87D00000
001F47D00000
002F0BC00A00
003FDB8B8F00
003E0F8BC300
007D1F47C600
00BC1F07D800
00BC2F03F000
00F83E03E000
01F43E0BF080
01F43FB5FF40
02F01F80B900
2BE000000000
A3E000000000
97C000000000
2E4000000000
ENDCHAR
STARTCHAR f_l_z
ENCODING -1
SWIDTH 938 0
DWIDTH 17 0
BBX 21 17 -4 -4
BITMAP
0002FA400000
000F87D00000
001F47D00000
002F0BC00000
003FDBC2FF80
003E0F8B2F00
007D1F463D00
00BC1F40BC00
00BC2F01F400
00F83E02E000
01F43E07D500
01F43E4F8B00
02F01F6FFD00
2BE000000000
A3E000000000
97C000000000
2E4000000000
ENDCHAR
STARTCHAR f_t
ENCODING -1
SWIDTH 548 0
DWIDTH 10 0
BBX 15 17 -4 -4
BITMAP
0002FA40
000F87D0
001F47D0
002F0BC0
003FFFF0
003E0F80
007D1F40
00BC1F40
00BC2F00
00F83E00
01F43E14
01F43FA0
02F01F80
2BE00000
A3E00000
97C00000
2E400000
ENDCHAR
STARTCHAR f_u
ENCODING -1
SWIDTH 772 0
DWIDTH 14 0
BBX 19 17 -4 -4
BITMAP
0002F40000
000F9C0000
001F000000
002F000000
002FFF8BC0
003E1F4F80
007D1F0F80
00BC2F1F40
00BC3E1F00
00F83D2F00
01F47D3E14
01F47FFFA0
02F02E5F80
2BE0000000
A3E0000000
97C0000000
2E40000000
ENDCHAR
STARTCHAR f_x
ENCODING -1
SWIDTH 663 0
DWIDTH 12 0
BBX 17 17 -4 -4
BITMAP
0002F40000
000F9C0000
001F040000
002F001900
002FFF5E00
003E1F4A00
007D0F8800
00BC0BE400
00BC0BD000
00F82BD040
01F493E240
01F4E2FE00
02F0E1F800
27E0000000
93E0000000
9BC0000000
2E40000000
ENDCHAR
STARTCHAR g_p
ENCODING -1
SWIDTH 975 0
DWIDTH 18 0
BBX 18 14 -1 -4
BITMAP
000002F000
01FBE2FBD0
0BDBD3F6F0
1F47C7D1F0
2F0BC7C1F0
3E0F8BC2F0
7D0F4F83E0
7E2F4F87D0
3FFF1FAF80
1FBFFFFE00
01FE2F0000
0A7D3E0000
09BC3D0000
07E0680000
ENDCHAR
STARTCHAR g_x
ENCODING -1
SWIDTH 892 0
DWIDTH 16 0
BBX 18 14 -1 -4
BITMAP
0000000640
01FBE3D780
0BDBD3E180
1F47C2E240
2F0BC2F900
3E0F81F800
7D0F41F400
7E2F47F860
3FBF28BEC0
1FBF903E00
01BE000000
0A7D000000
09BC000000
07E0000000
ENDCHAR
STARTCHAR g_z
ENCODING -1
SWIDTH 907 0
DWIDTH 16 0
BBX 17 13 -1 -4
BITMAP
01FBE2FFC0
0BDBD74F40
1F4BC22F00
2F0BC07D00
3E0F80B800
7D1F41F400
7E2F43E240
3FFF0BD740
1FBE0FFE00
02BE000000
097D000000
0DBC000000
07E0000000
ENDCHAR
STARTCHAR i_x
ENCODING -1
SWIDTH 631 0
DWIDTH 11 0
BBX 12 13 0 0
BITMAP
0A0000
1F4000
0F0000
000038
3E2E2C
3D2F0C
7D1F24
BC1FA0
BC0F80
F80F81
F82FC2
FED7ED
7E02E4
ENDCHAR
STARTCHAR i_z
ENCODING -1
SWIDTH 637 0
DWIDTH 11 0
BBX 12 13 0 0
BITMAP
0A0000
1F4000
0F0000
000000
3E1FFD
3E38F8
7D25F0
BC03D0
BC0BC0
F81F40
F42E14
F97D38
7DFFE0
ENDCHAR
STARTCHAR iacute_x
ENCODING -1
SWIDTH 631 0
DWIDTH 11 0
BBX 12 13 0 0
BITMAP
02D000
074000
0A0000
000038
3E2E2C
3D2F0C
7D1F24
BC1FA0
BC0F80
F80F81
F82FC2
FED7ED
7E02E4
ENDCHAR
STARTCHAR iacute_z
ENCODING -1
SWIDTH 637 0
DWIDTH 11 0
BBX 12 13 0 0
BITMAP
02D000
074000
0A0000
000000
3E1FFD
3E38F8
7D35F0
BC03D0
BC0BC0
F81F40
F42E14
F97D38
7DFFE0
ENDCHAR
STARTCHAR j_x
ENCODING -1
SWIDTH 624 0
DWIDTH 11 0
BBX 16 17 -4 -4
BITMAP
001E0000
002F4000
000A0000
00000038
003E3E2C
003D2E18
007D2F24
00BC1FA0
00BC1F80
00F81F81
01F47F86
01F59BEC
02F902E4
1FE00000
67D00000
ABC00000
6E400000
ENDCHAR
STARTCHAR j_z
ENCODING -1
SWIDTH 618 0
DWIDTH 11 0
BBX 15 17 -4 -4
BITMAP
000F0000
001F4000
000A0000
00000000
002E2FF8
003E75F4
007D62E0
007C07C0
00BC0F80
00F82F00
00F43D20
01F4BD74
06F1FFE0
2BE00000
A3E00000
97C00000
2E400000
ENDCHAR
STARTCHAR l_x
ENCODING -1
SWIDTH 631 0
DWIDTH 11 0
BBX 12 13 0 0
BITMAP
054000
1F4000
1F0000
2F0038
3E2E2C
3E2F0C
7D1F24
BC1FA0
BC0F80
F80F81
F82FC2
FED7ED
7E02E4
ENDCHAR
STARTCHAR l_z
ENCODING -1
SWIDTH 635 0
DWIDTH 11 0
BBX 11 13 0 0
BITMAP
054000
1F4000
1F0000
2F0000
3E1FFC
3D78F8
7D22F0
BC03D0
B80BC0
F81F40
F42E24
FE7D38
B9FFE0
ENDCHAR
STARTCHAR m_x
ENCODING -1
SWIDTH 1124 0
DWIDTH 20 0
BBX 22 10 -1 0
BITMAP
000000000240
0FAF6F83E3C0
0F9FDBC2E180
1F4F87C2F240
2F0F4BC1F900
2E1F4B81F800
3E2F0F40F810
3D2F0F42F860
7D3E0FEDBEC0
BC3D0BE02E40
ENDCHAR
STARTCHAR m_z
ENCODING -1
SWIDTH 1125 0
DWIDTH 20 0
BBX 21 9 -1 0
BITMAP
0FAF6F42FFC0
0F9FDBC75F40
1F4F87C02E00
2F0F4BC07D00
2E1F4B80B800
3E2F0F81F000
3D2F0F43E240
7D3E0F9BD740
BC3D0B9FFE00
ENDCHAR
STARTCHAR n_z
ENCODING -1
SWIDTH 882 0
DWIDTH 16 0
BBX 17 9 -1 0
BITMAP
0FAE06FF80
0F9F8B2F00
1F4F803D00
2F0F80BC00
2E1F41F400
3E1F02E000
3D2F07D600
7D2F8F8B00
BC0FAFFD00
ENDCHAR
STARTCHAR o_ae
ENCODING -1
SWIDTH 1089 0
DWIDTH 20 0
BBX 21 9 -1 0
BITMAP
01F902FDBE00
0BDA191FE740
1F4FA00FC700
2F0F400F5E00
3E0A0BFFF400
3E0E3F6F4000
7D1D7D2F4080
3E283E7F8600
1BD01F9BE400
ENDCHAR
STARTCHAR o_s
ENCODING -1
SWIDTH 786 0
DWIDTH 14 0
BBX 16 10 -1 0
BITMAP
00000050
01F907E0
0BDA1BE0
1F4F63E0
2F0F43E0
3E0A02F0
7E0E76F1
7D1C92F8
3E38A7E0
1BD02F80
ENDCHAR
STARTCHAR o_s_x
ENCODING -1
SWIDTH 1132 0
DWIDTH 20 0
BBX 22 10 -1 0
BITMAP
000000500240
01F907E2E3C0
0BDA1BE2F0C0
1F4B63E1F180
2F0F43E1FA00
3E0A02F0FC00
3D0E76F1F810
7E2D92FABC20
3FB8A3E07ED0
1BD02F802E40
ENDCHAR
STARTCHAR o_s_z
ENCODING -1
SWIDTH 1139 0
DWIDTH 21 0
BBX 22 10 -1 0
BITMAP
000000500000
01F907E1FFD0
0BDA1BE38F80
1F4F63E25F00
2F0F43E03E00
3E0A02E0BC00
7E0E76F1F400
7D1C92E2F380
3E38A7E7D380
1BD02F8FFE00
ENDCHAR
STARTCHAR o_x
ENCODING -1
SWIDTH 851 0
DWIDTH 15 0
BBX 17 10 -1 0
BITMAP
0000000900
01F80F8F00
0BDA0F8300
1F4B6BCA00
2F0F87D800
3E0A07F000
7D0E0BD000
7D1D3BE080
3E78A2F540
1BD0B4B900
ENDCHAR
STARTCHAR oacute_s
ENCODING -1
SWIDTH 787 0
DWIDTH 14 0
BBX 16 13 -1 0
BITMAP
000B0000
001D0000
00280000
00000050
01F907E0
0BDA1BE0
1F4F63E0
2F0F43E0
3E0A02F0
3E0E76F1
7D1D92F8
3E38A3E0
1BD02F80
ENDCHAR
STARTCHAR oacute_s_x
ENCODING -1
SWIDTH 1141 0
DWIDTH 21 0
BBX 22 13 -1 0
BITMAP
000B40000000
001D00000000
002800000000
000000500000
01F907E1FFD0
0BDA1BE38F80
1F4F63E25F00
2F0B43E03E00
3E0A02F0BC00
3E0E76F0F400
7D1D92F2F280
3E38A3E7D380
1BD02F8FFE00
ENDCHAR
STARTCHAR oacute_s_z
ENCODING -1
SWIDTH 1140 0
DWIDTH 21 0
BBX 22 13 -1 0
BITMAP
000B00000000
001D00000000
002800000000
000000500000
01F907E1FFD0
0BDA1BE38F80
1F4F63E25F00
2F0F43E03E00
3E0A02F0BC00
3E0E76F1F400
7D1D92F2F280
3E38A3E7D380
1BD02F8FFE00
ENDCHAR
STARTCHAR oacute_x
ENCODING -1
SWIDTH 852 0
DWIDTH 15 0
BBX 17 13 -1 0
BITMAP
000B000000
001D000000
0028000000
0010000900
01B90F8F00
0BDA0F8300
1F4B6BCA00
2F0F87D800
3E0A07F000
7E0E0BE000
7D1D3BE080
3E38A2F540
1BD0B4B900
ENDCHAR
STARTCHAR r_x
ENCODING -1
SWIDTH 784 0
DWIDTH 14 0
BBX 16 10 -1 0
BITMAP
00000074
0FAE7D78
0FEF3D18
1F493E24
2F002F90
2F001F40
3E006F41
3D018F86
7D038BFC
BC02C2E0
ENDCHAR
STARTCHAR r_z
ENCODING -1
SWIDTH 654 0
DWIDTH 12 0
BBX 13 9 -1 0
BITMAP
0FAFFF40
0FEF2F00
1F497D00
2F00B800
2F01F400
3E03E000
3D07C600
7D0F9B00
BC2FFD00
ENDCHAR
STARTCHAR s_x
ENCODING -1
SWIDTH 727 0
DWIDTH 13 0
BBX 15 10 -1 0
BITMAP
005001D0
02F4F5E0
03F4F860
06F4B890
09F4BE40
18F87E00
38F87D04
A4FABE18
62F92FB0
2F900F80
ENDCHAR
STARTCHAR s_z
ENCODING -1
SWIDTH 744 0
DWIDTH 13 0
BBX 14 10 -1 0
BITMAP
00500000
02F47FF0
03F5D3E0
06F49BC0
09F40F40
18F82F00
34F87D00
B4F8F850
62F5F4E0
2F93FF80
ENDCHAR
STARTCHAR t_x
ENCODING -1
SWIDTH 631 0
DWIDTH 11 0
BBX 12 12 0 0
BITMAP
054000
1F4000
2F0024
7FFE3C
3E2F0C
7D2F14
7C1F60
BC0F80
F80F81
F86FC6
FFD7FD
7E02E4
ENDCHAR
STARTCHAR t_z
ENCODING -1
SWIDTH 704 0
DWIDTH 13 0
BBX 13 12 0 0
BITMAP
0A400000
1F400000
2F000000
7FC7FF40
3E0E2E00
7D097D00
7D00B800
BC01F000
F803E000
F80BC500
F91F8B00
B82FFD00
ENDCHAR
STARTCHAR u_v
ENCODING -1
SWIDTH 923 0
DWIDTH 17 0
BBX 17 9 0 0
BITMAP
3E1F1F8A00
3D2F0F8B40
7D3E1F4300
BC3E1F0300
BC7D2F0600
F8BC3E0900
F8FC3E2C00
FFF83FB400
7EF41F9000
ENDCHAR
STARTCHAR u_x
ENCODING -1
SWIDTH 878 0
DWIDTH 16 0
BBX 17 10 0 0
BITMAP
0000002D00
3E1F1F1D00
3D2F1F4900
7D3E0F9800
BC3E0FA400
BC7D0BD000
F8BC0BC000
F8FC1FD240
FFBEE3FA00
7D2F81F800
ENDCHAR
STARTCHAR y_p
ENCODING -1
SWIDTH 954 0
DWIDTH 17 0
BBX 17 14 0 -4
BITMAP
00000F8000
3E1F1FAE00
3D2F1F9F80
7D3E2F0B80
BC3E2E0B80
BC7D3E0F80
F8BC7D1F40
F8FC7C2F00
FFF8BDBD00
7EFFFFE400
0BF4F80000
26F1F40000
37E2F00000
2F82900000
ENDCHAR
STARTCHAR y_x
ENCODING -1
SWIDTH 871 0
DWIDTH 16 0
BBX 16 14 0 -4
BITMAP
0000002C
3E1F2F2D
3D2F1F49
7D3E0F58
BC3E0FA0
BC7D0BD0
F8BC0BC0
F8FC2FD2
FFF9A3FE
7EF901F4
0BF40000
26F00000
37D00000
2F800000
ENDCHAR
STARTCHAR y_z
ENCODING -1
SWIDTH 888 0
DWIDTH 16 0
BBX 16 13 0 -4
BITMAP
3E1F4BFE
3D2F2C7C
7D3E14F8
BC3E02F0
BC7D03D0
F8BC0BC0
F8FC1F58
FFF83E1C
7EF47FF4
1AF40000
32F00000
67E00000
2F800000
ENDCHAR
STARTCHAR a_x.end
ENCODING -1
SWIDTH 884 0
DWIDTH 16 0
BBX 17 10 -1 0
BITMAP
0000000240
01FBE3E7C0
0BDBD2E180
1F47C2F240
2F0BC1F600
3E0F81F800
7D0F40F400
7E2F47F800
3FAFEDBE00
1F87E42E00
ENDCHAR
STARTCHAR b_s.end
ENCODING -1
SWIDTH 731 0
DWIDTH 13 0
BBX 13 13 0 0
BITMAP
05400000
1F400000
1F000000
2F000540
3FF41F80
3E7C2FC0
7D2E8BC0
BC2E0BC0
B82C0BC0
F83CE7C0
F8B547C0
FFE18B80
7F40BE00
ENDCHAR
STARTCHAR e_x.end
ENCODING -1
SWIDTH 747 0
DWIDTH 13 0
BBX 15 10 -1 0
BITMAP
00000060
01FD7CB4
0BDE7D24
1F4D3D60
2E2C3F80
3FE02F00
7D002F00
7E00BF40
3F468F90
1BE807D0
ENDCHAR
STARTCHAR f_u.end
ENCODING -1
SWIDTH 724 0
DWIDTH 13 0
BBX 17 17 -4 -4
BITMAP
0002F40000
000F9C0000
001F000000
002F000000
002FFF8BC0
003E1F4F80
007D1F0F80
00BC2F1F40
00BC3E1F00
00F83D2F00
01F47D3E00
01F47FFF80
02F02F5F40
2BE0000000
A3E0000000
97C0000000
2E40000000
ENDCHAR
STARTCHAR fi.end
ENCODING -1
SWIDTH 479 0
DWIDTH 9 0
BBX 13 17 -4 -4
BITMAP
0001FE00
000BD780
001F4B80
002F0000
002FDF80
003E1F40
007D2F00
007D2F00
00BC3E00
00F83D00
00F47D00
01F47F40
02F02E00
2BE00000
A3E00000
97C00000
2E400000
ENDCHAR
STARTCHAR fl.end
ENCODING -1
SWIDTH 490 0
DWIDTH 9 0
BBX 14 17 -4 -4
BITMAP
0002FA40
000F87D0
001F47D0
002F0BC0
003FDBC0
003E0F80
007D1F40
00BC1F00
00BC2F00
00F83E00
01F43E00
01F43F40
02F01F40
2BE00000
A3E00000
97C00000
2E400000
ENDCHAR
STARTCHAR i_x.end
ENCODING -1
SWIDTH 616 0
DWIDTH 11 0
BBX 11 13 0 0
BITMAP
0A0000
1F4000
0F0000
000038
3E2E2C
3D2F0C
7D1F24
BC1FA0
BC0F80
F80F80
F82FC0
FED7E4
7E02E0
ENDCHAR
STARTCHAR o_s.end
ENCODING -1
SWIDTH 718 0
DWIDTH 13 0
BBX 14 10 -1 0
BITMAP
00000050
01F907E0
0BDA1BE0
1F4F63E0
2F0F43E0
3E0A02E0
7E0E76F0
7D1C92E0
3E38A7E0
1BD02F80
ENDCHAR
STARTCHAR oacute_s.end
ENCODING -1
SWIDTH 719 0
DWIDTH 13 0
BBX 14 13 -1 0
BITMAP
000B0000
001D0000
00280000
00000050
01F907E0
0BDA1BE0
1F4F63E0
2F0F43E0
3E0A02F0
3E0E76F0
7D1D92F0
3E38A3E0
1BD02F80
ENDCHAR
STARTCHAR u_x.end
ENCODING -1
SWIDTH 863 0
DWIDTH 16 0
BBX 16 10 0 0
BITMAP
00000018
3E1F1F2D
3D2F1F49
7D3E0F4C
BC3E0FA4
BC7D0BD0
F87C0BC0
F8FC1FD0
FEBEB7F4
7D2F81F4
ENDCHAR
STARTCHAR uni0424.loclBGR
ENCODING -1
SWIDTH 840 0
DWIDTH 15 0
BBX 15 16 0 -2
BITMAP
006FE400
02E5F400
0381F400
0142F400
01BBFB80
0B83E1F0
2E07D0B8
7C07C07C
BC0BC0BC
B80F80B8
B80F40F4
7C1F42E0
2E2F1B80
0BFFF900
003E0000
007D0000
ENDCHAR
STARTCHAR uni0492.loclBSH
ENCODING -1
SWIDTH 459 0
DWIDTH 8 0
BBX 11 13 0 0
BITMAP
06FFF8
2DFEE0
74F400
B1F400
B2F000
62FF40
03E500
07D000
07C000
0BC000
0F8000
0F4000
1F4000
ENDCHAR
STARTCHAR uni04AA.loclCHU
ENCODING -1
SWIDTH 497 0
DWIDTH 9 0
BBX 10 17 0 -4
BITMAP
00BF80
03F5D0
0BC0E0
1F81D0
2F0000
3E0000
7E0000
BD0000
BD0000
BD0040
7F4180
3FFE00
1BE400
019000
003400
013400
069000
ENDCHAR
STARTCHAR uni0418.loclSRB
ENCODING -1
SWIDTH 705 0
DWIDTH 13 0
BBX 13 13 0 0
BITMAP
01BC07C0
0ABC0BC0
38F81F80
B4F43F40
B1F4BF40
72F2EF00
02FB6E00
03FD3E00
07F87D00
07E07C00
0BC0BC00
0F80F800
0F40F400
ENDCHAR
STARTCHAR uni0419.loclSRB
ENCODING -1
SWIDTH 705 0
DWIDTH 13 0
BBX 13 17 0 0
BITMAP
00074200
000B5A00
0006F400
00000000
01BC07C0
0ABC0BC0
38F81F80
B4F43F40
B1F4BF40
72F2EF00
02FB6E00
03FD3E00
07F87D00
07E07C00
0BC0BC00
0F80F800
0F40F400
ENDCHAR
STARTCHAR uni0430.end
ENCODING -1
SWIDTH 467 0
DWIDTH 8 0
BBX 10 9 -1 0
BITMAP
01FBE0
0BDBD0
1F47C0
2F0BC0
3E0F80
7D0F40
7E2F40
3FEFD0
1F8B80
ENDCHAR
STARTCHAR uni0432.end
ENCODING -1
SWIDTH 406 0
DWIDTH 7 0
BBX 9 13 -1 0
BITMAP
006E00
01F740
02D340
07C300
0F8600
1F4D00
2F7D00
3E7F00
3E0B00
7D0B00
3D0E00
3E2C00
1BE000
ENDCHAR
STARTCHAR uni0434.end
ENCODING -1
SWIDTH 480 0
DWIDTH 9 0
BBX 10 13 -1 -4
BITMAP
01FBE0
0BDBD0
1F47C0
2F0BC0
3E0F80
7D0F40
7E2F40
3FFF00
1FBE00
02BE00
097D00
0DBC00
07E000
ENDCHAR
STARTCHAR uni0435.end
ENCODING -1
SWIDTH 366 0
DWIDTH 7 0
BBX 8 9 -1 0
BITMAP
01FD
0BDE
1F4D
2E28
3FE0
7D00
7D00
3E14
1BD0
ENDCHAR
STARTCHAR uni0451.end
ENCODING -1
SWIDTH 366 0
DWIDTH 7 0
BBX 9 12 -1 0
BITMAP
02D740
02C740
000000
01FD00
0BDE00
1F4D00
2E2800
3FE000
7D0000
7D0000
3E1400
1BD000
ENDCHAR
STARTCHAR uni0436.end
ENCODING -1
SWIDTH 848 0
DWIDTH 15 0
BBX 17 9 -1 0
BITMAP
0BD0B82F40
18F4F8B780
20B8F5E340
00B9F2D000
00BFFFC000
00F6E7C000
71F3D7C000
B2D3D3D100
6F47C1F900
ENDCHAR
STARTCHAR uni0437.end
ENCODING -1
SWIDTH 426 0
DWIDTH 8 0
BBX 8 13 0 -4
BITMAP
06F8
187D
203E
503E
807D
81F4
0FD0
02F0
01F4
0AF4
35F4
36E0
1F80
ENDCHAR
STARTCHAR uni0438.end
ENCODING -1
SWIDTH 459 0
DWIDTH 8 0
BBX 8 9 0 0
BITMAP
3E1F
3D2F
7D3E
BC3E
BC7D
F8BC
F8FC
FFBE
7D2E
ENDCHAR
STARTCHAR uni0439.end
ENCODING -1
SWIDTH 459 0
DWIDTH 8 0
BBX 9 13 0 0
BITMAP
010140
0B8600
06F800
000000
3E1F00
3D2F00
7D3E00
BC3E00
BC7D00
F8BC00
F8FC00
FFBE00
7D2E00
ENDCHAR
STARTCHAR uni043A.end
ENCODING -1
SWIDTH 501 0
DWIDTH 9 0
BBX 10 9 -1 0
BITMAP
0F82E0
0F4EE0
1F7400
2FFE00
2F6F00
3E2F00
3D2F00
7D2F80
BC0B80
ENDCHAR
STARTCHAR uni043B.end
ENCODING -1
SWIDTH 511 0
DWIDTH 9 0
BBX 10 9 -1 0
BITMAP
001BF0
0036F0
0062E0
00A3D0
00D7D0
10C7C0
B58BC0
B74BE0
2E02D0
ENDCHAR
STARTCHAR uni043C.end
ENCODING -1
SWIDTH 780 0
DWIDTH 14 0
BBX 15 9 -1 0
BITMAP
000B40FC
003F42F8
006B43F4
009B8AF4
008B8DF0
10CBAAF0
B587B2E0
B247E2F8
2E07C1F4
ENDCHAR
STARTCHAR uni043D.end
ENCODING -1
SWIDTH 460 0
DWIDTH 8 0
BBX 10 9 -1 0
BITMAP
0F87D0
0F87C0
1F4B80
2F0B80
2FFF40
3E1F40
3D1F00
7D1F40
BC0B80
ENDCHAR
STARTCHAR uni043E.end
ENCODING -1
SWIDTH 439 0
DWIDTH 8 0
BBX 8 9 -1 0
BITMAP
01B9
0BDA
1F4B
2F0B
3E0A
7E0E
7D1D
3E78
1BD0
ENDCHAR
STARTCHAR uni043F.end
ENCODING -1
SWIDTH 454 0
DWIDTH 8 0
BBX 9 9 -1 0
BITMAP
0FEF40
0F9F80
1F4F80
2F0F80
2E1F40
3E1F00
3D2F00
7D2F80
BC0F40
ENDCHAR
STARTCHAR uni0441.end
ENCODING -1
SWIDTH 341 0
DWIDTH 6 0
BBX 8 9 -1 0
BITMAP
01F8
0BDD
1F4D
2F00
3E00
7D00
7D00
3E14
1FD0
ENDCHAR
STARTCHAR uni0442.end
ENCODING -1
SWIDTH 701 0
DWIDTH 13 0
BBX 14 9 -1 0
BITMAP
0FEF6F80
0F9FDBC0
1F4F87C0
2F0F4BC0
2E1F4B80
3E2F0F40
3D2F0F40
7D3E0FD0
BC3D0B80
ENDCHAR
STARTCHAR uni0443.end
ENCODING -1
SWIDTH 460 0
DWIDTH 8 0
BBX 9 13 0 -4
BITMAP
3E1F40
3D2F00
7D3E00
BC3E00
BC7D00
F8BC00
F8FC00
FFF800
7EF400
1AF400
32F000
67E000
2F8000
ENDCHAR
STARTCHAR uni0445.end
ENCODING -1
SWIDTH 500 0
DWIDTH 9 0
BBX 9 10 0 0
BITMAP
000280
07D3C0
19F180
21F740
50FD00
80F800
42F800
06BC00
1C7F40
342E00
ENDCHAR
STARTCHAR uni0447.end
ENCODING -1
SWIDTH 459 0
DWIDTH 8 0
BBX 8 9 0 0
BITMAP
3E1F
3D2F
7D3E
BC7D
7EFD
2EBC
00BC
00BF
002D
ENDCHAR
STARTCHAR uni0448.end
ENCODING -1
SWIDTH 706 0
DWIDTH 13 0
BBX 13 9 0 0
BITMAP
3E1F0F80
3D2F1F40
7D3E1F00
BC3E2F00
BC7D3E00
F8BC3E00
F8FC7D00
FFBEBF40
7D2E2E00
ENDCHAR
STARTCHAR uni044B.end
ENCODING -1
SWIDTH 608 0
DWIDTH 11 0
BBX 11 9 0 0
BITMAP
3E0028
3D01F8
7C0AF4
BDF4F4
B835F0
F836E0
F4B6E0
FAE2F8
7F41F4
ENDCHAR
STARTCHAR uni0455.end
ENCODING -1
SWIDTH 316 0
DWIDTH 6 0
BBX 7 10 -1 0
BITMAP
0050
02F4
03F4
06F4
09F4
14F8
38F8
A4F8
62F4
2F90
ENDCHAR
STARTCHAR uni0456.end
ENCODING -1
SWIDTH 209 0
DWIDTH 4 0
BBX 5 13 0 0
BITMAP
0A00
1F40
0F00
0000
3E00
3D00
7D00
BC00
BC00
F800
F400
FD00
7D00
ENDCHAR
STARTCHAR uni0458.end
ENCODING -1
SWIDTH 213 0
DWIDTH 4 0
BBX 9 17 -4 -4
BITMAP
000E00
001F40
000A00
000000
003E00
003E00
007D00
00BC00
00BC00
00F800
01F400
01F400
06F000
2BE000
A3E000
97C000
2E4000
ENDCHAR
STARTCHAR uni044E.end
ENCODING -1
SWIDTH 675 0
DWIDTH 12 0
BBX 13 9 -1 0
BITMAP
0F81BD00
0F83D700
1F4B8740
2F1F4740
2FFF0700
3E3E0A00
3D3E0D00
7D2F2800
BC1BE000
ENDCHAR
STARTCHAR uni044F.end
ENCODING -1
SWIDTH 480 0
DWIDTH 9 0
BBX 10 9 -1 0
BITMAP
01BFE0
07D7D0
0B87C0
0B8BC0
07FF80
11CF40
B69F40
B74FD0
2E0B80
ENDCHAR
STARTCHAR uni0437.init
ENCODING -1
SWIDTH 455 0
DWIDTH 8 0
BBX 9 13 0 -4
BITMAP
0BE000
25F800
90FC00
00F800
01F400
02E040
2F8080
07D200
03E900
1BE000
67D000
9BC000
7E4000
ENDCHAR
STARTCHAR uni0445.init
ENCODING -1
SWIDTH 390 0
DWIDTH 7 0
BBX 9 10 -1 0
BITMAP
001D00
1F1E00
0F4600
0F8C00
0BE400
0BD000
2BD040
A3E140
E2FE00
B0F800
ENDCHAR
STARTCHAR uni0436.loclBGR
ENCODING -1
SWIDTH 882 0
DWIDTH 16 0
BBX 18 13 -1 0
BITMAP
0000190000
00003D0000
00007C0000
00007C0000
0BD0B82F40
18F4F8B780
20B8F5E340
00B9F2D000
00BFFFC000
00F6E7C000
71F3D7C050
B2D3D3D240
6F47C1F900
ENDCHAR
STARTCHAR uni043A.loclBGR
ENCODING -1
SWIDTH 518 0
DWIDTH 9 0
BBX 11 13 -1 0
BITMAP
015000
07D000
07C000
0BC000
0F8280
0F9D00
1FB900
2FFF40
2F5F40
3E1F40
3D1F08
7D1FB4
BC0BD0
ENDCHAR
STARTCHAR uni044E.loclBGR
ENCODING -1
SWIDTH 675 0
DWIDTH 12 0
BBX 15 13 -1 0
BITMAP
02900000
07D00000
07D00000
0BC00000
0F81BD00
0F83D700
1F4B8748
2F5F4B90
2FFF0700
3E3E0A00
3D3E0D00
7D2F2800
BC1BE000
ENDCHAR
STARTCHAR uni0493.loclBSH
ENCODING -1
SWIDTH 398 0
DWIDTH 7 0
BBX 9 9 -1 0
BITMAP
1FFF40
2FAE00
2E0000
3FF400
7C0000
7C1000
BC9000
BF8000
2E0000
ENDCHAR
STARTCHAR uni04AB.loclCHU
ENCODING -1
SWIDTH 384 0
DWIDTH 7 0
BBX 9 13 -1 -4
BITMAP
01F800
0BDE00
1F4D00
2F0000
3E0000
7E0000
7D0140
3E0900
1BF400
008000
01F400
013400
069000
ENDCHAR
STARTCHAR uni0453.loclMKD
ENCODING -1
SWIDTH 267 0
DWIDTH 5 0
BBX 6 17 0 0
BITMAP
0050
01D0
0280
0300
0000
7FD0
0000
0000
3E00
3D00
7D00
BC00
BC00
F800
F490
FE80
7D00
ENDCHAR
STARTCHAR uni0433.loclSRB
ENCODING -1
SWIDTH 267 0
DWIDTH 5 0
BBX 6 12 0 0
BITMAP
7FD0
0000
0000
3E00
3D00
7D00
BC00
BC00
F800
F490
FE80
7D00
ENDCHAR
STARTCHAR uni043F.loclSRB
ENCODING -1
SWIDTH 505 0
DWIDTH 9 0
BBX 10 12 0 0
BITMAP
0BFF00
000000
000000
3E1F00
3D2F00
7D3E00
BC3E00
BC7D00
F8BC10
F8FC60
FFBEC0
7D2E00
ENDCHAR
STARTCHAR uni0442.loclSRB
ENCODING -1
SWIDTH 752 0
DWIDTH 14 0
BBX 14 12 0 0
BITMAP
0BFFFF40
00000000
00000000
3E1F0F80
3D2F1F40
7D3E1F00
BC3E2F00
BC7D3E00
F8BC3E00
F8FC7D20
FFBEBFD0
7D2E2F40
ENDCHAR
STARTCHAR uni04150437
ENCODING -1
SWIDTH 940 0
DWIDTH 17 0
BBX 18 17 0 -4
BITMAP
00BE000000
03E2800000
0782800000
0B82400000
07D006F400
07E0187D00
2F40203E00
7E00507E00
BD00807C00
FD0141F410
BE060FD050
7FFC02F180
1FE001FD00
00000BF400
000025F000
000037E000
00001F8000
ENDCHAR
STARTCHAR uni04150445
ENCODING -1
SWIDTH 797 0
DWIDTH 14 0
BBX 15 13 0 0
BITMAP
00BE4000
02E28000
07C28000
0B8240E0
07C054B0
03E0BC30
1F807C90
3F007E80
BE003E00
BD003E04
BD00BF08
7E465FB4
1FE40B90
ENDCHAR
STARTCHAR uni04010437
ENCODING -1
SWIDTH 940 0
DWIDTH 17 0
BBX 18 21 0 -4
BITMAP
00B5E00000
0075D00000
0000000000
0000000000
00BE000000
03E2800000
0782800000
0B82400000
07D006F400
07E0187D00
2F40203E00
7E00507E00
BD00807C00
FD0141F410
BE060FD050
7FFC02F180
1FE001FD00
00000BF400
000025F000
000037E000
00001F8000
ENDCHAR
STARTCHAR uni04010445
ENCODING -1
SWIDTH 797 0
DWIDTH 14 0
BBX 15 17 0 0
BITMAP
0075D000
00B5E000
00000000
00000000
00BE4000
02E28000
07C28000
0B8240E0
07C054B0
03E0BC30
1F807C90
3F007E80
BE003E00
BD003E04
BD00BF08
7E465FB4
1FE40B90
ENDCHAR
STARTCHAR uni04210437
ENCODING -1
SWIDTH 973 0
DWIDTH 18 0
BBX 18 17 0 -4
BITMAP
00BF800000
03F5D00000
0BD0E00000
1F81900000
2F4001F900
3F00052F00
7E00042F00
BD00102F00
BD00103E00
BD0040BC10
7E0147F020
3F4501F450
1BE400BE40
000006FC00
00000CF800
000019F400
00000BD000
ENDCHAR
STARTCHAR uni04210445
ENCODING -1
SWIDTH 814 0
DWIDTH 15 0
BBX 15 13 0 0
BITMAP
00BF8000
03F5D000
0BC0E000
1F8180B0
2F0014B4
3F007D24
7E007D60
BD003E80
BD002F40
BD002F00
7E00BF08
3FAB8FA8
1BE807D0
ENDCHAR
STARTCHAR uni04040437
ENCODING -1
SWIDTH 973 0
DWIDTH 18 0
BBX 18 17 0 -4
BITMAP
00BF800000
03F5D00000
0BC0E00000
1F81900000
2F0001F900
3FFD052F00
7E00042F00
BD00102F00
BD00103E00
BD0040BC00
7E0147F020
3F4501F450
1BE400BE40
000006FC00
00000CF800
000019F400
00000BD000
ENDCHAR
STARTCHAR uni04040445
ENCODING -1
SWIDTH 814 0
DWIDTH 15 0
BBX 15 13 0 0
BITMAP
00BF8000
03F5D000
0BC0E000
1F8180B0
2F0014B4
3FFD7D24
7E007D60
BD003E80
BD002F00
BD002F00
7E00BF08
3FAB8FA4
1BE807D0
ENDCHAR
STARTCHAR uni04300445
ENCODING -1
SWIDTH 899 0
DWIDTH 16 0
BBX 18 10 -1 0
BITMAP
0000000240
01FBE3E7C0
0BDBD2E180
1F47C2F240
2F0BC1F600
3E0F81F800
7D0F41F410
7E2F47F860
3FAFEDBEC0
1F87E42E00
ENDCHAR
STARTCHAR uni04300447
ENCODING -1
SWIDTH 993 0
DWIDTH 18 0
BBX 20 9 -1 0
BITMAP
01FBE3D2F0
0BDBD7D3E0
1F47CBC3E0
2F0BCBC7D0
3E0F8BEFC0
7D0F47EBC1
7E2F400F89
3FEFD00BF8
1F8B8007E0
ENDCHAR
STARTCHAR uni04310433
ENCODING -1
SWIDTH 816 0
DWIDTH 15 0
BBX 16 13 -1 0
BITMAP
00BFFC00
00FFF400
00B40000
00280000
01BD07E4
0BDA25F8
1F4B90F8
2F0B82F4
3E0B0FE0
7D0E3F40
3D1C7E02
3E247E18
1BD01FE0
ENDCHAR
STARTCHAR uni04310453
ENCODING -1
SWIDTH 816 0
DWIDTH 15 0
BBX 16 13 -1 0
BITMAP
00BFFC38
00FFF4B0
00B40090
00280000
01BD07E4
0BDA25F8
1F4B90F8
2F0B82F4
3E0B0FE0
7D0E3F40
3D1C7E02
3E247E18
1BD01FE0
ENDCHAR
STARTCHAR uni04310451
ENCODING -1
SWIDTH 814 0
DWIDTH 15 0
BBX 16 13 -1 0
BITMAP
00002400
00FFF38B
00FFD38B
00B40000
002C02F8
01BE0B9D
0B9B1F1C
2F4B3E78
3E0B7FD0
3D0E7D01
7D1D7D06
3EB87E68
1BD01F90
ENDCHAR
STARTCHAR uni04310436
ENCODING -1
SWIDTH 1261 0
DWIDTH 23 0
BBX 25 13 -1 0
BITMAP
00BFFC00000000
00FFF400000000
00F40000000000
00780000000000
001D1B81F07D00
01BE22E2F1EB00
0BDB81F2E3C700
2F4B41F3E78000
3E0B01FFFF4000
3E0E02E7DF4000
7D1C43DBCF4140
3E24D78B8B8600
1BD0BE0F42F400
ENDCHAR
STARTCHAR uni04310439
ENCODING -1
SWIDTH 935 0
DWIDTH 17 0
BBX 19 13 -1 0
BITMAP
00BFFAD080
00FFE3D240
00F401F900
0078000000
001D0F4BC0
01BE1F4F80
0BDB2F0F80
2F4B2F1F40
3E0A3E1F00
3E0E7D2F00
7D1C7D3E14
3E247DBE20
1BD02F5F80
ENDCHAR
STARTCHAR uni0431045E
ENCODING -1
SWIDTH 916 0
DWIDTH 16 0
BBX 18 17 -1 -4
BITMAP
00BFFAD080
00FFE3D240
00B401F900
0028000000
01BD0F4BC0
0BDA1F4F80
1F4B2F0F40
2F0B2F1F40
3E0A3E1F00
7D0E7D2F00
3D1C7D3E20
3E247DBD50
1BD02FBE40
000001BC00
000008F800
00001AF400
00000BD000
ENDCHAR
STARTCHAR uni0431044D
ENCODING -1
SWIDTH 860 0
DWIDTH 15 0
BBX 16 13 -1 0
BITMAP
00BFFC00
00FFF400
00F40000
00780000
001D06F8
01BE187D
0BDB603E
2F4B803E
3E0B47FD
3E0E007C
7D1CA0B8
3E24E1E0
1BD07F80
ENDCHAR
STARTCHAR uni04310456
ENCODING -1
SWIDTH 697 0
DWIDTH 13 0
BBX 14 13 -1 0
BITMAP
00AFF680
00FFDBC0
00F50780
00780000
001D0F40
01BE1F40
0BDB2F00
2F4B2F00
3E0A3E00
3E0E7D00
7D1C7D10
3E247D60
1BD02F40
ENDCHAR
STARTCHAR uni04310457
ENCODING -1
SWIDTH 697 0
DWIDTH 13 0
BBX 15 13 -1 0
BITMAP
00006000
00FFDE74
00FF8E74
00B40000
002C0F40
01BE1F40
0BDB2F00
2F4B2F00
3E0B3E00
3E0E7D00
7D1D7D10
3E287D60
1BD02F40
ENDCHAR
STARTCHAR uni04310458
ENCODING -1
SWIDTH 669 0
DWIDTH 12 0
BBX 14 17 -1 -4
BITMAP
00BFF780
00FFDBC0
00B40640
00280000
01BD0F40
0BDA1F40
1F4B2F00
2F0B2E00
3E0A3E00
7D0E7D00
3D1C7D20
3E24BC80
1BD0FE00
000BF800
0029F400
0036E000
001F8000
ENDCHAR
STARTCHAR uni04320433
ENCODING -1
SWIDTH 837 0
DWIDTH 15 0
BBX 17 13 -1 0
BITMAP
006E000000
01F7400000
02D3400000
07C3000000
0F8606F400
1F4D24BC00
2F7E80BC00
3E7F02F800
3E0B0BE000
7D0B2F8000
3D0E3E0140
3E2C3F0900
1BE01BE400
ENDCHAR
STARTCHAR uni04320453
ENCODING -1
SWIDTH 837 0
DWIDTH 15 0
BBX 17 13 -1 0
BITMAP
006E002C00
01F7407400
02D340A000
07C3000000
0F8606F400
1F4D24BC00
2F7E80BC00
3E7F02F800
3E0B0BE000
7D0B2F8000
3D0E3E0140
3E2C3F0900
1BE01BE400
ENDCHAR
STARTCHAR uni04320436
ENCODING -1
SWIDTH 1279 0
DWIDTH 23 0
BBX 25 13 -1 0
BITMAP
006E0000000000
01F74000000000
02D34000000000
07C30000000000
0F861BD0F46E00
1F4D65F1F4F740
2F7D80F5F2D300
3E7F00F6F3C000
3E0B00FFFF8000
7D0B01F3DB8000
3D0E12E7CB8040
3E2CA3C7C7D600
1BE07E0B82F800
ENDCHAR
STARTCHAR uni04320437
ENCODING -1
SWIDTH 824 0
DWIDTH 15 0
BBX 17 17 -1 -4
BITMAP
006E000000
01F7400000
02D3400000
07C3000000
0F861BD000
1F4DA5F400
2F7E81F400
3E3F01F400
3E0B02F000
7D0B07D000
3D0E3F4140
3E2C0B8200
1BE007E800
00001FD000
00009BC000
0000DF8000
0000BE0000
ENDCHAR
STARTCHAR uni04320445
ENCODING -1
SWIDTH 851 0
DWIDTH 15 0
BBX 17 13 -1 0
BITMAP
006E000000
01F7400000
02D3400000
07C3000A00
0F861F4F00
1F4DABC300
2F7E87D900
3E7F03E800
3E0B03E000
7D0B07E000
3D0E1EE080
3E2C75F540
1BE1D0B900
ENDCHAR
STARTCHAR uni04330437
ENCODING -1
SWIDTH 840 0
DWIDTH 15 0
BBX 17 13 -1 -4
BITMAP
06F40BE000
18BC25F800
20BC50F800
02F880F800
0BE141F400
3F4202E040
7E052F8180
7E140BC200
2F9003E800
00001BE000
0000A7D000
00009BC000
00007E0000
ENDCHAR
STARTCHAR uni04330445
ENCODING -1
SWIDTH 740 0
DWIDTH 13 0
BBX 15 10 -1 0
BITMAP
000000E0
06F4F4B0
18BCF860
20BCBC90
02F87F40
0BE03D00
3F40BE04
7E026F18
7E191FF0
2FE00B90
ENDCHAR
STARTCHAR uni04330447
ENCODING -1
SWIDTH 880 0
DWIDTH 16 0
BBX 18 9 -1 0
BITMAP
06F43D2F00
18BC7D3E00
20BCBC3D00
02F8BCBD00
0BE0FFFC00
3F427EFC10
7E0500F890
7E1400FE80
2F90007E00
ENDCHAR
STARTCHAR uni04530437
ENCODING -1
SWIDTH 840 0
DWIDTH 15 0
BBX 17 17 -1 -4
BITMAP
000F000000
001D000000
0034000000
0000000000
06F40BE000
18BC25F800
20BC50F800
02F880F800
0BE141F400
3F4202E040
7E052F8180
7E140BC200
2F9003E800
00001BE000
0000A7D000
00009BC000
00007E0000
ENDCHAR
STARTCHAR uni04530445
ENCODING -1
SWIDTH 740 0
DWIDTH 13 0
BBX 15 13 -1 0
BITMAP
000E0000
002C0000
00340000
000000E0
06F4F4B0
18BCF860
20BCBC90
02F87F40
0BE03D00
3F40BE04
7E026F18
7E191FF0
2FE00B90
ENDCHAR
STARTCHAR uni04530447
ENCODING -1
SWIDTH 880 0
DWIDTH 16 0
BBX 18 13 -1 0
BITMAP
000F000000
001D000000
0034000000
0000000000
06F43D2F00
18BC7D3E00
20BCBC3D00
02F8BCBD00
0BE0FFFC00
3F427EFC10
7E0500F890
7E1400FE80
2F90007E00
ENDCHAR
STARTCHAR uni04340447
ENCODING -1
SWIDTH 1010 0
DWIDTH 18 0
BBX 20 13 -1 -4
BITMAP
01FBE2E1F4
0BDBD3E2F0
1F47C7D2E0
2F0BC7D7E0
3E0F8BEFD0
7D1F4AEBC1
7E2F540BC6
3FFF6007FC
1FBF4002E0
01FE000000
0A7D000000
09BC000000
07E0000000
ENDCHAR
STARTCHAR uni04340458
ENCODING -1
SWIDTH 746 0
DWIDTH 13 0
BBX 15 17 -1 -4
BITMAP
000000F0
000001F4
000000A0
00000000
01FBE2E0
0BDBD3E0
1F47C7D0
2F0BC7D0
3E0F8BC0
7D0F4F84
7E2F4F88
3FFF1F64
1FBF6F80
01BE2F00
097D3E00
0AFEBD00
07E6E400
ENDCHAR
STARTCHAR uni04350437
ENCODING -1
SWIDTH 876 0
DWIDTH 16 0
BBX 18 13 -1 -4
BITMAP
01FD06F400
0BDE18BD00
1F4D207D00
2E2C507D00
3FE080BC00
7E0141F400
7D020FD090
3E1806E180
1BE001FA00
00000BF400
000026F000
000037E000
00002F8000
ENDCHAR
STARTCHAR uni04350445
ENCODING -1
SWIDTH 762 0
DWIDTH 14 0
BBX 15 10 -1 0
BITMAP
00000060
01FD7CB4
0BDE7D24
1F4D3D60
2E2C3F80
3FE02F00
7D002F00
7E00AF48
3F464FF8
1BE807D0
ENDCHAR
STARTCHAR uni04350447
ENCODING -1
SWIDTH 889 0
DWIDTH 16 0
BBX 18 9 -1 0
BITMAP
01FD3E2F00
0BDE7D2F00
1F4D7C3E00
2E2CBCBD00
3FE0FFFD00
7E016EBC10
7D0600BC50
3E1800BE80
1BD0007E00
ENDCHAR
STARTCHAR uni04510437
ENCODING -1
SWIDTH 876 0
DWIDTH 16 0
BBX 18 17 -1 -4
BITMAP
02C7400000
02D7400000
0000000000
0000000000
01FD06F400
0BDE18BD00
1F4D207D00
2E2C507D00
3FE080BC00
7E0141F400
7D020FD090
3E1806E180
1BE001FA00
00000BF400
000026F000
000037E000
00002F8000
ENDCHAR
STARTCHAR uni04510445
ENCODING -1
SWIDTH 762 0
DWIDTH 14 0
BBX 15 12 -1 0
BITMAP
02D74000
02C74000
00000060
01FD7CB4
0BDE7D24
1F4D3D60
2E2C3F80
3FE02F00
7D002F00
7E00AF48
3F464FF8
1BE807D0
ENDCHAR
STARTCHAR uni04510447
ENCODING -1
SWIDTH 889 0
DWIDTH 16 0
BBX 18 12 -1 0
BITMAP
02D7400000
02C7400000
0000000000
01FD3E2F00
0BDE7D2F00
1F4D7C3E00
2E2CBCBD00
3FE0FFFD00
7E016EBC10
7D0600BC50
3E1800BE80
1BD0007E00
ENDCHAR
STARTCHAR uni04360447
ENCODING -1
SWIDTH 1392 0
DWIDTH 25 0
BBX 27 9 -1 0
BITMAP
0BD0B82F4F8BC0
18F4F8B79F4B80
20B8F5E35F4F80
00B9F2D02F0F40
00BFFFC03F2F40
10F6E7C06FBF04
B1F3D7C0802E14
B2D3D3D6402FA0
2F47C1F9001F80
ENDCHAR
STARTCHAR uni04370437
ENCODING -1
SWIDTH 921 0
DWIDTH 17 0
BBX 17 13 0 -4
BITMAP
06F807E400
187D14BC00
203E107D00
503E40BD00
807D80B800
81F441F000
0FD15FC080
02F207E140
01F902F900
06F40BF000
29F436E000
36E067D000
1F802F4000
ENDCHAR
STARTCHAR uni04380447
ENCODING -1
SWIDTH 1010 0
DWIDTH 18 0
BBX 19 9 0 0
BITMAP
3E1F0B87D0
3D2F0F8BC0
7D3E1F4B80
BC3E1F4F80
BC7D2FBF40
F8BC2BAF44
F8FC502F18
FFBE801FB0
7D2E000B80
ENDCHAR
STARTCHAR uni04390447
ENCODING -1
SWIDTH 1010 0
DWIDTH 18 0
BBX 19 13 0 0
BITMAP
0101400000
0B86000000
06F8000000
0000000000
3E1F0B87D0
3D2F0F8BC0
7D3E1F4B80
BC3E1F5F80
BC7D2FBF40
F8BC2BAF44
F8FC502F18
FFBE801FB0
7D2E000B80
ENDCHAR
STARTCHAR uni043A0447
ENCODING -1
SWIDTH 1016 0
DWIDTH 18 0
BBX 20 9 -1 0
BITMAP
0F82E2F0F4
0F4EE2E1F4
1F7403E2F0
2FFE07D3F0
2F6F07FFE0
3E2F0AEBD1
3D2F1807D2
7D2FB007E9
BC0B9002E4
ENDCHAR
STARTCHAR uni045C0447
ENCODING -1
SWIDTH 1016 0
DWIDTH 18 0
BBX 20 13 -1 0
BITMAP
0007400000
000E000000
002C000000
0000000000
0F82E2F0F4
0F4EE2E1F4
1F7403E2F0
2FFE07D3F0
2F6F07FFE0
3E2F0AEBD1
3D2F1807D2
7D2FB007E9
BC0B9002E4
ENDCHAR
STARTCHAR uni043B0447
ENCODING -1
SWIDTH 1061 0
DWIDTH 19 0
BBX 21 9 -1 0
BITMAP
001BF0F87C00
003AF0F4BC00
0062E1F4F800
0093D2F1F800
00D7D2FBF400
60C7C2BAF040
B58BC902F140
B74BF802FE00
2E02E000B800
ENDCHAR
STARTCHAR uni043C0447
ENCODING -1
SWIDTH 1276 0
DWIDTH 23 0
BBX 25 9 -1 0
BITMAP
003E03F0F8BC00
007E07E1F4B800
007E0BE1F0F800
00BF1FD2F1F400
00AF2BC3FBF400
20EF7BC6BAF040
B59FDB8902E140
B25FCBE802FA00
2E1F47E001F800
ENDCHAR
STARTCHAR uni043D0447
ENCODING -1
SWIDTH 1011 0
DWIDTH 18 0
BBX 20 9 -1 0
BITMAP
0F87D2E1F4
0F87C3E2F0
1F4B83D2F0
2F0B87D3E0
2FFF4BD7D0
3E1F4BFBD1
3D1F080BC2
7D2F600BD8
BC0B8002E4
ENDCHAR
STARTCHAR uni043E0433
ENCODING -1
SWIDTH 804 0
DWIDTH 14 0
BBX 16 9 -1 0
BITMAP
01BD06F4
0BDA24BC
1F4F90BC
2F0B02F8
3E0A1FE0
7E0D3F40
7D1C7D02
3E747E18
1BD02F90
ENDCHAR
STARTCHAR uni043E0453
ENCODING -1
SWIDTH 804 0
DWIDTH 14 0
BBX 16 13 -1 0
BITMAP
0000001E
0000002C
00000074
00000000
01BD06F4
0BDA24BC
1F4F90BC
2F0B02F8
3E0A1FE0
7E0D3F40
7D1C7D02
3E747E18
1BD02F90
ENDCHAR
STARTCHAR uni043E0436
ENCODING -1
SWIDTH 1271 0
DWIDTH 23 0
BBX 25 9 -1 0
BITMAP
01B90B80F47E00
0BDA25E1F1E700
1F4B80F2F2D700
2F0F00F2E78000
3E0A01FFFF8000
7E0E01E7DB4000
7D1C92D7CB4140
3E34D78B8B8600
1BD0BE0F82F800
ENDCHAR
STARTCHAR uni043E0437
ENCODING -1
SWIDTH 837 0
DWIDTH 15 0
BBX 17 13 -1 -4
BITMAP
01BD0BE000
0BDA65F400
1F4F80F800
2F0B00F800
3E0A01F400
7E0D03E040
7D1C2F4140
3E740BC200
1BD003E800
00001BE000
0000A7D000
0000DB8000
00007E0000
ENDCHAR
STARTCHAR uni043E043B
ENCODING -1
SWIDTH 992 0
DWIDTH 18 0
BBX 20 9 -1 0
BITMAP
01B9001FF0
0BDA0036E0
1F4700A3E0
2F0B00D7D0
3E0B00C7C0
7E0E01CBC0
7D1DB28B85
3E79F74B88
1BE97E07E0
ENDCHAR
STARTCHAR uni043E043C
ENCODING -1
SWIDTH 1207 0
DWIDTH 22 0
BBX 23 9 -1 0
BITMAP
01B9003E03E0
0BDA007E0BE0
1F4700BE0FD0
2F0B00BE1FC0
3E0A00EE3BC0
7D0E11AE6B80
7D2DB1AFDF88
3FBEE36F8FE8
1BE47D2F47E0
ENDCHAR
STARTCHAR uni043E0445
ENCODING -1
SWIDTH 850 0
DWIDTH 15 0
BBX 17 10 -1 0
BITMAP
0000000900
01F80F8F00
0BDA0F8300
1F4B6BCA00
2F0F87D800
3E0A07F000
7D0E0BD000
7D1D3BE080
3E78A2F540
1BD0B4B900
ENDCHAR
STARTCHAR uni043E0459
ENCODING -1
SWIDTH 1179 0
DWIDTH 21 0
BBX 22 9 -1 0
BITMAP
01B9001FF000
0BDA0036E000
1F4700A3E500
2F0B00D7FFC0
3E0B00C7D7D0
7E0E01CBC3D0
7D1DB28B87C0
3E79F74B8B40
1BE97E02F900
ENDCHAR
STARTCHAR uni043E044D
ENCODING -1
SWIDTH 867 0
DWIDTH 16 0
BBX 16 9 -1 0
BITMAP
01B906F8
0BDA187E
1F4F503E
2F0F002E
3E0A03FE
7E0E007D
7D1C60B8
3E34A1F0
1BD06F80
ENDCHAR
STARTCHAR uni043F0447
ENCODING -1
SWIDTH 1010 0
DWIDTH 18 0
BBX 20 9 -1 0
BITMAP
0FEE02E1F4
0F9F83E2F0
1F4F87D2F0
2F0F87D7E0
2E1F4BFFD0
3E1F0AEBD1
3D2F040BC2
7D2F1007D8
BC0B8002E0
ENDCHAR
STARTCHAR uni04400437
ENCODING -1
SWIDTH 890 0
DWIDTH 16 0
BBX 19 14 -2 -4
BITMAP
02F0000000
03FBD0BE00
03E2E65F40
07D2F80F80
0BC2F00F80
0B82E01F40
0F83D03E04
1F4BC2F414
1FAF40BC20
2FBD007E80
3E0001FD00
3E000A7D00
7D000DB800
680007E000
ENDCHAR
STARTCHAR uni04410437
ENCODING -1
SWIDTH 876 0
DWIDTH 16 0
BBX 18 13 -1 -4
BITMAP
01FD06F400
0BDE18BD00
1F44207D00
2F00507D00
3E0080BC00
7E0141F400
7D020FD090
3E1806E180
1BE001FA00
00000BF400
000026F000
000037E000
00002F8000
ENDCHAR
STARTCHAR uni04410445
ENCODING -1
SWIDTH 755 0
DWIDTH 14 0
BBX 15 10 -1 0
BITMAP
00000060
01F8BCB4
0BDD7C20
1F4D7D60
2F003E80
3E003F40
7D002F00
7D00BF08
3E465FF4
1BE40BD0
ENDCHAR
STARTCHAR uni04410447
ENCODING -1
SWIDTH 889 0
DWIDTH 16 0
BBX 18 9 -1 0
BITMAP
01FD3E2F00
0BDE7D2F00
1F497D3E00
2F00BC7D00
3E00FEFD00
7E016EBC10
7D0600BC50
3E1800BE80
1BD0007E00
ENDCHAR
STARTCHAR uni0441044A
ENCODING -1
SWIDTH 841 0
DWIDTH 15 0
BBX 16 9 -1 0
BITMAP
01F82FD0
0BDEB280
1F4DB740
2F001FB9
3E003E2E
7E00BD2E
7D02BC3E
3E197DB8
1BE02F90
ENDCHAR
STARTCHAR uni04420447
ENCODING -1
SWIDTH 1257 0
DWIDTH 23 0
BBX 24 9 -1 0
BITMAP
0FEF6F41F4F8
0F9FDBC2F0F8
1F4F87C2E1F4
2F0F4BC3E2F0
2E1F4B83FFF0
3E2F0F86F7E1
3D2F0F4803E2
7D3E0F5403E5
BC3D07D001F4
ENDCHAR
STARTCHAR uni04430447
ENCODING -1
SWIDTH 989 0
DWIDTH 18 0
BBX 19 13 0 -4
BITMAP
3E1F1F4BC0
3D2F1F4F80
7D3E2F1F40
BC3E2E2F40
B87D3FBF00
F8BC6FBE04
F8FC803E20
FFF9403FE0
7EF9001F40
0BF0000000
36F0000000
37D0000000
2F80000000
ENDCHAR
STARTCHAR uni04430458
ENCODING -1
SWIDTH 725 0
DWIDTH 13 0
BBX 14 17 0 -4
BITMAP
00000780
00000BC0
00000640
00000000
3E1F0F40
3D2F1F40
7D3E2F00
BC3E2E00
BC7D3E00
F8BC7D10
F8FC7C50
FFF8BD80
7EF9FD00
0BFAF400
36F1F400
37E2E000
2FAF8000
ENDCHAR
STARTCHAR uni045E0447
ENCODING -1
SWIDTH 989 0
DWIDTH 18 0
BBX 19 17 0 -4
BITMAP
0742400000
0B86000000
02F8000000
0000000000
3E1F1F4BC0
3D2F1F4F80
7D3E2F1F40
BC3E2E2F40
B87D3FBF00
F8BC6FBE04
F8FC803E20
FFF9403FE0
7EF9001F40
0BF0000000
36F0000000
37D0000000
2F80000000
ENDCHAR
STARTCHAR uni045E0458
ENCODING -1
SWIDTH 725 0
DWIDTH 13 0
BBX 14 17 0 -4
BITMAP
06414640
0B860BC0
06F80780
00000000
3E1F0F40
3D2F1F40
7D3E2F00
BC3E2E00
BC7D3E00
F8BC7D10
F8FC7C50
FFF8BD80
7EF9FD00
06F5F400
22F1F400
3BFBE000
2F9F8000
ENDCHAR
STARTCHAR uni04440437
ENCODING -1
SWIDTH 1148 0
DWIDTH 21 0
BBX 22 17 -1 -4
BITMAP
000050000000
0001F0000000
0002E0000000
0003E0000000
01FBEF81BD00
0BDBD7DA2F00
1F4BC2F41F40
2F0B82E01F40
3E0F43D02F00
7D1F47C07D00
7E2F0F87F420
3FFFFF41F860
1FBEF900BE80
003D0002FC00
007C000DBC00
00BC0019F400
00A4000BD000
ENDCHAR
STARTCHAR uni04450447
ENCODING -1
SWIDTH 1027 0
DWIDTH 18 0
BBX 19 10 0 0
BITMAP
0002800000
07D3C7C3E0
15F18BC7D0
20F70F8BC0
50FD0F4FC0
80F81FFF80
42F81BEF84
06B8201F48
1C7D501F54
342E400B90
ENDCHAR
STARTCHAR uni0445044A
ENCODING -1
SWIDTH 1006 0
DWIDTH 18 0
BBX 18 10 0 0
BITMAP
0002400000
07D3C7F800
1AF1CE7400
21F64DE000
50FA02EF80
80F807D7D0
81F80B83D0
03B81F87C0
0D7D6F9F40
342F87F900
ENDCHAR
STARTCHAR uni04470447
ENCODING -1
SWIDTH 1010 0
DWIDTH 18 0
BBX 19 9 0 0
BITMAP
3E1F0B87D0
3D2F0F8BC0
7D3E1F4B80
BC7E1F4F80
7EFD2FBF40
2EBC2BAF44
00BC502F18
00BE801FB0
002E000B80
ENDCHAR
STARTCHAR uni04480447
ENCODING -1
SWIDTH 1257 0
DWIDTH 23 0
BBX 23 9 0 0
BITMAP
3E1F0F87D3E0
3D2F1F4BC3D0
7D3E1F0B87D0
BC3E2F0F8BC0
BC7D3E1FEF80
F8BC3E1BEF84
F8FC7D200F48
FFBEBFD00FF4
7D2E2F4007D0
ENDCHAR
STARTCHAR uni045F0447
ENCODING -1
SWIDTH 1010 0
DWIDTH 18 0
BBX 19 13 0 -4
BITMAP
3E1F0B87D0
3D2F0F8BC0
7D3E1F4B80
BC3E1F5F80
BC7D2FBF40
F8BC2BAF44
F8FC502F18
FFBE801FB0
7D2E000B80
0240000000
07C0000000
03C0000000
0280000000
ENDCHAR
STARTCHAR uni044B0447
ENCODING -1
SWIDTH 1157 0
DWIDTH 21 0
BBX 22 9 0 0
BITMAP
3E00283D2F00
3D01F87D3E00
7C0AF4BC3D00
BDF4F4BC7D00
B835F0FEFC00
F836E1BEF810
F4B6E200F890
FAE3FA00FE80
7F41F8007E00
ENDCHAR
STARTCHAR uni04550437
ENCODING -1
SWIDTH 840 0
DWIDTH 15 0
BBX 17 14 -1 -4
BITMAP
0010000000
02F40BE000
03F425F800
06F450F800
08F480F800
14F941F400
38FA02E040
A4FD2F8180
62F80BC200
2F9003E800
00001BE000
0000A7D000
00009BC000
00007E0000
ENDCHAR
STARTCHAR uni04550445
ENCODING -1
SWIDTH 727 0
DWIDTH 13 0
BBX 15 10 -1 0
BITMAP
005001D0
02F4F5E0
03F4F860
06F4B890
09F4BE40
18F87E00
38F87D04
A4FABE18
62F92FB0
2F900F80
ENDCHAR
STARTCHAR uni04550447
ENCODING -1
SWIDTH 909 0
DWIDTH 16 0
BBX 18 10 -1 0
BITMAP
0050000000
02F42F1F40
03F42E1F40
06F43E2F00
09F47D3E00
14F8BFFE00
38F96EBD10
A0FA007D20
62F8007E90
2F90002E40
ENDCHAR
STARTCHAR uni04540437
ENCODING -1
SWIDTH 876 0
DWIDTH 16 0
BBX 18 13 -1 -4
BITMAP
01FD06F400
0B9E18BD00
1F04207D00
2FF0507D00
3E0080BC00
7D0141F410
7D020FD080
3E1806E180
1BE001FA00
00000BF400
000026F000
000037E000
00002F8000
ENDCHAR
STARTCHAR uni04540445
ENCODING -1
SWIDTH 755 0
DWIDTH 14 0
BBX 15 10 -1 0
BITMAP
00000060
01F8BCB4
0BDD7C24
1F4D7D20
2F003D90
3FF03F40
7D002F00
7D007F08
3E465FF8
1BE40BD0
ENDCHAR
STARTCHAR uni04540447
ENCODING -1
SWIDTH 889 0
DWIDTH 16 0
BBX 18 9 -1 0
BITMAP
01F83E2F00
0BDE3D2F00
1F4D7D3E00
2F00BC3D00
3FF0FCBD00
7E01BEBC10
7D0600BC50
3E1800BE80
1BD0007E00
ENDCHAR
STARTCHAR uni044D0437
ENCODING -1
SWIDTH 837 0
DWIDTH 15 0
BBX 17 13 -1 -4
BITMAP
06F90BE000
196E65F400
002F80F800
03FF00F800
003E01F400
103D03E040
B0B82F4140
B1F00BC200
2F8003E800
00001BD000
0000A7D000
0000DB8000
00007E0000
ENDCHAR
STARTCHAR uni04560447
ENCODING -1
SWIDTH 763 0
DWIDTH 14 0
BBX 15 13 0 0
BITMAP
0A000000
1F400000
0F000000
00000000
3E1F4B80
3D1F0F80
7D2F1F40
BC3E2F00
BC3FBF00
F86FBE14
F4803E20
FE403FA0
7D001F40
ENDCHAR
STARTCHAR uni04570447
ENCODING -1
SWIDTH 763 0
DWIDTH 14 0
BBX 15 12 0 0
BITMAP
B5E00000
75D00000
00000000
3E1F4B80
3D1F0F80
7D2F1F40
BC3E2F00
BC3FBF00
F86FBE14
F4803E20
FE403FA0
7D001F40
ENDCHAR
STARTCHAR uni04570457
ENCODING -1
SWIDTH 543 0
DWIDTH 10 0
BBX 11 12 0 0
BITMAP
B7DEB4
76DE74
000000
3E0F80
3D1F40
7D2F00
BC2F00
BC3E00
F83D00
F4BD20
FEBFD0
7E2E40
ENDCHAR
STARTCHAR uni04580447
ENCODING -1
SWIDTH 743 0
DWIDTH 13 0
BBX 18 17 -4 -4
BITMAP
001E000000
002F400000
000A000000
0000000000
003E2F0F40
003E2E1F40
007D3E2F00
00BC7D3E00
00BC7FFE00
00F8AFBD10
01F4807D60
01F6007FD0
02F4002E40
1FE0000000
67D0000000
ABC0000000
6E40000000
ENDCHAR
STARTCHAR uni04580458
ENCODING -1
SWIDTH 480 0
DWIDTH 9 0
BBX 13 17 -4 -4
BITMAP
001E0B40
002F5F80
000A0A00
00000000
003E2F00
003E2E00
007D3E00
00BC7D00
00BC7C00
00F8BC40
00F4F880
01F0FA40
02FAF800
1BE2F000
63D2E000
AFEBD000
2E6F4000
ENDCHAR
STARTCHAR uni045B0447
ENCODING -1
SWIDTH 990 0
DWIDTH 18 0
BBX 20 17 -1 -4
BITMAP
0150000000
07D0000000
07C0000000
2FFC000000
0F8007D3E0
0FAE07C3E0
1F9F4BC7D0
2F0F4F8BC0
2E1F4FFFC0
3E2F1BDF85
3D2E200F88
7D3E500FF4
BC7E0007D0
07FC000000
0DB8000000
0DF4000000
0BD0000000
ENDCHAR
STARTCHAR uni045B0458
ENCODING -1
SWIDTH 722 0
DWIDTH 13 0
BBX 15 17 -1 -4
BITMAP
019001E0
07D003F0
07C00190
2FFC0000
0F8007D0
0FAE07D0
1F9F4BC0
2F0F4B80
2E1F4F80
3E2F1F44
3D2E1F14
7D3E2F60
BC7D7E40
06BD7D00
0CBC7C00
0EFEF800
0BE7E000
ENDCHAR
STARTCHAR uni044E0433
ENCODING -1
SWIDTH 1050 0
DWIDTH 19 0
BBX 20 9 -1 0
BITMAP
0F81BD02F4
0F83D718BD
1F4B8B90BD
2F1F4B41FC
2FFF070BF0
3E3E0A2F80
3D3E0D7E01
7D2F283E19
BC1BE01FE0
ENDCHAR
STARTCHAR uni044E0453
ENCODING -1
SWIDTH 1050 0
DWIDTH 19 0
BBX 20 13 -1 0
BITMAP
000000000E
000000002C
0000000034
0000000000
0F81BD02F4
0F83D718BD
1F4B8B90BD
2F1F4B41FC
2FFF070BF0
3E3E0A2F80
3D3E0D7E01
7D2F283E19
BC1BE01FE0
ENDCHAR
STARTCHAR uni044E0436
ENCODING -1
SWIDTH 1507 0
DWIDTH 27 0
BBX 29 9 -1 0
BITMAP
0F81BD0BD0F86E00
0F83D725F0F4F740
1F4B8B90F5F2D340
2F1F4B40F5F3C000
2FFF0700FFFFC000
3E3E0A00F3EB8000
3D3E0D61E3DB8080
7D2F28A3C7C7D600
BC1BE07E4B82F800
ENDCHAR
STARTCHAR uni044E0437
ENCODING -1
SWIDTH 1073 0
DWIDTH 19 0
BBX 21 13 -1 -4
BITMAP
0F81BD0BE000
0F47DB65F800
1F5F8BD0BC00
2FFF4740BC00
2E3F0B00F800
3E3E0A02E040
3D3E0D2F8080
7D2F2807D240
BC0BE003E900
0000001BE000
00000067E000
000000ABC000
0000007E4000
ENDCHAR
STARTCHAR uni044E043B
ENCODING -1
SWIDTH 1228 0
DWIDTH 22 0
BBX 24 9 -1 0
BITMAP
0F81BD000BF0
0F83D7003AF0
1F4B874072E0
2F1F4740A3E0
2FFF0700D7D0
3E3E0B00C7C0
3D3E0E65CBC2
7D2F2DB64BC8
BC1BE97E02E4
ENDCHAR
STARTCHAR uni044E043C
ENCODING -1
SWIDTH 1443 0
DWIDTH 26 0
BBX 28 9 -1 0
BITMAP
0F81BD003E02F0
0F83D7003E07E0
1F4B87407F0BE0
2F1F4740BF0FD0
2FFF0700BF2FD0
3E3E0B00EF3BC0
3D3E0E659FAB85
7D2F2DB65FCBC8
BC1BF97E1F87E0
ENDCHAR
STARTCHAR uni044E0445
ENCODING -1
SWIDTH 1088 0
DWIDTH 20 0
BBX 21 10 -1 0
BITMAP
000000000A00
0F81BD0BCB40
0F47D70FC300
1F5F8BA7D900
2FFF4743F400
2E3F0B07E000
3E3E0A1FF000
3D3E0D35F080
7D2F2861F540
BC0BE074B900
ENDCHAR
STARTCHAR uni044E0459
ENCODING -1
SWIDTH 1415 0
DWIDTH 25 0
BBX 26 9 -1 0
BITMAP
0F81BD000BF000
0F83D7003AF000
1F4B874072E100
2F1F4740A3FFD0
2FFF0700D7E7E0
3E3E0B00C7D2E0
3D3E0E75CBC3D0
7D2F2DB647CB80
BC1BE97E02F900
ENDCHAR
STARTCHAR uni044E044D
ENCODING -1
SWIDTH 1103 0
DWIDTH 20 0
BBX 20 9 -1 0
BITMAP
0F81BD02F8
0F83D7197E
1F4B8B502F
2F1F4B402F
2FFF0702FF
3E3E0A003E
3D3E0D607C
7D2F2870F4
BC1BE02F90
ENDCHAR
STARTCHAR uni044F0447
ENCODING -1
SWIDTH 1030 0
DWIDTH 19 0
BBX 20 9 -1 0
BITMAP
01BFE1F0F8
07D7D2F1F4
0B87C3E1F4
0B8BC3E3F0
07FF87FFE0
21CF4AFBE1
B68F4807D2
B74FF403FD
2E0BD002E4
ENDCHAR
STARTCHAR uni04300445.liga
ENCODING -1
SWIDTH 884 0
DWIDTH 16 0
BBX 17 10 -1 0
BITMAP
0000000240
01FBE3E7C0
0BDBD2E180
1F47C2F240
2F0BC1F600
3E0F81F800
7D0F40F400
7E2F47F800
3FAFEDBE00
1F87E02D00
ENDCHAR
ENDFONT
